G04 #@! TF.GenerationSoftware,KiCad,Pcbnew,(5.1.2)-1*
G04 #@! TF.CreationDate,2019-05-18T22:17:39-04:00*
G04 #@! TF.ProjectId,Simon Says Game,53696d6f-6e20-4536-9179-732047616d65,rev?*
G04 #@! TF.SameCoordinates,Original*
G04 #@! TF.FileFunction,Soldermask,Bot*
G04 #@! TF.FilePolarity,Negative*
%FSLAX46Y46*%
G04 Gerber Fmt 4.6, Leading zero omitted, Abs format (unit mm)*
G04 Created by KiCad (PCBNEW (5.1.2)-1) date 2019-05-18 22:17:39*
%MOMM*%
%LPD*%
G04 APERTURE LIST*
%ADD10C,0.100000*%
G04 APERTURE END LIST*
D10*
G36*
X176224549Y-104871116D02*
G01*
X176335734Y-104893232D01*
X176545203Y-104979997D01*
X176733720Y-105105960D01*
X176894040Y-105266280D01*
X177020003Y-105454797D01*
X177106768Y-105664266D01*
X177151000Y-105886636D01*
X177151000Y-106113364D01*
X177106768Y-106335734D01*
X177020003Y-106545203D01*
X176894040Y-106733720D01*
X176733720Y-106894040D01*
X176545203Y-107020003D01*
X176335734Y-107106768D01*
X176224549Y-107128884D01*
X176113365Y-107151000D01*
X175886635Y-107151000D01*
X175775451Y-107128884D01*
X175664266Y-107106768D01*
X175454797Y-107020003D01*
X175266280Y-106894040D01*
X175105960Y-106733720D01*
X174979997Y-106545203D01*
X174893232Y-106335734D01*
X174849000Y-106113364D01*
X174849000Y-105886636D01*
X174893232Y-105664266D01*
X174979997Y-105454797D01*
X175105960Y-105266280D01*
X175266280Y-105105960D01*
X175454797Y-104979997D01*
X175664266Y-104893232D01*
X175775451Y-104871116D01*
X175886635Y-104849000D01*
X176113365Y-104849000D01*
X176224549Y-104871116D01*
X176224549Y-104871116D01*
G37*
G36*
X84224549Y-104871116D02*
G01*
X84335734Y-104893232D01*
X84545203Y-104979997D01*
X84733720Y-105105960D01*
X84894040Y-105266280D01*
X85020003Y-105454797D01*
X85106768Y-105664266D01*
X85151000Y-105886636D01*
X85151000Y-106113364D01*
X85106768Y-106335734D01*
X85020003Y-106545203D01*
X84894040Y-106733720D01*
X84733720Y-106894040D01*
X84545203Y-107020003D01*
X84335734Y-107106768D01*
X84224549Y-107128884D01*
X84113365Y-107151000D01*
X83886635Y-107151000D01*
X83775451Y-107128884D01*
X83664266Y-107106768D01*
X83454797Y-107020003D01*
X83266280Y-106894040D01*
X83105960Y-106733720D01*
X82979997Y-106545203D01*
X82893232Y-106335734D01*
X82849000Y-106113364D01*
X82849000Y-105886636D01*
X82893232Y-105664266D01*
X82979997Y-105454797D01*
X83105960Y-105266280D01*
X83266280Y-105105960D01*
X83454797Y-104979997D01*
X83664266Y-104893232D01*
X83775451Y-104871116D01*
X83886635Y-104849000D01*
X84113365Y-104849000D01*
X84224549Y-104871116D01*
X84224549Y-104871116D01*
G37*
G36*
X95306564Y-100189389D02*
G01*
X95497833Y-100268615D01*
X95497835Y-100268616D01*
X95669973Y-100383635D01*
X95816365Y-100530027D01*
X95931385Y-100702167D01*
X96010611Y-100893436D01*
X96051000Y-101096484D01*
X96051000Y-101303516D01*
X96010611Y-101506564D01*
X95931385Y-101697833D01*
X95931384Y-101697835D01*
X95816365Y-101869973D01*
X95669973Y-102016365D01*
X95497835Y-102131384D01*
X95497834Y-102131385D01*
X95497833Y-102131385D01*
X95306564Y-102210611D01*
X95103516Y-102251000D01*
X94896484Y-102251000D01*
X94693436Y-102210611D01*
X94502167Y-102131385D01*
X94502166Y-102131385D01*
X94502165Y-102131384D01*
X94330027Y-102016365D01*
X94183635Y-101869973D01*
X94068616Y-101697835D01*
X94068615Y-101697833D01*
X93989389Y-101506564D01*
X93949000Y-101303516D01*
X93949000Y-101096484D01*
X93989389Y-100893436D01*
X94068615Y-100702167D01*
X94183635Y-100530027D01*
X94330027Y-100383635D01*
X94502165Y-100268616D01*
X94502167Y-100268615D01*
X94693436Y-100189389D01*
X94896484Y-100149000D01*
X95103516Y-100149000D01*
X95306564Y-100189389D01*
X95306564Y-100189389D01*
G37*
G36*
X159151000Y-100151000D02*
G01*
X156849000Y-100151000D01*
X156849000Y-97849000D01*
X159151000Y-97849000D01*
X159151000Y-100151000D01*
X159151000Y-100151000D01*
G37*
G36*
X165789271Y-97860103D02*
G01*
X165845635Y-97865654D01*
X166062600Y-97931470D01*
X166062602Y-97931471D01*
X166262555Y-98038347D01*
X166437818Y-98182182D01*
X166581653Y-98357445D01*
X166688529Y-98557398D01*
X166688530Y-98557400D01*
X166700512Y-98596900D01*
X166754346Y-98774366D01*
X166776569Y-99000000D01*
X166754346Y-99225634D01*
X166688529Y-99442602D01*
X166581653Y-99642555D01*
X166437818Y-99817818D01*
X166262555Y-99961653D01*
X166062602Y-100068529D01*
X166062600Y-100068530D01*
X165845635Y-100134346D01*
X165789271Y-100139897D01*
X165676545Y-100151000D01*
X165563455Y-100151000D01*
X165450729Y-100139897D01*
X165394365Y-100134346D01*
X165177400Y-100068530D01*
X165177398Y-100068529D01*
X164977445Y-99961653D01*
X164802182Y-99817818D01*
X164658347Y-99642555D01*
X164551471Y-99442602D01*
X164485654Y-99225634D01*
X164463431Y-99000000D01*
X164485654Y-98774366D01*
X164539488Y-98596900D01*
X164551470Y-98557400D01*
X164551471Y-98557398D01*
X164658347Y-98357445D01*
X164802182Y-98182182D01*
X164977445Y-98038347D01*
X165177398Y-97931471D01*
X165177400Y-97931470D01*
X165394365Y-97865654D01*
X165450729Y-97860103D01*
X165563455Y-97849000D01*
X165676545Y-97849000D01*
X165789271Y-97860103D01*
X165789271Y-97860103D01*
G37*
G36*
X154998228Y-98181703D02*
G01*
X155153100Y-98245853D01*
X155292481Y-98338985D01*
X155411015Y-98457519D01*
X155504147Y-98596900D01*
X155568297Y-98751772D01*
X155601000Y-98916184D01*
X155601000Y-99083816D01*
X155568297Y-99248228D01*
X155504147Y-99403100D01*
X155411015Y-99542481D01*
X155292481Y-99661015D01*
X155153100Y-99754147D01*
X154998228Y-99818297D01*
X154833816Y-99851000D01*
X154666184Y-99851000D01*
X154501772Y-99818297D01*
X154346900Y-99754147D01*
X154207519Y-99661015D01*
X154088985Y-99542481D01*
X153995853Y-99403100D01*
X153931703Y-99248228D01*
X153899000Y-99083816D01*
X153899000Y-98916184D01*
X153931703Y-98751772D01*
X153995853Y-98596900D01*
X154088985Y-98457519D01*
X154207519Y-98338985D01*
X154346900Y-98245853D01*
X154501772Y-98181703D01*
X154666184Y-98149000D01*
X154833816Y-98149000D01*
X154998228Y-98181703D01*
X154998228Y-98181703D01*
G37*
G36*
X149998228Y-98181703D02*
G01*
X150153100Y-98245853D01*
X150292481Y-98338985D01*
X150411015Y-98457519D01*
X150504147Y-98596900D01*
X150568297Y-98751772D01*
X150601000Y-98916184D01*
X150601000Y-99083816D01*
X150568297Y-99248228D01*
X150504147Y-99403100D01*
X150411015Y-99542481D01*
X150292481Y-99661015D01*
X150153100Y-99754147D01*
X149998228Y-99818297D01*
X149833816Y-99851000D01*
X149666184Y-99851000D01*
X149501772Y-99818297D01*
X149346900Y-99754147D01*
X149207519Y-99661015D01*
X149088985Y-99542481D01*
X148995853Y-99403100D01*
X148931703Y-99248228D01*
X148899000Y-99083816D01*
X148899000Y-98916184D01*
X148931703Y-98751772D01*
X148995853Y-98596900D01*
X149088985Y-98457519D01*
X149207519Y-98338985D01*
X149346900Y-98245853D01*
X149501772Y-98181703D01*
X149666184Y-98149000D01*
X149833816Y-98149000D01*
X149998228Y-98181703D01*
X149998228Y-98181703D01*
G37*
G36*
X174601000Y-99601000D02*
G01*
X172899000Y-99601000D01*
X172899000Y-97899000D01*
X174601000Y-97899000D01*
X174601000Y-99601000D01*
X174601000Y-99601000D01*
G37*
G36*
X134128039Y-95492250D02*
G01*
X134317372Y-95570675D01*
X134451251Y-95626129D01*
X134742134Y-95820491D01*
X134989509Y-96067866D01*
X135183871Y-96358749D01*
X135183871Y-96358750D01*
X135317750Y-96681961D01*
X135386000Y-97025078D01*
X135386000Y-97374922D01*
X135317750Y-97718039D01*
X135242793Y-97899000D01*
X135183871Y-98041251D01*
X134989509Y-98332134D01*
X134742134Y-98579509D01*
X134451251Y-98773871D01*
X134317372Y-98829325D01*
X134128039Y-98907750D01*
X133784922Y-98976000D01*
X133435078Y-98976000D01*
X133091961Y-98907750D01*
X132902628Y-98829325D01*
X132768749Y-98773871D01*
X132477866Y-98579509D01*
X132230491Y-98332134D01*
X132036129Y-98041251D01*
X131977207Y-97899000D01*
X131902250Y-97718039D01*
X131834000Y-97374922D01*
X131834000Y-97025078D01*
X131902250Y-96681961D01*
X132036129Y-96358750D01*
X132036129Y-96358749D01*
X132230491Y-96067866D01*
X132477866Y-95820491D01*
X132768749Y-95626129D01*
X132902628Y-95570675D01*
X133091961Y-95492250D01*
X133435078Y-95424000D01*
X133784922Y-95424000D01*
X134128039Y-95492250D01*
X134128039Y-95492250D01*
G37*
G36*
X173998228Y-95431703D02*
G01*
X174153100Y-95495853D01*
X174292481Y-95588985D01*
X174411015Y-95707519D01*
X174504147Y-95846900D01*
X174568297Y-96001772D01*
X174601000Y-96166184D01*
X174601000Y-96333816D01*
X174568297Y-96498228D01*
X174504147Y-96653100D01*
X174411015Y-96792481D01*
X174292481Y-96911015D01*
X174153100Y-97004147D01*
X173998228Y-97068297D01*
X173833816Y-97101000D01*
X173666184Y-97101000D01*
X173501772Y-97068297D01*
X173346900Y-97004147D01*
X173207519Y-96911015D01*
X173088985Y-96792481D01*
X172995853Y-96653100D01*
X172931703Y-96498228D01*
X172899000Y-96333816D01*
X172899000Y-96166184D01*
X172931703Y-96001772D01*
X172995853Y-95846900D01*
X173088985Y-95707519D01*
X173207519Y-95588985D01*
X173346900Y-95495853D01*
X173501772Y-95431703D01*
X173666184Y-95399000D01*
X173833816Y-95399000D01*
X173998228Y-95431703D01*
X173998228Y-95431703D01*
G37*
G36*
X150416823Y-94281313D02*
G01*
X150577242Y-94329976D01*
X150709906Y-94400886D01*
X150725078Y-94408996D01*
X150854659Y-94515341D01*
X150961004Y-94644922D01*
X150961005Y-94644924D01*
X151040024Y-94792758D01*
X151088687Y-94953177D01*
X151105117Y-95120000D01*
X151088687Y-95286823D01*
X151040024Y-95447242D01*
X150969114Y-95579906D01*
X150961004Y-95595078D01*
X150854659Y-95724659D01*
X150725078Y-95831004D01*
X150725076Y-95831005D01*
X150577242Y-95910024D01*
X150416823Y-95958687D01*
X150291804Y-95971000D01*
X150208196Y-95971000D01*
X150083177Y-95958687D01*
X149922758Y-95910024D01*
X149774924Y-95831005D01*
X149774922Y-95831004D01*
X149645341Y-95724659D01*
X149538996Y-95595078D01*
X149530886Y-95579906D01*
X149459976Y-95447242D01*
X149411313Y-95286823D01*
X149394883Y-95120000D01*
X149411313Y-94953177D01*
X149459976Y-94792758D01*
X149538995Y-94644924D01*
X149538996Y-94644922D01*
X149645341Y-94515341D01*
X149774922Y-94408996D01*
X149790094Y-94400886D01*
X149922758Y-94329976D01*
X150083177Y-94281313D01*
X150208196Y-94269000D01*
X150291804Y-94269000D01*
X150416823Y-94281313D01*
X150416823Y-94281313D01*
G37*
G36*
X167233642Y-93479781D02*
G01*
X167379414Y-93540162D01*
X167379416Y-93540163D01*
X167510608Y-93627822D01*
X167622178Y-93739392D01*
X167676446Y-93820611D01*
X167709838Y-93870586D01*
X167770219Y-94016358D01*
X167801000Y-94171107D01*
X167801000Y-94328893D01*
X167770219Y-94483642D01*
X167709838Y-94629414D01*
X167709837Y-94629416D01*
X167622178Y-94760608D01*
X167510608Y-94872178D01*
X167379416Y-94959837D01*
X167379415Y-94959838D01*
X167379414Y-94959838D01*
X167233642Y-95020219D01*
X167078893Y-95051000D01*
X166921107Y-95051000D01*
X166766358Y-95020219D01*
X166620586Y-94959838D01*
X166620585Y-94959838D01*
X166620584Y-94959837D01*
X166489392Y-94872178D01*
X166377822Y-94760608D01*
X166290163Y-94629416D01*
X166290162Y-94629414D01*
X166229781Y-94483642D01*
X166199000Y-94328893D01*
X166199000Y-94171107D01*
X166229781Y-94016358D01*
X166290162Y-93870586D01*
X166323554Y-93820611D01*
X166377822Y-93739392D01*
X166489392Y-93627822D01*
X166620584Y-93540163D01*
X166620586Y-93540162D01*
X166766358Y-93479781D01*
X166921107Y-93449000D01*
X167078893Y-93449000D01*
X167233642Y-93479781D01*
X167233642Y-93479781D01*
G37*
G36*
X169233642Y-93479781D02*
G01*
X169379414Y-93540162D01*
X169379416Y-93540163D01*
X169510608Y-93627822D01*
X169622178Y-93739392D01*
X169676446Y-93820611D01*
X169709838Y-93870586D01*
X169770219Y-94016358D01*
X169801000Y-94171107D01*
X169801000Y-94328893D01*
X169770219Y-94483642D01*
X169709838Y-94629414D01*
X169709837Y-94629416D01*
X169622178Y-94760608D01*
X169510608Y-94872178D01*
X169379416Y-94959837D01*
X169379415Y-94959838D01*
X169379414Y-94959838D01*
X169233642Y-95020219D01*
X169078893Y-95051000D01*
X168921107Y-95051000D01*
X168766358Y-95020219D01*
X168620586Y-94959838D01*
X168620585Y-94959838D01*
X168620584Y-94959837D01*
X168489392Y-94872178D01*
X168377822Y-94760608D01*
X168290163Y-94629416D01*
X168290162Y-94629414D01*
X168229781Y-94483642D01*
X168199000Y-94328893D01*
X168199000Y-94171107D01*
X168229781Y-94016358D01*
X168290162Y-93870586D01*
X168323554Y-93820611D01*
X168377822Y-93739392D01*
X168489392Y-93627822D01*
X168620584Y-93540163D01*
X168620586Y-93540162D01*
X168766358Y-93479781D01*
X168921107Y-93449000D01*
X169078893Y-93449000D01*
X169233642Y-93479781D01*
X169233642Y-93479781D01*
G37*
G36*
X104158039Y-90792250D02*
G01*
X104299873Y-90851000D01*
X104481251Y-90926129D01*
X104772134Y-91120491D01*
X105019509Y-91367866D01*
X105213871Y-91658749D01*
X105264639Y-91781314D01*
X105347750Y-91981961D01*
X105416000Y-92325078D01*
X105416000Y-92674922D01*
X105347750Y-93018039D01*
X105317444Y-93091203D01*
X105213871Y-93341251D01*
X105019509Y-93632134D01*
X104772134Y-93879509D01*
X104481251Y-94073871D01*
X104347372Y-94129325D01*
X104158039Y-94207750D01*
X103814922Y-94276000D01*
X103465078Y-94276000D01*
X103121961Y-94207750D01*
X102932628Y-94129325D01*
X102798749Y-94073871D01*
X102507866Y-93879509D01*
X102260491Y-93632134D01*
X102066129Y-93341251D01*
X101962556Y-93091203D01*
X101932250Y-93018039D01*
X101864000Y-92674922D01*
X101864000Y-92325078D01*
X101932250Y-91981961D01*
X102015361Y-91781314D01*
X102066129Y-91658749D01*
X102260491Y-91367866D01*
X102507866Y-91120491D01*
X102798749Y-90926129D01*
X102980127Y-90851000D01*
X103121961Y-90792250D01*
X103465078Y-90724000D01*
X103814922Y-90724000D01*
X104158039Y-90792250D01*
X104158039Y-90792250D01*
G37*
G36*
X83270104Y-92109585D02*
G01*
X83438626Y-92179389D01*
X83590291Y-92280728D01*
X83719272Y-92409709D01*
X83820611Y-92561374D01*
X83890415Y-92729896D01*
X83926000Y-92908797D01*
X83926000Y-93091203D01*
X83890415Y-93270104D01*
X83820611Y-93438626D01*
X83719272Y-93590291D01*
X83590291Y-93719272D01*
X83438626Y-93820611D01*
X83270104Y-93890415D01*
X83091203Y-93926000D01*
X82908797Y-93926000D01*
X82729896Y-93890415D01*
X82561374Y-93820611D01*
X82409709Y-93719272D01*
X82280728Y-93590291D01*
X82179389Y-93438626D01*
X82109585Y-93270104D01*
X82074000Y-93091203D01*
X82074000Y-92908797D01*
X82109585Y-92729896D01*
X82179389Y-92561374D01*
X82280728Y-92409709D01*
X82409709Y-92280728D01*
X82561374Y-92179389D01*
X82729896Y-92109585D01*
X82908797Y-92074000D01*
X83091203Y-92074000D01*
X83270104Y-92109585D01*
X83270104Y-92109585D01*
G37*
G36*
X162786823Y-91781313D02*
G01*
X162947242Y-91829976D01*
X163079906Y-91900886D01*
X163095078Y-91908996D01*
X163224659Y-92015341D01*
X163331004Y-92144922D01*
X163331005Y-92144924D01*
X163410024Y-92292758D01*
X163458687Y-92453177D01*
X163475117Y-92620000D01*
X163458687Y-92786823D01*
X163410024Y-92947242D01*
X163339114Y-93079906D01*
X163331004Y-93095078D01*
X163224659Y-93224659D01*
X163095078Y-93331004D01*
X163095076Y-93331005D01*
X162947242Y-93410024D01*
X162786823Y-93458687D01*
X162661804Y-93471000D01*
X162578196Y-93471000D01*
X162453177Y-93458687D01*
X162292758Y-93410024D01*
X162144924Y-93331005D01*
X162144922Y-93331004D01*
X162015341Y-93224659D01*
X161908996Y-93095078D01*
X161900886Y-93079906D01*
X161829976Y-92947242D01*
X161781313Y-92786823D01*
X161764883Y-92620000D01*
X161781313Y-92453177D01*
X161829976Y-92292758D01*
X161908995Y-92144924D01*
X161908996Y-92144922D01*
X162015341Y-92015341D01*
X162144922Y-91908996D01*
X162160094Y-91900886D01*
X162292758Y-91829976D01*
X162453177Y-91781313D01*
X162578196Y-91769000D01*
X162661804Y-91769000D01*
X162786823Y-91781313D01*
X162786823Y-91781313D01*
G37*
G36*
X155166823Y-91781313D02*
G01*
X155327242Y-91829976D01*
X155459906Y-91900886D01*
X155475078Y-91908996D01*
X155604659Y-92015341D01*
X155711004Y-92144922D01*
X155711005Y-92144924D01*
X155790024Y-92292758D01*
X155838687Y-92453177D01*
X155855117Y-92620000D01*
X155838687Y-92786823D01*
X155790024Y-92947242D01*
X155719114Y-93079906D01*
X155711004Y-93095078D01*
X155604659Y-93224659D01*
X155475078Y-93331004D01*
X155475076Y-93331005D01*
X155327242Y-93410024D01*
X155166823Y-93458687D01*
X155041804Y-93471000D01*
X154958196Y-93471000D01*
X154833177Y-93458687D01*
X154672758Y-93410024D01*
X154524924Y-93331005D01*
X154524922Y-93331004D01*
X154395341Y-93224659D01*
X154288996Y-93095078D01*
X154280886Y-93079906D01*
X154209976Y-92947242D01*
X154161313Y-92786823D01*
X154144883Y-92620000D01*
X154161313Y-92453177D01*
X154209976Y-92292758D01*
X154288995Y-92144924D01*
X154288996Y-92144922D01*
X154395341Y-92015341D01*
X154524922Y-91908996D01*
X154540094Y-91900886D01*
X154672758Y-91829976D01*
X154833177Y-91781313D01*
X154958196Y-91769000D01*
X155041804Y-91769000D01*
X155166823Y-91781313D01*
X155166823Y-91781313D01*
G37*
G36*
X83233642Y-90229781D02*
G01*
X83379414Y-90290162D01*
X83379416Y-90290163D01*
X83510608Y-90377822D01*
X83622178Y-90489392D01*
X83709837Y-90620584D01*
X83709838Y-90620586D01*
X83770219Y-90766358D01*
X83801000Y-90921107D01*
X83801000Y-91078893D01*
X83770219Y-91233642D01*
X83714621Y-91367866D01*
X83709837Y-91379416D01*
X83622178Y-91510608D01*
X83510608Y-91622178D01*
X83379416Y-91709837D01*
X83379415Y-91709838D01*
X83379414Y-91709838D01*
X83233642Y-91770219D01*
X83078893Y-91801000D01*
X82921107Y-91801000D01*
X82766358Y-91770219D01*
X82620586Y-91709838D01*
X82620585Y-91709838D01*
X82620584Y-91709837D01*
X82489392Y-91622178D01*
X82377822Y-91510608D01*
X82290163Y-91379416D01*
X82285379Y-91367866D01*
X82229781Y-91233642D01*
X82199000Y-91078893D01*
X82199000Y-90921107D01*
X82229781Y-90766358D01*
X82290162Y-90620586D01*
X82290163Y-90620584D01*
X82377822Y-90489392D01*
X82489392Y-90377822D01*
X82620584Y-90290163D01*
X82620586Y-90290162D01*
X82766358Y-90229781D01*
X82921107Y-90199000D01*
X83078893Y-90199000D01*
X83233642Y-90229781D01*
X83233642Y-90229781D01*
G37*
G36*
X174851000Y-91601000D02*
G01*
X173149000Y-91601000D01*
X173149000Y-89899000D01*
X174851000Y-89899000D01*
X174851000Y-91601000D01*
X174851000Y-91601000D01*
G37*
G36*
X155166823Y-89241313D02*
G01*
X155327242Y-89289976D01*
X155418931Y-89338985D01*
X155475078Y-89368996D01*
X155604659Y-89475341D01*
X155711004Y-89604922D01*
X155711005Y-89604924D01*
X155790024Y-89752758D01*
X155790025Y-89752761D01*
X155795321Y-89770219D01*
X155838687Y-89913177D01*
X155855117Y-90080000D01*
X155838687Y-90246823D01*
X155838260Y-90248229D01*
X155791281Y-90403100D01*
X155790024Y-90407242D01*
X155746114Y-90489392D01*
X155711004Y-90555078D01*
X155604659Y-90684659D01*
X155475078Y-90791004D01*
X155475076Y-90791005D01*
X155327242Y-90870024D01*
X155166823Y-90918687D01*
X155041804Y-90931000D01*
X154958196Y-90931000D01*
X154833177Y-90918687D01*
X154672758Y-90870024D01*
X154524924Y-90791005D01*
X154524922Y-90791004D01*
X154395341Y-90684659D01*
X154288996Y-90555078D01*
X154253886Y-90489392D01*
X154209976Y-90407242D01*
X154208720Y-90403100D01*
X154161740Y-90248229D01*
X154161313Y-90246823D01*
X154144883Y-90080000D01*
X154161313Y-89913177D01*
X154204679Y-89770219D01*
X154209975Y-89752761D01*
X154209976Y-89752758D01*
X154288995Y-89604924D01*
X154288996Y-89604922D01*
X154395341Y-89475341D01*
X154524922Y-89368996D01*
X154581069Y-89338985D01*
X154672758Y-89289976D01*
X154833177Y-89241313D01*
X154958196Y-89229000D01*
X155041804Y-89229000D01*
X155166823Y-89241313D01*
X155166823Y-89241313D01*
G37*
G36*
X162786823Y-89241313D02*
G01*
X162947242Y-89289976D01*
X163038931Y-89338985D01*
X163095078Y-89368996D01*
X163224659Y-89475341D01*
X163331004Y-89604922D01*
X163331005Y-89604924D01*
X163410024Y-89752758D01*
X163410025Y-89752761D01*
X163415321Y-89770219D01*
X163458687Y-89913177D01*
X163475117Y-90080000D01*
X163458687Y-90246823D01*
X163458260Y-90248229D01*
X163411281Y-90403100D01*
X163410024Y-90407242D01*
X163366114Y-90489392D01*
X163331004Y-90555078D01*
X163224659Y-90684659D01*
X163095078Y-90791004D01*
X163095076Y-90791005D01*
X162947242Y-90870024D01*
X162786823Y-90918687D01*
X162661804Y-90931000D01*
X162578196Y-90931000D01*
X162453177Y-90918687D01*
X162292758Y-90870024D01*
X162144924Y-90791005D01*
X162144922Y-90791004D01*
X162015341Y-90684659D01*
X161908996Y-90555078D01*
X161873886Y-90489392D01*
X161829976Y-90407242D01*
X161828720Y-90403100D01*
X161781740Y-90248229D01*
X161781313Y-90246823D01*
X161764883Y-90080000D01*
X161781313Y-89913177D01*
X161824679Y-89770219D01*
X161829975Y-89752761D01*
X161829976Y-89752758D01*
X161908995Y-89604924D01*
X161908996Y-89604922D01*
X162015341Y-89475341D01*
X162144922Y-89368996D01*
X162201069Y-89338985D01*
X162292758Y-89289976D01*
X162453177Y-89241313D01*
X162578196Y-89229000D01*
X162661804Y-89229000D01*
X162786823Y-89241313D01*
X162786823Y-89241313D01*
G37*
G36*
X167248228Y-89181703D02*
G01*
X167403100Y-89245853D01*
X167542481Y-89338985D01*
X167661015Y-89457519D01*
X167754147Y-89596900D01*
X167818297Y-89751772D01*
X167851000Y-89916184D01*
X167851000Y-90083816D01*
X167818297Y-90248228D01*
X167754147Y-90403100D01*
X167661015Y-90542481D01*
X167542481Y-90661015D01*
X167403100Y-90754147D01*
X167248228Y-90818297D01*
X167083816Y-90851000D01*
X166916184Y-90851000D01*
X166751772Y-90818297D01*
X166596900Y-90754147D01*
X166457519Y-90661015D01*
X166338985Y-90542481D01*
X166245853Y-90403100D01*
X166181703Y-90248228D01*
X166149000Y-90083816D01*
X166149000Y-89916184D01*
X166181703Y-89751772D01*
X166245853Y-89596900D01*
X166338985Y-89457519D01*
X166457519Y-89338985D01*
X166596900Y-89245853D01*
X166751772Y-89181703D01*
X166916184Y-89149000D01*
X167083816Y-89149000D01*
X167248228Y-89181703D01*
X167248228Y-89181703D01*
G37*
G36*
X83233642Y-88229781D02*
G01*
X83379414Y-88290162D01*
X83379416Y-88290163D01*
X83510608Y-88377822D01*
X83622178Y-88489392D01*
X83709837Y-88620584D01*
X83709838Y-88620586D01*
X83770219Y-88766358D01*
X83801000Y-88921107D01*
X83801000Y-89078893D01*
X83770219Y-89233642D01*
X83726584Y-89338985D01*
X83709837Y-89379416D01*
X83622178Y-89510608D01*
X83510608Y-89622178D01*
X83379416Y-89709837D01*
X83379415Y-89709838D01*
X83379414Y-89709838D01*
X83233642Y-89770219D01*
X83078893Y-89801000D01*
X82921107Y-89801000D01*
X82766358Y-89770219D01*
X82620586Y-89709838D01*
X82620585Y-89709838D01*
X82620584Y-89709837D01*
X82489392Y-89622178D01*
X82377822Y-89510608D01*
X82290163Y-89379416D01*
X82273416Y-89338985D01*
X82229781Y-89233642D01*
X82199000Y-89078893D01*
X82199000Y-88921107D01*
X82229781Y-88766358D01*
X82290162Y-88620586D01*
X82290163Y-88620584D01*
X82377822Y-88489392D01*
X82489392Y-88377822D01*
X82620584Y-88290163D01*
X82620586Y-88290162D01*
X82766358Y-88229781D01*
X82921107Y-88199000D01*
X83078893Y-88199000D01*
X83233642Y-88229781D01*
X83233642Y-88229781D01*
G37*
G36*
X96051000Y-89551000D02*
G01*
X93949000Y-89551000D01*
X93949000Y-87449000D01*
X96051000Y-87449000D01*
X96051000Y-89551000D01*
X96051000Y-89551000D01*
G37*
G36*
X174248228Y-87431703D02*
G01*
X174403100Y-87495853D01*
X174542481Y-87588985D01*
X174661015Y-87707519D01*
X174754147Y-87846900D01*
X174818297Y-88001772D01*
X174851000Y-88166184D01*
X174851000Y-88333816D01*
X174818297Y-88498228D01*
X174754147Y-88653100D01*
X174661015Y-88792481D01*
X174542481Y-88911015D01*
X174403100Y-89004147D01*
X174248228Y-89068297D01*
X174083816Y-89101000D01*
X173916184Y-89101000D01*
X173751772Y-89068297D01*
X173596900Y-89004147D01*
X173457519Y-88911015D01*
X173338985Y-88792481D01*
X173245853Y-88653100D01*
X173181703Y-88498228D01*
X173149000Y-88333816D01*
X173149000Y-88166184D01*
X173181703Y-88001772D01*
X173245853Y-87846900D01*
X173338985Y-87707519D01*
X173457519Y-87588985D01*
X173596900Y-87495853D01*
X173751772Y-87431703D01*
X173916184Y-87399000D01*
X174083816Y-87399000D01*
X174248228Y-87431703D01*
X174248228Y-87431703D01*
G37*
G36*
X162786823Y-86701313D02*
G01*
X162917380Y-86740917D01*
X162933651Y-86745853D01*
X162947242Y-86749976D01*
X163079906Y-86820886D01*
X163095078Y-86828996D01*
X163224659Y-86935341D01*
X163331004Y-87064922D01*
X163331005Y-87064924D01*
X163410024Y-87212758D01*
X163458687Y-87373177D01*
X163475117Y-87540000D01*
X163458687Y-87706823D01*
X163410024Y-87867242D01*
X163390859Y-87903097D01*
X163331004Y-88015078D01*
X163224659Y-88144659D01*
X163095078Y-88251004D01*
X163095076Y-88251005D01*
X162947242Y-88330024D01*
X162786823Y-88378687D01*
X162661804Y-88391000D01*
X162578196Y-88391000D01*
X162453177Y-88378687D01*
X162292758Y-88330024D01*
X162144924Y-88251005D01*
X162144922Y-88251004D01*
X162015341Y-88144659D01*
X161908996Y-88015078D01*
X161849141Y-87903097D01*
X161829976Y-87867242D01*
X161781313Y-87706823D01*
X161764883Y-87540000D01*
X161781313Y-87373177D01*
X161829976Y-87212758D01*
X161908995Y-87064924D01*
X161908996Y-87064922D01*
X162015341Y-86935341D01*
X162144922Y-86828996D01*
X162160094Y-86820886D01*
X162292758Y-86749976D01*
X162306350Y-86745853D01*
X162322620Y-86740917D01*
X162453177Y-86701313D01*
X162578196Y-86689000D01*
X162661804Y-86689000D01*
X162786823Y-86701313D01*
X162786823Y-86701313D01*
G37*
G36*
X155166823Y-86701313D02*
G01*
X155297380Y-86740917D01*
X155313651Y-86745853D01*
X155327242Y-86749976D01*
X155459906Y-86820886D01*
X155475078Y-86828996D01*
X155604659Y-86935341D01*
X155711004Y-87064922D01*
X155711005Y-87064924D01*
X155790024Y-87212758D01*
X155838687Y-87373177D01*
X155855117Y-87540000D01*
X155838687Y-87706823D01*
X155790024Y-87867242D01*
X155770859Y-87903097D01*
X155711004Y-88015078D01*
X155604659Y-88144659D01*
X155475078Y-88251004D01*
X155475076Y-88251005D01*
X155327242Y-88330024D01*
X155166823Y-88378687D01*
X155041804Y-88391000D01*
X154958196Y-88391000D01*
X154833177Y-88378687D01*
X154672758Y-88330024D01*
X154524924Y-88251005D01*
X154524922Y-88251004D01*
X154395341Y-88144659D01*
X154288996Y-88015078D01*
X154229141Y-87903097D01*
X154209976Y-87867242D01*
X154161313Y-87706823D01*
X154144883Y-87540000D01*
X154161313Y-87373177D01*
X154209976Y-87212758D01*
X154288995Y-87064924D01*
X154288996Y-87064922D01*
X154395341Y-86935341D01*
X154524922Y-86828996D01*
X154540094Y-86820886D01*
X154672758Y-86749976D01*
X154686350Y-86745853D01*
X154702620Y-86740917D01*
X154833177Y-86701313D01*
X154958196Y-86689000D01*
X155041804Y-86689000D01*
X155166823Y-86701313D01*
X155166823Y-86701313D01*
G37*
G36*
X150498228Y-86681703D02*
G01*
X150653100Y-86745853D01*
X150792481Y-86838985D01*
X150911015Y-86957519D01*
X151004147Y-87096900D01*
X151068297Y-87251772D01*
X151101000Y-87416184D01*
X151101000Y-87583816D01*
X151068297Y-87748228D01*
X151004147Y-87903100D01*
X150911015Y-88042481D01*
X150792481Y-88161015D01*
X150653100Y-88254147D01*
X150498228Y-88318297D01*
X150333816Y-88351000D01*
X150166184Y-88351000D01*
X150001772Y-88318297D01*
X149846900Y-88254147D01*
X149707519Y-88161015D01*
X149588985Y-88042481D01*
X149495853Y-87903100D01*
X149431703Y-87748228D01*
X149399000Y-87583816D01*
X149399000Y-87416184D01*
X149431703Y-87251772D01*
X149495853Y-87096900D01*
X149588985Y-86957519D01*
X149707519Y-86838985D01*
X149846900Y-86745853D01*
X150001772Y-86681703D01*
X150166184Y-86649000D01*
X150333816Y-86649000D01*
X150498228Y-86681703D01*
X150498228Y-86681703D01*
G37*
G36*
X83233642Y-86229781D02*
G01*
X83379414Y-86290162D01*
X83379416Y-86290163D01*
X83510608Y-86377822D01*
X83622178Y-86489392D01*
X83709837Y-86620584D01*
X83709838Y-86620586D01*
X83770219Y-86766358D01*
X83801000Y-86921107D01*
X83801000Y-87078893D01*
X83770219Y-87233642D01*
X83762709Y-87251772D01*
X83709837Y-87379416D01*
X83622178Y-87510608D01*
X83510608Y-87622178D01*
X83379416Y-87709837D01*
X83379415Y-87709838D01*
X83379414Y-87709838D01*
X83233642Y-87770219D01*
X83078893Y-87801000D01*
X82921107Y-87801000D01*
X82766358Y-87770219D01*
X82620586Y-87709838D01*
X82620585Y-87709838D01*
X82620584Y-87709837D01*
X82489392Y-87622178D01*
X82377822Y-87510608D01*
X82290163Y-87379416D01*
X82237291Y-87251772D01*
X82229781Y-87233642D01*
X82199000Y-87078893D01*
X82199000Y-86921107D01*
X82229781Y-86766358D01*
X82290162Y-86620586D01*
X82290163Y-86620584D01*
X82377822Y-86489392D01*
X82489392Y-86377822D01*
X82620584Y-86290163D01*
X82620586Y-86290162D01*
X82766358Y-86229781D01*
X82921107Y-86199000D01*
X83078893Y-86199000D01*
X83233642Y-86229781D01*
X83233642Y-86229781D01*
G37*
G36*
X83270104Y-84109585D02*
G01*
X83438626Y-84179389D01*
X83590291Y-84280728D01*
X83719272Y-84409709D01*
X83820611Y-84561374D01*
X83890415Y-84729896D01*
X83926000Y-84908797D01*
X83926000Y-85091203D01*
X83890415Y-85270104D01*
X83820611Y-85438626D01*
X83719272Y-85590291D01*
X83590291Y-85719272D01*
X83438626Y-85820611D01*
X83270104Y-85890415D01*
X83091203Y-85926000D01*
X82908797Y-85926000D01*
X82729896Y-85890415D01*
X82561374Y-85820611D01*
X82409709Y-85719272D01*
X82280728Y-85590291D01*
X82179389Y-85438626D01*
X82109585Y-85270104D01*
X82074000Y-85091203D01*
X82074000Y-84908797D01*
X82109585Y-84729896D01*
X82179389Y-84561374D01*
X82280728Y-84409709D01*
X82409709Y-84280728D01*
X82561374Y-84179389D01*
X82729896Y-84109585D01*
X82908797Y-84074000D01*
X83091203Y-84074000D01*
X83270104Y-84109585D01*
X83270104Y-84109585D01*
G37*
G36*
X162786823Y-84161313D02*
G01*
X162947242Y-84209976D01*
X163014361Y-84245852D01*
X163095078Y-84288996D01*
X163224659Y-84395341D01*
X163331004Y-84524922D01*
X163331005Y-84524924D01*
X163410024Y-84672758D01*
X163458687Y-84833177D01*
X163475117Y-85000000D01*
X163458687Y-85166823D01*
X163410024Y-85327242D01*
X163369477Y-85403100D01*
X163331004Y-85475078D01*
X163224659Y-85604659D01*
X163095078Y-85711004D01*
X163095076Y-85711005D01*
X162947242Y-85790024D01*
X162786823Y-85838687D01*
X162661804Y-85851000D01*
X162578196Y-85851000D01*
X162453177Y-85838687D01*
X162292758Y-85790024D01*
X162144924Y-85711005D01*
X162144922Y-85711004D01*
X162015341Y-85604659D01*
X161908996Y-85475078D01*
X161870523Y-85403100D01*
X161829976Y-85327242D01*
X161781313Y-85166823D01*
X161764883Y-85000000D01*
X161781313Y-84833177D01*
X161829976Y-84672758D01*
X161908995Y-84524924D01*
X161908996Y-84524922D01*
X162015341Y-84395341D01*
X162144922Y-84288996D01*
X162225639Y-84245852D01*
X162292758Y-84209976D01*
X162453177Y-84161313D01*
X162578196Y-84149000D01*
X162661804Y-84149000D01*
X162786823Y-84161313D01*
X162786823Y-84161313D01*
G37*
G36*
X167248228Y-84181703D02*
G01*
X167403100Y-84245853D01*
X167542481Y-84338985D01*
X167661015Y-84457519D01*
X167754147Y-84596900D01*
X167818297Y-84751772D01*
X167851000Y-84916184D01*
X167851000Y-85083816D01*
X167818297Y-85248228D01*
X167754147Y-85403100D01*
X167661015Y-85542481D01*
X167542481Y-85661015D01*
X167403100Y-85754147D01*
X167248228Y-85818297D01*
X167083816Y-85851000D01*
X166916184Y-85851000D01*
X166751772Y-85818297D01*
X166596900Y-85754147D01*
X166457519Y-85661015D01*
X166338985Y-85542481D01*
X166245853Y-85403100D01*
X166181703Y-85248228D01*
X166149000Y-85083816D01*
X166149000Y-84916184D01*
X166181703Y-84751772D01*
X166245853Y-84596900D01*
X166338985Y-84457519D01*
X166457519Y-84338985D01*
X166596900Y-84245853D01*
X166751772Y-84181703D01*
X166916184Y-84149000D01*
X167083816Y-84149000D01*
X167248228Y-84181703D01*
X167248228Y-84181703D01*
G37*
G36*
X155851000Y-85851000D02*
G01*
X154149000Y-85851000D01*
X154149000Y-84149000D01*
X155851000Y-84149000D01*
X155851000Y-85851000D01*
X155851000Y-85851000D01*
G37*
G36*
X165166823Y-78781313D02*
G01*
X165327242Y-78829976D01*
X165459906Y-78900886D01*
X165475078Y-78908996D01*
X165604659Y-79015341D01*
X165711004Y-79144922D01*
X165711005Y-79144924D01*
X165790024Y-79292758D01*
X165838687Y-79453177D01*
X165855117Y-79620000D01*
X165838687Y-79786823D01*
X165790024Y-79947242D01*
X165719114Y-80079906D01*
X165711004Y-80095078D01*
X165604659Y-80224659D01*
X165475078Y-80331004D01*
X165475076Y-80331005D01*
X165327242Y-80410024D01*
X165166823Y-80458687D01*
X165041804Y-80471000D01*
X164958196Y-80471000D01*
X164833177Y-80458687D01*
X164672758Y-80410024D01*
X164524924Y-80331005D01*
X164524922Y-80331004D01*
X164395341Y-80224659D01*
X164288996Y-80095078D01*
X164280886Y-80079906D01*
X164209976Y-79947242D01*
X164161313Y-79786823D01*
X164144883Y-79620000D01*
X164161313Y-79453177D01*
X164209976Y-79292758D01*
X164288995Y-79144924D01*
X164288996Y-79144922D01*
X164395341Y-79015341D01*
X164524922Y-78908996D01*
X164540094Y-78900886D01*
X164672758Y-78829976D01*
X164833177Y-78781313D01*
X164958196Y-78769000D01*
X165041804Y-78769000D01*
X165166823Y-78781313D01*
X165166823Y-78781313D01*
G37*
G36*
X175248228Y-78181703D02*
G01*
X175403100Y-78245853D01*
X175542481Y-78338985D01*
X175661015Y-78457519D01*
X175754147Y-78596900D01*
X175818297Y-78751772D01*
X175851000Y-78916184D01*
X175851000Y-79083816D01*
X175818297Y-79248228D01*
X175754147Y-79403100D01*
X175661015Y-79542481D01*
X175542481Y-79661015D01*
X175403100Y-79754147D01*
X175248228Y-79818297D01*
X175083816Y-79851000D01*
X174916184Y-79851000D01*
X174751772Y-79818297D01*
X174596900Y-79754147D01*
X174457519Y-79661015D01*
X174338985Y-79542481D01*
X174245853Y-79403100D01*
X174181703Y-79248228D01*
X174149000Y-79083816D01*
X174149000Y-78916184D01*
X174181703Y-78751772D01*
X174245853Y-78596900D01*
X174338985Y-78457519D01*
X174457519Y-78338985D01*
X174596900Y-78245853D01*
X174751772Y-78181703D01*
X174916184Y-78149000D01*
X175083816Y-78149000D01*
X175248228Y-78181703D01*
X175248228Y-78181703D01*
G37*
G36*
X98248228Y-78181703D02*
G01*
X98403100Y-78245853D01*
X98542481Y-78338985D01*
X98661015Y-78457519D01*
X98754147Y-78596900D01*
X98818297Y-78751772D01*
X98851000Y-78916184D01*
X98851000Y-79083816D01*
X98818297Y-79248228D01*
X98754147Y-79403100D01*
X98661015Y-79542481D01*
X98542481Y-79661015D01*
X98403100Y-79754147D01*
X98248228Y-79818297D01*
X98083816Y-79851000D01*
X97916184Y-79851000D01*
X97751772Y-79818297D01*
X97596900Y-79754147D01*
X97457519Y-79661015D01*
X97338985Y-79542481D01*
X97245853Y-79403100D01*
X97181703Y-79248228D01*
X97149000Y-79083816D01*
X97149000Y-78916184D01*
X97181703Y-78751772D01*
X97245853Y-78596900D01*
X97338985Y-78457519D01*
X97457519Y-78338985D01*
X97596900Y-78245853D01*
X97751772Y-78181703D01*
X97916184Y-78149000D01*
X98083816Y-78149000D01*
X98248228Y-78181703D01*
X98248228Y-78181703D01*
G37*
G36*
X170248228Y-78181703D02*
G01*
X170403100Y-78245853D01*
X170542481Y-78338985D01*
X170661015Y-78457519D01*
X170754147Y-78596900D01*
X170818297Y-78751772D01*
X170851000Y-78916184D01*
X170851000Y-79083816D01*
X170818297Y-79248228D01*
X170754147Y-79403100D01*
X170661015Y-79542481D01*
X170542481Y-79661015D01*
X170403100Y-79754147D01*
X170248228Y-79818297D01*
X170083816Y-79851000D01*
X169916184Y-79851000D01*
X169751772Y-79818297D01*
X169596900Y-79754147D01*
X169457519Y-79661015D01*
X169338985Y-79542481D01*
X169245853Y-79403100D01*
X169181703Y-79248228D01*
X169149000Y-79083816D01*
X169149000Y-78916184D01*
X169181703Y-78751772D01*
X169245853Y-78596900D01*
X169338985Y-78457519D01*
X169457519Y-78338985D01*
X169596900Y-78245853D01*
X169751772Y-78181703D01*
X169916184Y-78149000D01*
X170083816Y-78149000D01*
X170248228Y-78181703D01*
X170248228Y-78181703D01*
G37*
G36*
X143626823Y-76781313D02*
G01*
X143787242Y-76829976D01*
X143919906Y-76900886D01*
X143935078Y-76908996D01*
X144064659Y-77015341D01*
X144171004Y-77144922D01*
X144171005Y-77144924D01*
X144250024Y-77292758D01*
X144298687Y-77453177D01*
X144315117Y-77620000D01*
X144298687Y-77786823D01*
X144250024Y-77947242D01*
X144194564Y-78051000D01*
X144171004Y-78095078D01*
X144064659Y-78224659D01*
X143935078Y-78331004D01*
X143935076Y-78331005D01*
X143787242Y-78410024D01*
X143626823Y-78458687D01*
X143501804Y-78471000D01*
X143418196Y-78471000D01*
X143293177Y-78458687D01*
X143132758Y-78410024D01*
X142984924Y-78331005D01*
X142984922Y-78331004D01*
X142855341Y-78224659D01*
X142748996Y-78095078D01*
X142725436Y-78051000D01*
X142669976Y-77947242D01*
X142621313Y-77786823D01*
X142604883Y-77620000D01*
X142621313Y-77453177D01*
X142669976Y-77292758D01*
X142748995Y-77144924D01*
X142748996Y-77144922D01*
X142855341Y-77015341D01*
X142984922Y-76908996D01*
X143000094Y-76900886D01*
X143132758Y-76829976D01*
X143293177Y-76781313D01*
X143418196Y-76769000D01*
X143501804Y-76769000D01*
X143626823Y-76781313D01*
X143626823Y-76781313D01*
G37*
G36*
X130926823Y-76781313D02*
G01*
X131087242Y-76829976D01*
X131219906Y-76900886D01*
X131235078Y-76908996D01*
X131364659Y-77015341D01*
X131471004Y-77144922D01*
X131471005Y-77144924D01*
X131550024Y-77292758D01*
X131598687Y-77453177D01*
X131615117Y-77620000D01*
X131598687Y-77786823D01*
X131550024Y-77947242D01*
X131494564Y-78051000D01*
X131471004Y-78095078D01*
X131364659Y-78224659D01*
X131235078Y-78331004D01*
X131235076Y-78331005D01*
X131087242Y-78410024D01*
X130926823Y-78458687D01*
X130801804Y-78471000D01*
X130718196Y-78471000D01*
X130593177Y-78458687D01*
X130432758Y-78410024D01*
X130284924Y-78331005D01*
X130284922Y-78331004D01*
X130155341Y-78224659D01*
X130048996Y-78095078D01*
X130025436Y-78051000D01*
X129969976Y-77947242D01*
X129921313Y-77786823D01*
X129904883Y-77620000D01*
X129921313Y-77453177D01*
X129969976Y-77292758D01*
X130048995Y-77144924D01*
X130048996Y-77144922D01*
X130155341Y-77015341D01*
X130284922Y-76908996D01*
X130300094Y-76900886D01*
X130432758Y-76829976D01*
X130593177Y-76781313D01*
X130718196Y-76769000D01*
X130801804Y-76769000D01*
X130926823Y-76781313D01*
X130926823Y-76781313D01*
G37*
G36*
X133466823Y-76781313D02*
G01*
X133627242Y-76829976D01*
X133759906Y-76900886D01*
X133775078Y-76908996D01*
X133904659Y-77015341D01*
X134011004Y-77144922D01*
X134011005Y-77144924D01*
X134090024Y-77292758D01*
X134138687Y-77453177D01*
X134155117Y-77620000D01*
X134138687Y-77786823D01*
X134090024Y-77947242D01*
X134034564Y-78051000D01*
X134011004Y-78095078D01*
X133904659Y-78224659D01*
X133775078Y-78331004D01*
X133775076Y-78331005D01*
X133627242Y-78410024D01*
X133466823Y-78458687D01*
X133341804Y-78471000D01*
X133258196Y-78471000D01*
X133133177Y-78458687D01*
X132972758Y-78410024D01*
X132824924Y-78331005D01*
X132824922Y-78331004D01*
X132695341Y-78224659D01*
X132588996Y-78095078D01*
X132565436Y-78051000D01*
X132509976Y-77947242D01*
X132461313Y-77786823D01*
X132444883Y-77620000D01*
X132461313Y-77453177D01*
X132509976Y-77292758D01*
X132588995Y-77144924D01*
X132588996Y-77144922D01*
X132695341Y-77015341D01*
X132824922Y-76908996D01*
X132840094Y-76900886D01*
X132972758Y-76829976D01*
X133133177Y-76781313D01*
X133258196Y-76769000D01*
X133341804Y-76769000D01*
X133466823Y-76781313D01*
X133466823Y-76781313D01*
G37*
G36*
X128386823Y-76781313D02*
G01*
X128547242Y-76829976D01*
X128679906Y-76900886D01*
X128695078Y-76908996D01*
X128824659Y-77015341D01*
X128931004Y-77144922D01*
X128931005Y-77144924D01*
X129010024Y-77292758D01*
X129058687Y-77453177D01*
X129075117Y-77620000D01*
X129058687Y-77786823D01*
X129010024Y-77947242D01*
X128954564Y-78051000D01*
X128931004Y-78095078D01*
X128824659Y-78224659D01*
X128695078Y-78331004D01*
X128695076Y-78331005D01*
X128547242Y-78410024D01*
X128386823Y-78458687D01*
X128261804Y-78471000D01*
X128178196Y-78471000D01*
X128053177Y-78458687D01*
X127892758Y-78410024D01*
X127744924Y-78331005D01*
X127744922Y-78331004D01*
X127615341Y-78224659D01*
X127508996Y-78095078D01*
X127485436Y-78051000D01*
X127429976Y-77947242D01*
X127381313Y-77786823D01*
X127364883Y-77620000D01*
X127381313Y-77453177D01*
X127429976Y-77292758D01*
X127508995Y-77144924D01*
X127508996Y-77144922D01*
X127615341Y-77015341D01*
X127744922Y-76908996D01*
X127760094Y-76900886D01*
X127892758Y-76829976D01*
X128053177Y-76781313D01*
X128178196Y-76769000D01*
X128261804Y-76769000D01*
X128386823Y-76781313D01*
X128386823Y-76781313D01*
G37*
G36*
X138546823Y-76781313D02*
G01*
X138707242Y-76829976D01*
X138839906Y-76900886D01*
X138855078Y-76908996D01*
X138984659Y-77015341D01*
X139091004Y-77144922D01*
X139091005Y-77144924D01*
X139170024Y-77292758D01*
X139218687Y-77453177D01*
X139235117Y-77620000D01*
X139218687Y-77786823D01*
X139170024Y-77947242D01*
X139114564Y-78051000D01*
X139091004Y-78095078D01*
X138984659Y-78224659D01*
X138855078Y-78331004D01*
X138855076Y-78331005D01*
X138707242Y-78410024D01*
X138546823Y-78458687D01*
X138421804Y-78471000D01*
X138338196Y-78471000D01*
X138213177Y-78458687D01*
X138052758Y-78410024D01*
X137904924Y-78331005D01*
X137904922Y-78331004D01*
X137775341Y-78224659D01*
X137668996Y-78095078D01*
X137645436Y-78051000D01*
X137589976Y-77947242D01*
X137541313Y-77786823D01*
X137524883Y-77620000D01*
X137541313Y-77453177D01*
X137589976Y-77292758D01*
X137668995Y-77144924D01*
X137668996Y-77144922D01*
X137775341Y-77015341D01*
X137904922Y-76908996D01*
X137920094Y-76900886D01*
X138052758Y-76829976D01*
X138213177Y-76781313D01*
X138338196Y-76769000D01*
X138421804Y-76769000D01*
X138546823Y-76781313D01*
X138546823Y-76781313D01*
G37*
G36*
X141086823Y-76781313D02*
G01*
X141247242Y-76829976D01*
X141379906Y-76900886D01*
X141395078Y-76908996D01*
X141524659Y-77015341D01*
X141631004Y-77144922D01*
X141631005Y-77144924D01*
X141710024Y-77292758D01*
X141758687Y-77453177D01*
X141775117Y-77620000D01*
X141758687Y-77786823D01*
X141710024Y-77947242D01*
X141654564Y-78051000D01*
X141631004Y-78095078D01*
X141524659Y-78224659D01*
X141395078Y-78331004D01*
X141395076Y-78331005D01*
X141247242Y-78410024D01*
X141086823Y-78458687D01*
X140961804Y-78471000D01*
X140878196Y-78471000D01*
X140753177Y-78458687D01*
X140592758Y-78410024D01*
X140444924Y-78331005D01*
X140444922Y-78331004D01*
X140315341Y-78224659D01*
X140208996Y-78095078D01*
X140185436Y-78051000D01*
X140129976Y-77947242D01*
X140081313Y-77786823D01*
X140064883Y-77620000D01*
X140081313Y-77453177D01*
X140129976Y-77292758D01*
X140208995Y-77144924D01*
X140208996Y-77144922D01*
X140315341Y-77015341D01*
X140444922Y-76908996D01*
X140460094Y-76900886D01*
X140592758Y-76829976D01*
X140753177Y-76781313D01*
X140878196Y-76769000D01*
X140961804Y-76769000D01*
X141086823Y-76781313D01*
X141086823Y-76781313D01*
G37*
G36*
X125846823Y-76781313D02*
G01*
X126007242Y-76829976D01*
X126139906Y-76900886D01*
X126155078Y-76908996D01*
X126284659Y-77015341D01*
X126391004Y-77144922D01*
X126391005Y-77144924D01*
X126470024Y-77292758D01*
X126518687Y-77453177D01*
X126535117Y-77620000D01*
X126518687Y-77786823D01*
X126470024Y-77947242D01*
X126414564Y-78051000D01*
X126391004Y-78095078D01*
X126284659Y-78224659D01*
X126155078Y-78331004D01*
X126155076Y-78331005D01*
X126007242Y-78410024D01*
X125846823Y-78458687D01*
X125721804Y-78471000D01*
X125638196Y-78471000D01*
X125513177Y-78458687D01*
X125352758Y-78410024D01*
X125204924Y-78331005D01*
X125204922Y-78331004D01*
X125075341Y-78224659D01*
X124968996Y-78095078D01*
X124945436Y-78051000D01*
X124889976Y-77947242D01*
X124841313Y-77786823D01*
X124824883Y-77620000D01*
X124841313Y-77453177D01*
X124889976Y-77292758D01*
X124968995Y-77144924D01*
X124968996Y-77144922D01*
X125075341Y-77015341D01*
X125204922Y-76908996D01*
X125220094Y-76900886D01*
X125352758Y-76829976D01*
X125513177Y-76781313D01*
X125638196Y-76769000D01*
X125721804Y-76769000D01*
X125846823Y-76781313D01*
X125846823Y-76781313D01*
G37*
G36*
X146166823Y-76781313D02*
G01*
X146327242Y-76829976D01*
X146459906Y-76900886D01*
X146475078Y-76908996D01*
X146604659Y-77015341D01*
X146711004Y-77144922D01*
X146711005Y-77144924D01*
X146790024Y-77292758D01*
X146838687Y-77453177D01*
X146855117Y-77620000D01*
X146838687Y-77786823D01*
X146790024Y-77947242D01*
X146734564Y-78051000D01*
X146711004Y-78095078D01*
X146604659Y-78224659D01*
X146475078Y-78331004D01*
X146475076Y-78331005D01*
X146327242Y-78410024D01*
X146166823Y-78458687D01*
X146041804Y-78471000D01*
X145958196Y-78471000D01*
X145833177Y-78458687D01*
X145672758Y-78410024D01*
X145524924Y-78331005D01*
X145524922Y-78331004D01*
X145395341Y-78224659D01*
X145288996Y-78095078D01*
X145265436Y-78051000D01*
X145209976Y-77947242D01*
X145161313Y-77786823D01*
X145144883Y-77620000D01*
X145161313Y-77453177D01*
X145209976Y-77292758D01*
X145288995Y-77144924D01*
X145288996Y-77144922D01*
X145395341Y-77015341D01*
X145524922Y-76908996D01*
X145540094Y-76900886D01*
X145672758Y-76829976D01*
X145833177Y-76781313D01*
X145958196Y-76769000D01*
X146041804Y-76769000D01*
X146166823Y-76781313D01*
X146166823Y-76781313D01*
G37*
G36*
X123306823Y-76781313D02*
G01*
X123467242Y-76829976D01*
X123599906Y-76900886D01*
X123615078Y-76908996D01*
X123744659Y-77015341D01*
X123851004Y-77144922D01*
X123851005Y-77144924D01*
X123930024Y-77292758D01*
X123978687Y-77453177D01*
X123995117Y-77620000D01*
X123978687Y-77786823D01*
X123930024Y-77947242D01*
X123874564Y-78051000D01*
X123851004Y-78095078D01*
X123744659Y-78224659D01*
X123615078Y-78331004D01*
X123615076Y-78331005D01*
X123467242Y-78410024D01*
X123306823Y-78458687D01*
X123181804Y-78471000D01*
X123098196Y-78471000D01*
X122973177Y-78458687D01*
X122812758Y-78410024D01*
X122664924Y-78331005D01*
X122664922Y-78331004D01*
X122535341Y-78224659D01*
X122428996Y-78095078D01*
X122405436Y-78051000D01*
X122349976Y-77947242D01*
X122301313Y-77786823D01*
X122284883Y-77620000D01*
X122301313Y-77453177D01*
X122349976Y-77292758D01*
X122428995Y-77144924D01*
X122428996Y-77144922D01*
X122535341Y-77015341D01*
X122664922Y-76908996D01*
X122680094Y-76900886D01*
X122812758Y-76829976D01*
X122973177Y-76781313D01*
X123098196Y-76769000D01*
X123181804Y-76769000D01*
X123306823Y-76781313D01*
X123306823Y-76781313D01*
G37*
G36*
X118226823Y-76781313D02*
G01*
X118387242Y-76829976D01*
X118519906Y-76900886D01*
X118535078Y-76908996D01*
X118664659Y-77015341D01*
X118771004Y-77144922D01*
X118771005Y-77144924D01*
X118850024Y-77292758D01*
X118898687Y-77453177D01*
X118915117Y-77620000D01*
X118898687Y-77786823D01*
X118850024Y-77947242D01*
X118794564Y-78051000D01*
X118771004Y-78095078D01*
X118664659Y-78224659D01*
X118535078Y-78331004D01*
X118535076Y-78331005D01*
X118387242Y-78410024D01*
X118226823Y-78458687D01*
X118101804Y-78471000D01*
X118018196Y-78471000D01*
X117893177Y-78458687D01*
X117732758Y-78410024D01*
X117584924Y-78331005D01*
X117584922Y-78331004D01*
X117455341Y-78224659D01*
X117348996Y-78095078D01*
X117325436Y-78051000D01*
X117269976Y-77947242D01*
X117221313Y-77786823D01*
X117204883Y-77620000D01*
X117221313Y-77453177D01*
X117269976Y-77292758D01*
X117348995Y-77144924D01*
X117348996Y-77144922D01*
X117455341Y-77015341D01*
X117584922Y-76908996D01*
X117600094Y-76900886D01*
X117732758Y-76829976D01*
X117893177Y-76781313D01*
X118018196Y-76769000D01*
X118101804Y-76769000D01*
X118226823Y-76781313D01*
X118226823Y-76781313D01*
G37*
G36*
X115686823Y-76781313D02*
G01*
X115847242Y-76829976D01*
X115979906Y-76900886D01*
X115995078Y-76908996D01*
X116124659Y-77015341D01*
X116231004Y-77144922D01*
X116231005Y-77144924D01*
X116310024Y-77292758D01*
X116358687Y-77453177D01*
X116375117Y-77620000D01*
X116358687Y-77786823D01*
X116310024Y-77947242D01*
X116254564Y-78051000D01*
X116231004Y-78095078D01*
X116124659Y-78224659D01*
X115995078Y-78331004D01*
X115995076Y-78331005D01*
X115847242Y-78410024D01*
X115686823Y-78458687D01*
X115561804Y-78471000D01*
X115478196Y-78471000D01*
X115353177Y-78458687D01*
X115192758Y-78410024D01*
X115044924Y-78331005D01*
X115044922Y-78331004D01*
X114915341Y-78224659D01*
X114808996Y-78095078D01*
X114785436Y-78051000D01*
X114729976Y-77947242D01*
X114681313Y-77786823D01*
X114664883Y-77620000D01*
X114681313Y-77453177D01*
X114729976Y-77292758D01*
X114808995Y-77144924D01*
X114808996Y-77144922D01*
X114915341Y-77015341D01*
X115044922Y-76908996D01*
X115060094Y-76900886D01*
X115192758Y-76829976D01*
X115353177Y-76781313D01*
X115478196Y-76769000D01*
X115561804Y-76769000D01*
X115686823Y-76781313D01*
X115686823Y-76781313D01*
G37*
G36*
X113146823Y-76781313D02*
G01*
X113307242Y-76829976D01*
X113439906Y-76900886D01*
X113455078Y-76908996D01*
X113584659Y-77015341D01*
X113691004Y-77144922D01*
X113691005Y-77144924D01*
X113770024Y-77292758D01*
X113818687Y-77453177D01*
X113835117Y-77620000D01*
X113818687Y-77786823D01*
X113770024Y-77947242D01*
X113714564Y-78051000D01*
X113691004Y-78095078D01*
X113584659Y-78224659D01*
X113455078Y-78331004D01*
X113455076Y-78331005D01*
X113307242Y-78410024D01*
X113146823Y-78458687D01*
X113021804Y-78471000D01*
X112938196Y-78471000D01*
X112813177Y-78458687D01*
X112652758Y-78410024D01*
X112504924Y-78331005D01*
X112504922Y-78331004D01*
X112375341Y-78224659D01*
X112268996Y-78095078D01*
X112245436Y-78051000D01*
X112189976Y-77947242D01*
X112141313Y-77786823D01*
X112124883Y-77620000D01*
X112141313Y-77453177D01*
X112189976Y-77292758D01*
X112268995Y-77144924D01*
X112268996Y-77144922D01*
X112375341Y-77015341D01*
X112504922Y-76908996D01*
X112520094Y-76900886D01*
X112652758Y-76829976D01*
X112813177Y-76781313D01*
X112938196Y-76769000D01*
X113021804Y-76769000D01*
X113146823Y-76781313D01*
X113146823Y-76781313D01*
G37*
G36*
X120766823Y-76781313D02*
G01*
X120927242Y-76829976D01*
X121059906Y-76900886D01*
X121075078Y-76908996D01*
X121204659Y-77015341D01*
X121311004Y-77144922D01*
X121311005Y-77144924D01*
X121390024Y-77292758D01*
X121438687Y-77453177D01*
X121455117Y-77620000D01*
X121438687Y-77786823D01*
X121390024Y-77947242D01*
X121334564Y-78051000D01*
X121311004Y-78095078D01*
X121204659Y-78224659D01*
X121075078Y-78331004D01*
X121075076Y-78331005D01*
X120927242Y-78410024D01*
X120766823Y-78458687D01*
X120641804Y-78471000D01*
X120558196Y-78471000D01*
X120433177Y-78458687D01*
X120272758Y-78410024D01*
X120124924Y-78331005D01*
X120124922Y-78331004D01*
X119995341Y-78224659D01*
X119888996Y-78095078D01*
X119865436Y-78051000D01*
X119809976Y-77947242D01*
X119761313Y-77786823D01*
X119744883Y-77620000D01*
X119761313Y-77453177D01*
X119809976Y-77292758D01*
X119888995Y-77144924D01*
X119888996Y-77144922D01*
X119995341Y-77015341D01*
X120124922Y-76908996D01*
X120140094Y-76900886D01*
X120272758Y-76829976D01*
X120433177Y-76781313D01*
X120558196Y-76769000D01*
X120641804Y-76769000D01*
X120766823Y-76781313D01*
X120766823Y-76781313D01*
G37*
G36*
X136006823Y-76781313D02*
G01*
X136167242Y-76829976D01*
X136299906Y-76900886D01*
X136315078Y-76908996D01*
X136444659Y-77015341D01*
X136551004Y-77144922D01*
X136551005Y-77144924D01*
X136630024Y-77292758D01*
X136678687Y-77453177D01*
X136695117Y-77620000D01*
X136678687Y-77786823D01*
X136630024Y-77947242D01*
X136574564Y-78051000D01*
X136551004Y-78095078D01*
X136444659Y-78224659D01*
X136315078Y-78331004D01*
X136315076Y-78331005D01*
X136167242Y-78410024D01*
X136006823Y-78458687D01*
X135881804Y-78471000D01*
X135798196Y-78471000D01*
X135673177Y-78458687D01*
X135512758Y-78410024D01*
X135364924Y-78331005D01*
X135364922Y-78331004D01*
X135235341Y-78224659D01*
X135128996Y-78095078D01*
X135105436Y-78051000D01*
X135049976Y-77947242D01*
X135001313Y-77786823D01*
X134984883Y-77620000D01*
X135001313Y-77453177D01*
X135049976Y-77292758D01*
X135128995Y-77144924D01*
X135128996Y-77144922D01*
X135235341Y-77015341D01*
X135364922Y-76908996D01*
X135380094Y-76900886D01*
X135512758Y-76829976D01*
X135673177Y-76781313D01*
X135798196Y-76769000D01*
X135881804Y-76769000D01*
X136006823Y-76781313D01*
X136006823Y-76781313D01*
G37*
G36*
X90051000Y-78051000D02*
G01*
X87949000Y-78051000D01*
X87949000Y-75949000D01*
X90051000Y-75949000D01*
X90051000Y-78051000D01*
X90051000Y-78051000D01*
G37*
G36*
X170248228Y-72181703D02*
G01*
X170403100Y-72245853D01*
X170542481Y-72338985D01*
X170661015Y-72457519D01*
X170754147Y-72596900D01*
X170818297Y-72751772D01*
X170851000Y-72916184D01*
X170851000Y-73083816D01*
X170818297Y-73248228D01*
X170754147Y-73403100D01*
X170661015Y-73542481D01*
X170542481Y-73661015D01*
X170403100Y-73754147D01*
X170248228Y-73818297D01*
X170083816Y-73851000D01*
X169916184Y-73851000D01*
X169751772Y-73818297D01*
X169596900Y-73754147D01*
X169457519Y-73661015D01*
X169338985Y-73542481D01*
X169245853Y-73403100D01*
X169181703Y-73248228D01*
X169149000Y-73083816D01*
X169149000Y-72916184D01*
X169181703Y-72751772D01*
X169245853Y-72596900D01*
X169338985Y-72457519D01*
X169457519Y-72338985D01*
X169596900Y-72245853D01*
X169751772Y-72181703D01*
X169916184Y-72149000D01*
X170083816Y-72149000D01*
X170248228Y-72181703D01*
X170248228Y-72181703D01*
G37*
G36*
X175248228Y-72181703D02*
G01*
X175403100Y-72245853D01*
X175542481Y-72338985D01*
X175661015Y-72457519D01*
X175754147Y-72596900D01*
X175818297Y-72751772D01*
X175851000Y-72916184D01*
X175851000Y-73083816D01*
X175818297Y-73248228D01*
X175754147Y-73403100D01*
X175661015Y-73542481D01*
X175542481Y-73661015D01*
X175403100Y-73754147D01*
X175248228Y-73818297D01*
X175083816Y-73851000D01*
X174916184Y-73851000D01*
X174751772Y-73818297D01*
X174596900Y-73754147D01*
X174457519Y-73661015D01*
X174338985Y-73542481D01*
X174245853Y-73403100D01*
X174181703Y-73248228D01*
X174149000Y-73083816D01*
X174149000Y-72916184D01*
X174181703Y-72751772D01*
X174245853Y-72596900D01*
X174338985Y-72457519D01*
X174457519Y-72338985D01*
X174596900Y-72245853D01*
X174751772Y-72181703D01*
X174916184Y-72149000D01*
X175083816Y-72149000D01*
X175248228Y-72181703D01*
X175248228Y-72181703D01*
G37*
G36*
X158113642Y-72229781D02*
G01*
X158259414Y-72290162D01*
X158259416Y-72290163D01*
X158390608Y-72377822D01*
X158502178Y-72489392D01*
X158574012Y-72596900D01*
X158589838Y-72620586D01*
X158650219Y-72766358D01*
X158681000Y-72921107D01*
X158681000Y-73078893D01*
X158650219Y-73233642D01*
X158589838Y-73379414D01*
X158589837Y-73379416D01*
X158502178Y-73510608D01*
X158390608Y-73622178D01*
X158259416Y-73709837D01*
X158259415Y-73709838D01*
X158259414Y-73709838D01*
X158113642Y-73770219D01*
X157958893Y-73801000D01*
X157801107Y-73801000D01*
X157646358Y-73770219D01*
X157500586Y-73709838D01*
X157500585Y-73709838D01*
X157500584Y-73709837D01*
X157369392Y-73622178D01*
X157257822Y-73510608D01*
X157170163Y-73379416D01*
X157170162Y-73379414D01*
X157109781Y-73233642D01*
X157079000Y-73078893D01*
X157079000Y-72921107D01*
X157109781Y-72766358D01*
X157170162Y-72620586D01*
X157185988Y-72596900D01*
X157257822Y-72489392D01*
X157369392Y-72377822D01*
X157500584Y-72290163D01*
X157500586Y-72290162D01*
X157646358Y-72229781D01*
X157801107Y-72199000D01*
X157958893Y-72199000D01*
X158113642Y-72229781D01*
X158113642Y-72229781D01*
G37*
G36*
X153233642Y-72229781D02*
G01*
X153379414Y-72290162D01*
X153379416Y-72290163D01*
X153510608Y-72377822D01*
X153622178Y-72489392D01*
X153694012Y-72596900D01*
X153709838Y-72620586D01*
X153770219Y-72766358D01*
X153801000Y-72921107D01*
X153801000Y-73078893D01*
X153770219Y-73233642D01*
X153709838Y-73379414D01*
X153709837Y-73379416D01*
X153622178Y-73510608D01*
X153510608Y-73622178D01*
X153379416Y-73709837D01*
X153379415Y-73709838D01*
X153379414Y-73709838D01*
X153233642Y-73770219D01*
X153078893Y-73801000D01*
X152921107Y-73801000D01*
X152766358Y-73770219D01*
X152620586Y-73709838D01*
X152620585Y-73709838D01*
X152620584Y-73709837D01*
X152489392Y-73622178D01*
X152377822Y-73510608D01*
X152290163Y-73379416D01*
X152290162Y-73379414D01*
X152229781Y-73233642D01*
X152199000Y-73078893D01*
X152199000Y-72921107D01*
X152229781Y-72766358D01*
X152290162Y-72620586D01*
X152305988Y-72596900D01*
X152377822Y-72489392D01*
X152489392Y-72377822D01*
X152620584Y-72290163D01*
X152620586Y-72290162D01*
X152766358Y-72229781D01*
X152921107Y-72199000D01*
X153078893Y-72199000D01*
X153233642Y-72229781D01*
X153233642Y-72229781D01*
G37*
G36*
X89306564Y-70989389D02*
G01*
X89497833Y-71068615D01*
X89497835Y-71068616D01*
X89618138Y-71149000D01*
X89669973Y-71183635D01*
X89816365Y-71330027D01*
X89931385Y-71502167D01*
X90010611Y-71693436D01*
X90051000Y-71896484D01*
X90051000Y-72103516D01*
X90010611Y-72306564D01*
X89948083Y-72457520D01*
X89931384Y-72497835D01*
X89816365Y-72669973D01*
X89669973Y-72816365D01*
X89497835Y-72931384D01*
X89497834Y-72931385D01*
X89497833Y-72931385D01*
X89306564Y-73010611D01*
X89103516Y-73051000D01*
X88896484Y-73051000D01*
X88693436Y-73010611D01*
X88502167Y-72931385D01*
X88502166Y-72931385D01*
X88502165Y-72931384D01*
X88330027Y-72816365D01*
X88183635Y-72669973D01*
X88068616Y-72497835D01*
X88051917Y-72457520D01*
X87989389Y-72306564D01*
X87949000Y-72103516D01*
X87949000Y-71896484D01*
X87989389Y-71693436D01*
X88068615Y-71502167D01*
X88183635Y-71330027D01*
X88330027Y-71183635D01*
X88381862Y-71149000D01*
X88502165Y-71068616D01*
X88502167Y-71068615D01*
X88693436Y-70989389D01*
X88896484Y-70949000D01*
X89103516Y-70949000D01*
X89306564Y-70989389D01*
X89306564Y-70989389D01*
G37*
G36*
X165248228Y-71181703D02*
G01*
X165403100Y-71245853D01*
X165542481Y-71338985D01*
X165661015Y-71457519D01*
X165754147Y-71596900D01*
X165818297Y-71751772D01*
X165851000Y-71916184D01*
X165851000Y-72083816D01*
X165818297Y-72248228D01*
X165754147Y-72403100D01*
X165661015Y-72542481D01*
X165542481Y-72661015D01*
X165403100Y-72754147D01*
X165248228Y-72818297D01*
X165083816Y-72851000D01*
X164916184Y-72851000D01*
X164751772Y-72818297D01*
X164596900Y-72754147D01*
X164457519Y-72661015D01*
X164338985Y-72542481D01*
X164245853Y-72403100D01*
X164181703Y-72248228D01*
X164149000Y-72083816D01*
X164149000Y-71916184D01*
X164181703Y-71751772D01*
X164245853Y-71596900D01*
X164338985Y-71457519D01*
X164457519Y-71338985D01*
X164596900Y-71245853D01*
X164751772Y-71181703D01*
X164916184Y-71149000D01*
X165083816Y-71149000D01*
X165248228Y-71181703D01*
X165248228Y-71181703D01*
G37*
G36*
X98166823Y-70541313D02*
G01*
X98327242Y-70589976D01*
X98459906Y-70660886D01*
X98475078Y-70668996D01*
X98604659Y-70775341D01*
X98711004Y-70904922D01*
X98711005Y-70904924D01*
X98790024Y-71052758D01*
X98838687Y-71213177D01*
X98855117Y-71380000D01*
X98838687Y-71546823D01*
X98790024Y-71707242D01*
X98766222Y-71751772D01*
X98711004Y-71855078D01*
X98604659Y-71984659D01*
X98475078Y-72091004D01*
X98475076Y-72091005D01*
X98327242Y-72170024D01*
X98166823Y-72218687D01*
X98041804Y-72231000D01*
X97958196Y-72231000D01*
X97833177Y-72218687D01*
X97672758Y-72170024D01*
X97524924Y-72091005D01*
X97524922Y-72091004D01*
X97395341Y-71984659D01*
X97288996Y-71855078D01*
X97233778Y-71751772D01*
X97209976Y-71707242D01*
X97161313Y-71546823D01*
X97144883Y-71380000D01*
X97161313Y-71213177D01*
X97209976Y-71052758D01*
X97288995Y-70904924D01*
X97288996Y-70904922D01*
X97395341Y-70775341D01*
X97524922Y-70668996D01*
X97540094Y-70660886D01*
X97672758Y-70589976D01*
X97833177Y-70541313D01*
X97958196Y-70529000D01*
X98041804Y-70529000D01*
X98166823Y-70541313D01*
X98166823Y-70541313D01*
G37*
G36*
X113146823Y-69161313D02*
G01*
X113307242Y-69209976D01*
X113439906Y-69280886D01*
X113455078Y-69288996D01*
X113584659Y-69395341D01*
X113691004Y-69524922D01*
X113691005Y-69524924D01*
X113770024Y-69672758D01*
X113818687Y-69833177D01*
X113835117Y-70000000D01*
X113818687Y-70166823D01*
X113770024Y-70327242D01*
X113699114Y-70459906D01*
X113691004Y-70475078D01*
X113584659Y-70604659D01*
X113455078Y-70711004D01*
X113455076Y-70711005D01*
X113307242Y-70790024D01*
X113146823Y-70838687D01*
X113021804Y-70851000D01*
X112938196Y-70851000D01*
X112813177Y-70838687D01*
X112652758Y-70790024D01*
X112504924Y-70711005D01*
X112504922Y-70711004D01*
X112375341Y-70604659D01*
X112268996Y-70475078D01*
X112260886Y-70459906D01*
X112189976Y-70327242D01*
X112141313Y-70166823D01*
X112124883Y-70000000D01*
X112141313Y-69833177D01*
X112189976Y-69672758D01*
X112268995Y-69524924D01*
X112268996Y-69524922D01*
X112375341Y-69395341D01*
X112504922Y-69288996D01*
X112520094Y-69280886D01*
X112652758Y-69209976D01*
X112813177Y-69161313D01*
X112938196Y-69149000D01*
X113021804Y-69149000D01*
X113146823Y-69161313D01*
X113146823Y-69161313D01*
G37*
G36*
X115686823Y-69161313D02*
G01*
X115847242Y-69209976D01*
X115979906Y-69280886D01*
X115995078Y-69288996D01*
X116124659Y-69395341D01*
X116231004Y-69524922D01*
X116231005Y-69524924D01*
X116310024Y-69672758D01*
X116358687Y-69833177D01*
X116375117Y-70000000D01*
X116358687Y-70166823D01*
X116310024Y-70327242D01*
X116239114Y-70459906D01*
X116231004Y-70475078D01*
X116124659Y-70604659D01*
X115995078Y-70711004D01*
X115995076Y-70711005D01*
X115847242Y-70790024D01*
X115686823Y-70838687D01*
X115561804Y-70851000D01*
X115478196Y-70851000D01*
X115353177Y-70838687D01*
X115192758Y-70790024D01*
X115044924Y-70711005D01*
X115044922Y-70711004D01*
X114915341Y-70604659D01*
X114808996Y-70475078D01*
X114800886Y-70459906D01*
X114729976Y-70327242D01*
X114681313Y-70166823D01*
X114664883Y-70000000D01*
X114681313Y-69833177D01*
X114729976Y-69672758D01*
X114808995Y-69524924D01*
X114808996Y-69524922D01*
X114915341Y-69395341D01*
X115044922Y-69288996D01*
X115060094Y-69280886D01*
X115192758Y-69209976D01*
X115353177Y-69161313D01*
X115478196Y-69149000D01*
X115561804Y-69149000D01*
X115686823Y-69161313D01*
X115686823Y-69161313D01*
G37*
G36*
X138546823Y-69161313D02*
G01*
X138707242Y-69209976D01*
X138839906Y-69280886D01*
X138855078Y-69288996D01*
X138984659Y-69395341D01*
X139091004Y-69524922D01*
X139091005Y-69524924D01*
X139170024Y-69672758D01*
X139218687Y-69833177D01*
X139235117Y-70000000D01*
X139218687Y-70166823D01*
X139170024Y-70327242D01*
X139099114Y-70459906D01*
X139091004Y-70475078D01*
X138984659Y-70604659D01*
X138855078Y-70711004D01*
X138855076Y-70711005D01*
X138707242Y-70790024D01*
X138546823Y-70838687D01*
X138421804Y-70851000D01*
X138338196Y-70851000D01*
X138213177Y-70838687D01*
X138052758Y-70790024D01*
X137904924Y-70711005D01*
X137904922Y-70711004D01*
X137775341Y-70604659D01*
X137668996Y-70475078D01*
X137660886Y-70459906D01*
X137589976Y-70327242D01*
X137541313Y-70166823D01*
X137524883Y-70000000D01*
X137541313Y-69833177D01*
X137589976Y-69672758D01*
X137668995Y-69524924D01*
X137668996Y-69524922D01*
X137775341Y-69395341D01*
X137904922Y-69288996D01*
X137920094Y-69280886D01*
X138052758Y-69209976D01*
X138213177Y-69161313D01*
X138338196Y-69149000D01*
X138421804Y-69149000D01*
X138546823Y-69161313D01*
X138546823Y-69161313D01*
G37*
G36*
X118226823Y-69161313D02*
G01*
X118387242Y-69209976D01*
X118519906Y-69280886D01*
X118535078Y-69288996D01*
X118664659Y-69395341D01*
X118771004Y-69524922D01*
X118771005Y-69524924D01*
X118850024Y-69672758D01*
X118898687Y-69833177D01*
X118915117Y-70000000D01*
X118898687Y-70166823D01*
X118850024Y-70327242D01*
X118779114Y-70459906D01*
X118771004Y-70475078D01*
X118664659Y-70604659D01*
X118535078Y-70711004D01*
X118535076Y-70711005D01*
X118387242Y-70790024D01*
X118226823Y-70838687D01*
X118101804Y-70851000D01*
X118018196Y-70851000D01*
X117893177Y-70838687D01*
X117732758Y-70790024D01*
X117584924Y-70711005D01*
X117584922Y-70711004D01*
X117455341Y-70604659D01*
X117348996Y-70475078D01*
X117340886Y-70459906D01*
X117269976Y-70327242D01*
X117221313Y-70166823D01*
X117204883Y-70000000D01*
X117221313Y-69833177D01*
X117269976Y-69672758D01*
X117348995Y-69524924D01*
X117348996Y-69524922D01*
X117455341Y-69395341D01*
X117584922Y-69288996D01*
X117600094Y-69280886D01*
X117732758Y-69209976D01*
X117893177Y-69161313D01*
X118018196Y-69149000D01*
X118101804Y-69149000D01*
X118226823Y-69161313D01*
X118226823Y-69161313D01*
G37*
G36*
X133466823Y-69161313D02*
G01*
X133627242Y-69209976D01*
X133759906Y-69280886D01*
X133775078Y-69288996D01*
X133904659Y-69395341D01*
X134011004Y-69524922D01*
X134011005Y-69524924D01*
X134090024Y-69672758D01*
X134138687Y-69833177D01*
X134155117Y-70000000D01*
X134138687Y-70166823D01*
X134090024Y-70327242D01*
X134019114Y-70459906D01*
X134011004Y-70475078D01*
X133904659Y-70604659D01*
X133775078Y-70711004D01*
X133775076Y-70711005D01*
X133627242Y-70790024D01*
X133466823Y-70838687D01*
X133341804Y-70851000D01*
X133258196Y-70851000D01*
X133133177Y-70838687D01*
X132972758Y-70790024D01*
X132824924Y-70711005D01*
X132824922Y-70711004D01*
X132695341Y-70604659D01*
X132588996Y-70475078D01*
X132580886Y-70459906D01*
X132509976Y-70327242D01*
X132461313Y-70166823D01*
X132444883Y-70000000D01*
X132461313Y-69833177D01*
X132509976Y-69672758D01*
X132588995Y-69524924D01*
X132588996Y-69524922D01*
X132695341Y-69395341D01*
X132824922Y-69288996D01*
X132840094Y-69280886D01*
X132972758Y-69209976D01*
X133133177Y-69161313D01*
X133258196Y-69149000D01*
X133341804Y-69149000D01*
X133466823Y-69161313D01*
X133466823Y-69161313D01*
G37*
G36*
X130926823Y-69161313D02*
G01*
X131087242Y-69209976D01*
X131219906Y-69280886D01*
X131235078Y-69288996D01*
X131364659Y-69395341D01*
X131471004Y-69524922D01*
X131471005Y-69524924D01*
X131550024Y-69672758D01*
X131598687Y-69833177D01*
X131615117Y-70000000D01*
X131598687Y-70166823D01*
X131550024Y-70327242D01*
X131479114Y-70459906D01*
X131471004Y-70475078D01*
X131364659Y-70604659D01*
X131235078Y-70711004D01*
X131235076Y-70711005D01*
X131087242Y-70790024D01*
X130926823Y-70838687D01*
X130801804Y-70851000D01*
X130718196Y-70851000D01*
X130593177Y-70838687D01*
X130432758Y-70790024D01*
X130284924Y-70711005D01*
X130284922Y-70711004D01*
X130155341Y-70604659D01*
X130048996Y-70475078D01*
X130040886Y-70459906D01*
X129969976Y-70327242D01*
X129921313Y-70166823D01*
X129904883Y-70000000D01*
X129921313Y-69833177D01*
X129969976Y-69672758D01*
X130048995Y-69524924D01*
X130048996Y-69524922D01*
X130155341Y-69395341D01*
X130284922Y-69288996D01*
X130300094Y-69280886D01*
X130432758Y-69209976D01*
X130593177Y-69161313D01*
X130718196Y-69149000D01*
X130801804Y-69149000D01*
X130926823Y-69161313D01*
X130926823Y-69161313D01*
G37*
G36*
X128386823Y-69161313D02*
G01*
X128547242Y-69209976D01*
X128679906Y-69280886D01*
X128695078Y-69288996D01*
X128824659Y-69395341D01*
X128931004Y-69524922D01*
X128931005Y-69524924D01*
X129010024Y-69672758D01*
X129058687Y-69833177D01*
X129075117Y-70000000D01*
X129058687Y-70166823D01*
X129010024Y-70327242D01*
X128939114Y-70459906D01*
X128931004Y-70475078D01*
X128824659Y-70604659D01*
X128695078Y-70711004D01*
X128695076Y-70711005D01*
X128547242Y-70790024D01*
X128386823Y-70838687D01*
X128261804Y-70851000D01*
X128178196Y-70851000D01*
X128053177Y-70838687D01*
X127892758Y-70790024D01*
X127744924Y-70711005D01*
X127744922Y-70711004D01*
X127615341Y-70604659D01*
X127508996Y-70475078D01*
X127500886Y-70459906D01*
X127429976Y-70327242D01*
X127381313Y-70166823D01*
X127364883Y-70000000D01*
X127381313Y-69833177D01*
X127429976Y-69672758D01*
X127508995Y-69524924D01*
X127508996Y-69524922D01*
X127615341Y-69395341D01*
X127744922Y-69288996D01*
X127760094Y-69280886D01*
X127892758Y-69209976D01*
X128053177Y-69161313D01*
X128178196Y-69149000D01*
X128261804Y-69149000D01*
X128386823Y-69161313D01*
X128386823Y-69161313D01*
G37*
G36*
X125846823Y-69161313D02*
G01*
X126007242Y-69209976D01*
X126139906Y-69280886D01*
X126155078Y-69288996D01*
X126284659Y-69395341D01*
X126391004Y-69524922D01*
X126391005Y-69524924D01*
X126470024Y-69672758D01*
X126518687Y-69833177D01*
X126535117Y-70000000D01*
X126518687Y-70166823D01*
X126470024Y-70327242D01*
X126399114Y-70459906D01*
X126391004Y-70475078D01*
X126284659Y-70604659D01*
X126155078Y-70711004D01*
X126155076Y-70711005D01*
X126007242Y-70790024D01*
X125846823Y-70838687D01*
X125721804Y-70851000D01*
X125638196Y-70851000D01*
X125513177Y-70838687D01*
X125352758Y-70790024D01*
X125204924Y-70711005D01*
X125204922Y-70711004D01*
X125075341Y-70604659D01*
X124968996Y-70475078D01*
X124960886Y-70459906D01*
X124889976Y-70327242D01*
X124841313Y-70166823D01*
X124824883Y-70000000D01*
X124841313Y-69833177D01*
X124889976Y-69672758D01*
X124968995Y-69524924D01*
X124968996Y-69524922D01*
X125075341Y-69395341D01*
X125204922Y-69288996D01*
X125220094Y-69280886D01*
X125352758Y-69209976D01*
X125513177Y-69161313D01*
X125638196Y-69149000D01*
X125721804Y-69149000D01*
X125846823Y-69161313D01*
X125846823Y-69161313D01*
G37*
G36*
X123306823Y-69161313D02*
G01*
X123467242Y-69209976D01*
X123599906Y-69280886D01*
X123615078Y-69288996D01*
X123744659Y-69395341D01*
X123851004Y-69524922D01*
X123851005Y-69524924D01*
X123930024Y-69672758D01*
X123978687Y-69833177D01*
X123995117Y-70000000D01*
X123978687Y-70166823D01*
X123930024Y-70327242D01*
X123859114Y-70459906D01*
X123851004Y-70475078D01*
X123744659Y-70604659D01*
X123615078Y-70711004D01*
X123615076Y-70711005D01*
X123467242Y-70790024D01*
X123306823Y-70838687D01*
X123181804Y-70851000D01*
X123098196Y-70851000D01*
X122973177Y-70838687D01*
X122812758Y-70790024D01*
X122664924Y-70711005D01*
X122664922Y-70711004D01*
X122535341Y-70604659D01*
X122428996Y-70475078D01*
X122420886Y-70459906D01*
X122349976Y-70327242D01*
X122301313Y-70166823D01*
X122284883Y-70000000D01*
X122301313Y-69833177D01*
X122349976Y-69672758D01*
X122428995Y-69524924D01*
X122428996Y-69524922D01*
X122535341Y-69395341D01*
X122664922Y-69288996D01*
X122680094Y-69280886D01*
X122812758Y-69209976D01*
X122973177Y-69161313D01*
X123098196Y-69149000D01*
X123181804Y-69149000D01*
X123306823Y-69161313D01*
X123306823Y-69161313D01*
G37*
G36*
X120766823Y-69161313D02*
G01*
X120927242Y-69209976D01*
X121059906Y-69280886D01*
X121075078Y-69288996D01*
X121204659Y-69395341D01*
X121311004Y-69524922D01*
X121311005Y-69524924D01*
X121390024Y-69672758D01*
X121438687Y-69833177D01*
X121455117Y-70000000D01*
X121438687Y-70166823D01*
X121390024Y-70327242D01*
X121319114Y-70459906D01*
X121311004Y-70475078D01*
X121204659Y-70604659D01*
X121075078Y-70711004D01*
X121075076Y-70711005D01*
X120927242Y-70790024D01*
X120766823Y-70838687D01*
X120641804Y-70851000D01*
X120558196Y-70851000D01*
X120433177Y-70838687D01*
X120272758Y-70790024D01*
X120124924Y-70711005D01*
X120124922Y-70711004D01*
X119995341Y-70604659D01*
X119888996Y-70475078D01*
X119880886Y-70459906D01*
X119809976Y-70327242D01*
X119761313Y-70166823D01*
X119744883Y-70000000D01*
X119761313Y-69833177D01*
X119809976Y-69672758D01*
X119888995Y-69524924D01*
X119888996Y-69524922D01*
X119995341Y-69395341D01*
X120124922Y-69288996D01*
X120140094Y-69280886D01*
X120272758Y-69209976D01*
X120433177Y-69161313D01*
X120558196Y-69149000D01*
X120641804Y-69149000D01*
X120766823Y-69161313D01*
X120766823Y-69161313D01*
G37*
G36*
X143626823Y-69161313D02*
G01*
X143787242Y-69209976D01*
X143919906Y-69280886D01*
X143935078Y-69288996D01*
X144064659Y-69395341D01*
X144171004Y-69524922D01*
X144171005Y-69524924D01*
X144250024Y-69672758D01*
X144298687Y-69833177D01*
X144315117Y-70000000D01*
X144298687Y-70166823D01*
X144250024Y-70327242D01*
X144179114Y-70459906D01*
X144171004Y-70475078D01*
X144064659Y-70604659D01*
X143935078Y-70711004D01*
X143935076Y-70711005D01*
X143787242Y-70790024D01*
X143626823Y-70838687D01*
X143501804Y-70851000D01*
X143418196Y-70851000D01*
X143293177Y-70838687D01*
X143132758Y-70790024D01*
X142984924Y-70711005D01*
X142984922Y-70711004D01*
X142855341Y-70604659D01*
X142748996Y-70475078D01*
X142740886Y-70459906D01*
X142669976Y-70327242D01*
X142621313Y-70166823D01*
X142604883Y-70000000D01*
X142621313Y-69833177D01*
X142669976Y-69672758D01*
X142748995Y-69524924D01*
X142748996Y-69524922D01*
X142855341Y-69395341D01*
X142984922Y-69288996D01*
X143000094Y-69280886D01*
X143132758Y-69209976D01*
X143293177Y-69161313D01*
X143418196Y-69149000D01*
X143501804Y-69149000D01*
X143626823Y-69161313D01*
X143626823Y-69161313D01*
G37*
G36*
X146851000Y-70851000D02*
G01*
X145149000Y-70851000D01*
X145149000Y-69149000D01*
X146851000Y-69149000D01*
X146851000Y-70851000D01*
X146851000Y-70851000D01*
G37*
G36*
X141086823Y-69161313D02*
G01*
X141247242Y-69209976D01*
X141379906Y-69280886D01*
X141395078Y-69288996D01*
X141524659Y-69395341D01*
X141631004Y-69524922D01*
X141631005Y-69524924D01*
X141710024Y-69672758D01*
X141758687Y-69833177D01*
X141775117Y-70000000D01*
X141758687Y-70166823D01*
X141710024Y-70327242D01*
X141639114Y-70459906D01*
X141631004Y-70475078D01*
X141524659Y-70604659D01*
X141395078Y-70711004D01*
X141395076Y-70711005D01*
X141247242Y-70790024D01*
X141086823Y-70838687D01*
X140961804Y-70851000D01*
X140878196Y-70851000D01*
X140753177Y-70838687D01*
X140592758Y-70790024D01*
X140444924Y-70711005D01*
X140444922Y-70711004D01*
X140315341Y-70604659D01*
X140208996Y-70475078D01*
X140200886Y-70459906D01*
X140129976Y-70327242D01*
X140081313Y-70166823D01*
X140064883Y-70000000D01*
X140081313Y-69833177D01*
X140129976Y-69672758D01*
X140208995Y-69524924D01*
X140208996Y-69524922D01*
X140315341Y-69395341D01*
X140444922Y-69288996D01*
X140460094Y-69280886D01*
X140592758Y-69209976D01*
X140753177Y-69161313D01*
X140878196Y-69149000D01*
X140961804Y-69149000D01*
X141086823Y-69161313D01*
X141086823Y-69161313D01*
G37*
G36*
X136006823Y-69161313D02*
G01*
X136167242Y-69209976D01*
X136299906Y-69280886D01*
X136315078Y-69288996D01*
X136444659Y-69395341D01*
X136551004Y-69524922D01*
X136551005Y-69524924D01*
X136630024Y-69672758D01*
X136678687Y-69833177D01*
X136695117Y-70000000D01*
X136678687Y-70166823D01*
X136630024Y-70327242D01*
X136559114Y-70459906D01*
X136551004Y-70475078D01*
X136444659Y-70604659D01*
X136315078Y-70711004D01*
X136315076Y-70711005D01*
X136167242Y-70790024D01*
X136006823Y-70838687D01*
X135881804Y-70851000D01*
X135798196Y-70851000D01*
X135673177Y-70838687D01*
X135512758Y-70790024D01*
X135364924Y-70711005D01*
X135364922Y-70711004D01*
X135235341Y-70604659D01*
X135128996Y-70475078D01*
X135120886Y-70459906D01*
X135049976Y-70327242D01*
X135001313Y-70166823D01*
X134984883Y-70000000D01*
X135001313Y-69833177D01*
X135049976Y-69672758D01*
X135128995Y-69524924D01*
X135128996Y-69524922D01*
X135235341Y-69395341D01*
X135364922Y-69288996D01*
X135380094Y-69280886D01*
X135512758Y-69209976D01*
X135673177Y-69161313D01*
X135798196Y-69149000D01*
X135881804Y-69149000D01*
X136006823Y-69161313D01*
X136006823Y-69161313D01*
G37*
G36*
X144498228Y-65431703D02*
G01*
X144653100Y-65495853D01*
X144792481Y-65588985D01*
X144911015Y-65707519D01*
X145004147Y-65846900D01*
X145068297Y-66001772D01*
X145101000Y-66166184D01*
X145101000Y-66333816D01*
X145068297Y-66498228D01*
X145004147Y-66653100D01*
X144911015Y-66792481D01*
X144792481Y-66911015D01*
X144653100Y-67004147D01*
X144498228Y-67068297D01*
X144333816Y-67101000D01*
X144166184Y-67101000D01*
X144001772Y-67068297D01*
X143846900Y-67004147D01*
X143707519Y-66911015D01*
X143588985Y-66792481D01*
X143495853Y-66653100D01*
X143431703Y-66498228D01*
X143399000Y-66333816D01*
X143399000Y-66166184D01*
X143431703Y-66001772D01*
X143495853Y-65846900D01*
X143588985Y-65707519D01*
X143707519Y-65588985D01*
X143846900Y-65495853D01*
X144001772Y-65431703D01*
X144166184Y-65399000D01*
X144333816Y-65399000D01*
X144498228Y-65431703D01*
X144498228Y-65431703D01*
G37*
G36*
X137498228Y-65431703D02*
G01*
X137653100Y-65495853D01*
X137792481Y-65588985D01*
X137911015Y-65707519D01*
X138004147Y-65846900D01*
X138068297Y-66001772D01*
X138101000Y-66166184D01*
X138101000Y-66333816D01*
X138068297Y-66498228D01*
X138004147Y-66653100D01*
X137911015Y-66792481D01*
X137792481Y-66911015D01*
X137653100Y-67004147D01*
X137498228Y-67068297D01*
X137333816Y-67101000D01*
X137166184Y-67101000D01*
X137001772Y-67068297D01*
X136846900Y-67004147D01*
X136707519Y-66911015D01*
X136588985Y-66792481D01*
X136495853Y-66653100D01*
X136431703Y-66498228D01*
X136399000Y-66333816D01*
X136399000Y-66166184D01*
X136431703Y-66001772D01*
X136495853Y-65846900D01*
X136588985Y-65707519D01*
X136707519Y-65588985D01*
X136846900Y-65495853D01*
X137001772Y-65431703D01*
X137166184Y-65399000D01*
X137333816Y-65399000D01*
X137498228Y-65431703D01*
X137498228Y-65431703D01*
G37*
G36*
X122998228Y-65181703D02*
G01*
X123153100Y-65245853D01*
X123292481Y-65338985D01*
X123411015Y-65457519D01*
X123504147Y-65596900D01*
X123568297Y-65751772D01*
X123601000Y-65916184D01*
X123601000Y-66083816D01*
X123568297Y-66248228D01*
X123504147Y-66403100D01*
X123411015Y-66542481D01*
X123292481Y-66661015D01*
X123153100Y-66754147D01*
X122998228Y-66818297D01*
X122833816Y-66851000D01*
X122666184Y-66851000D01*
X122501772Y-66818297D01*
X122346900Y-66754147D01*
X122207519Y-66661015D01*
X122088985Y-66542481D01*
X121995853Y-66403100D01*
X121931703Y-66248228D01*
X121899000Y-66083816D01*
X121899000Y-65916184D01*
X121931703Y-65751772D01*
X121995853Y-65596900D01*
X122088985Y-65457519D01*
X122207519Y-65338985D01*
X122346900Y-65245853D01*
X122501772Y-65181703D01*
X122666184Y-65149000D01*
X122833816Y-65149000D01*
X122998228Y-65181703D01*
X122998228Y-65181703D01*
G37*
G36*
X115998228Y-65181703D02*
G01*
X116153100Y-65245853D01*
X116292481Y-65338985D01*
X116411015Y-65457519D01*
X116504147Y-65596900D01*
X116568297Y-65751772D01*
X116601000Y-65916184D01*
X116601000Y-66083816D01*
X116568297Y-66248228D01*
X116504147Y-66403100D01*
X116411015Y-66542481D01*
X116292481Y-66661015D01*
X116153100Y-66754147D01*
X115998228Y-66818297D01*
X115833816Y-66851000D01*
X115666184Y-66851000D01*
X115501772Y-66818297D01*
X115346900Y-66754147D01*
X115207519Y-66661015D01*
X115088985Y-66542481D01*
X114995853Y-66403100D01*
X114931703Y-66248228D01*
X114899000Y-66083816D01*
X114899000Y-65916184D01*
X114931703Y-65751772D01*
X114995853Y-65596900D01*
X115088985Y-65457519D01*
X115207519Y-65338985D01*
X115346900Y-65245853D01*
X115501772Y-65181703D01*
X115666184Y-65149000D01*
X115833816Y-65149000D01*
X115998228Y-65181703D01*
X115998228Y-65181703D01*
G37*
G36*
X101806564Y-62989389D02*
G01*
X101997833Y-63068615D01*
X101997835Y-63068616D01*
X102169973Y-63183635D01*
X102316365Y-63330027D01*
X102392143Y-63443436D01*
X102431385Y-63502167D01*
X102510611Y-63693436D01*
X102551000Y-63896484D01*
X102551000Y-64103516D01*
X102510611Y-64306564D01*
X102431385Y-64497833D01*
X102431384Y-64497835D01*
X102316365Y-64669973D01*
X102169973Y-64816365D01*
X101997835Y-64931384D01*
X101997834Y-64931385D01*
X101997833Y-64931385D01*
X101806564Y-65010611D01*
X101603516Y-65051000D01*
X101396484Y-65051000D01*
X101193436Y-65010611D01*
X101002167Y-64931385D01*
X101002166Y-64931385D01*
X101002165Y-64931384D01*
X100830027Y-64816365D01*
X100683635Y-64669973D01*
X100568616Y-64497835D01*
X100568615Y-64497833D01*
X100489389Y-64306564D01*
X100449000Y-64103516D01*
X100449000Y-63896484D01*
X100489389Y-63693436D01*
X100568615Y-63502167D01*
X100607858Y-63443436D01*
X100683635Y-63330027D01*
X100830027Y-63183635D01*
X101002165Y-63068616D01*
X101002167Y-63068615D01*
X101193436Y-62989389D01*
X101396484Y-62949000D01*
X101603516Y-62949000D01*
X101806564Y-62989389D01*
X101806564Y-62989389D01*
G37*
G36*
X108306564Y-62989389D02*
G01*
X108497833Y-63068615D01*
X108497835Y-63068616D01*
X108669973Y-63183635D01*
X108816365Y-63330027D01*
X108892143Y-63443436D01*
X108931385Y-63502167D01*
X109010611Y-63693436D01*
X109051000Y-63896484D01*
X109051000Y-64103516D01*
X109010611Y-64306564D01*
X108931385Y-64497833D01*
X108931384Y-64497835D01*
X108816365Y-64669973D01*
X108669973Y-64816365D01*
X108497835Y-64931384D01*
X108497834Y-64931385D01*
X108497833Y-64931385D01*
X108306564Y-65010611D01*
X108103516Y-65051000D01*
X107896484Y-65051000D01*
X107693436Y-65010611D01*
X107502167Y-64931385D01*
X107502166Y-64931385D01*
X107502165Y-64931384D01*
X107330027Y-64816365D01*
X107183635Y-64669973D01*
X107068616Y-64497835D01*
X107068615Y-64497833D01*
X106989389Y-64306564D01*
X106949000Y-64103516D01*
X106949000Y-63896484D01*
X106989389Y-63693436D01*
X107068615Y-63502167D01*
X107107858Y-63443436D01*
X107183635Y-63330027D01*
X107330027Y-63183635D01*
X107502165Y-63068616D01*
X107502167Y-63068615D01*
X107693436Y-62989389D01*
X107896484Y-62949000D01*
X108103516Y-62949000D01*
X108306564Y-62989389D01*
X108306564Y-62989389D01*
G37*
G36*
X96306564Y-62989389D02*
G01*
X96497833Y-63068615D01*
X96497835Y-63068616D01*
X96669973Y-63183635D01*
X96816365Y-63330027D01*
X96892143Y-63443436D01*
X96931385Y-63502167D01*
X97010611Y-63693436D01*
X97051000Y-63896484D01*
X97051000Y-64103516D01*
X97010611Y-64306564D01*
X96931385Y-64497833D01*
X96931384Y-64497835D01*
X96816365Y-64669973D01*
X96669973Y-64816365D01*
X96497835Y-64931384D01*
X96497834Y-64931385D01*
X96497833Y-64931385D01*
X96306564Y-65010611D01*
X96103516Y-65051000D01*
X95896484Y-65051000D01*
X95693436Y-65010611D01*
X95502167Y-64931385D01*
X95502166Y-64931385D01*
X95502165Y-64931384D01*
X95330027Y-64816365D01*
X95183635Y-64669973D01*
X95068616Y-64497835D01*
X95068615Y-64497833D01*
X94989389Y-64306564D01*
X94949000Y-64103516D01*
X94949000Y-63896484D01*
X94989389Y-63693436D01*
X95068615Y-63502167D01*
X95107858Y-63443436D01*
X95183635Y-63330027D01*
X95330027Y-63183635D01*
X95502165Y-63068616D01*
X95502167Y-63068615D01*
X95693436Y-62989389D01*
X95896484Y-62949000D01*
X96103516Y-62949000D01*
X96306564Y-62989389D01*
X96306564Y-62989389D01*
G37*
G36*
X89806564Y-62989389D02*
G01*
X89997833Y-63068615D01*
X89997835Y-63068616D01*
X90169973Y-63183635D01*
X90316365Y-63330027D01*
X90392143Y-63443436D01*
X90431385Y-63502167D01*
X90510611Y-63693436D01*
X90551000Y-63896484D01*
X90551000Y-64103516D01*
X90510611Y-64306564D01*
X90431385Y-64497833D01*
X90431384Y-64497835D01*
X90316365Y-64669973D01*
X90169973Y-64816365D01*
X89997835Y-64931384D01*
X89997834Y-64931385D01*
X89997833Y-64931385D01*
X89806564Y-65010611D01*
X89603516Y-65051000D01*
X89396484Y-65051000D01*
X89193436Y-65010611D01*
X89002167Y-64931385D01*
X89002166Y-64931385D01*
X89002165Y-64931384D01*
X88830027Y-64816365D01*
X88683635Y-64669973D01*
X88568616Y-64497835D01*
X88568615Y-64497833D01*
X88489389Y-64306564D01*
X88449000Y-64103516D01*
X88449000Y-63896484D01*
X88489389Y-63693436D01*
X88568615Y-63502167D01*
X88607858Y-63443436D01*
X88683635Y-63330027D01*
X88830027Y-63183635D01*
X89002165Y-63068616D01*
X89002167Y-63068615D01*
X89193436Y-62989389D01*
X89396484Y-62949000D01*
X89603516Y-62949000D01*
X89806564Y-62989389D01*
X89806564Y-62989389D01*
G37*
G36*
X164306564Y-62739389D02*
G01*
X164497833Y-62818615D01*
X164497835Y-62818616D01*
X164669973Y-62933635D01*
X164816365Y-63080027D01*
X164885594Y-63183635D01*
X164931385Y-63252167D01*
X165010611Y-63443436D01*
X165051000Y-63646484D01*
X165051000Y-63853516D01*
X165010611Y-64056564D01*
X164931385Y-64247833D01*
X164931384Y-64247835D01*
X164816365Y-64419973D01*
X164669973Y-64566365D01*
X164497835Y-64681384D01*
X164497834Y-64681385D01*
X164497833Y-64681385D01*
X164306564Y-64760611D01*
X164103516Y-64801000D01*
X163896484Y-64801000D01*
X163693436Y-64760611D01*
X163502167Y-64681385D01*
X163502166Y-64681385D01*
X163502165Y-64681384D01*
X163330027Y-64566365D01*
X163183635Y-64419973D01*
X163068616Y-64247835D01*
X163068615Y-64247833D01*
X162989389Y-64056564D01*
X162949000Y-63853516D01*
X162949000Y-63646484D01*
X162989389Y-63443436D01*
X163068615Y-63252167D01*
X163114407Y-63183635D01*
X163183635Y-63080027D01*
X163330027Y-62933635D01*
X163502165Y-62818616D01*
X163502167Y-62818615D01*
X163693436Y-62739389D01*
X163896484Y-62699000D01*
X164103516Y-62699000D01*
X164306564Y-62739389D01*
X164306564Y-62739389D01*
G37*
G36*
X152306564Y-62739389D02*
G01*
X152497833Y-62818615D01*
X152497835Y-62818616D01*
X152669973Y-62933635D01*
X152816365Y-63080027D01*
X152885594Y-63183635D01*
X152931385Y-63252167D01*
X153010611Y-63443436D01*
X153051000Y-63646484D01*
X153051000Y-63853516D01*
X153010611Y-64056564D01*
X152931385Y-64247833D01*
X152931384Y-64247835D01*
X152816365Y-64419973D01*
X152669973Y-64566365D01*
X152497835Y-64681384D01*
X152497834Y-64681385D01*
X152497833Y-64681385D01*
X152306564Y-64760611D01*
X152103516Y-64801000D01*
X151896484Y-64801000D01*
X151693436Y-64760611D01*
X151502167Y-64681385D01*
X151502166Y-64681385D01*
X151502165Y-64681384D01*
X151330027Y-64566365D01*
X151183635Y-64419973D01*
X151068616Y-64247835D01*
X151068615Y-64247833D01*
X150989389Y-64056564D01*
X150949000Y-63853516D01*
X150949000Y-63646484D01*
X150989389Y-63443436D01*
X151068615Y-63252167D01*
X151114407Y-63183635D01*
X151183635Y-63080027D01*
X151330027Y-62933635D01*
X151502165Y-62818616D01*
X151502167Y-62818615D01*
X151693436Y-62739389D01*
X151896484Y-62699000D01*
X152103516Y-62699000D01*
X152306564Y-62739389D01*
X152306564Y-62739389D01*
G37*
G36*
X158806564Y-62739389D02*
G01*
X158997833Y-62818615D01*
X158997835Y-62818616D01*
X159169973Y-62933635D01*
X159316365Y-63080027D01*
X159385594Y-63183635D01*
X159431385Y-63252167D01*
X159510611Y-63443436D01*
X159551000Y-63646484D01*
X159551000Y-63853516D01*
X159510611Y-64056564D01*
X159431385Y-64247833D01*
X159431384Y-64247835D01*
X159316365Y-64419973D01*
X159169973Y-64566365D01*
X158997835Y-64681384D01*
X158997834Y-64681385D01*
X158997833Y-64681385D01*
X158806564Y-64760611D01*
X158603516Y-64801000D01*
X158396484Y-64801000D01*
X158193436Y-64760611D01*
X158002167Y-64681385D01*
X158002166Y-64681385D01*
X158002165Y-64681384D01*
X157830027Y-64566365D01*
X157683635Y-64419973D01*
X157568616Y-64247835D01*
X157568615Y-64247833D01*
X157489389Y-64056564D01*
X157449000Y-63853516D01*
X157449000Y-63646484D01*
X157489389Y-63443436D01*
X157568615Y-63252167D01*
X157614407Y-63183635D01*
X157683635Y-63080027D01*
X157830027Y-62933635D01*
X158002165Y-62818616D01*
X158002167Y-62818615D01*
X158193436Y-62739389D01*
X158396484Y-62699000D01*
X158603516Y-62699000D01*
X158806564Y-62739389D01*
X158806564Y-62739389D01*
G37*
G36*
X170806564Y-62739389D02*
G01*
X170997833Y-62818615D01*
X170997835Y-62818616D01*
X171169973Y-62933635D01*
X171316365Y-63080027D01*
X171385594Y-63183635D01*
X171431385Y-63252167D01*
X171510611Y-63443436D01*
X171551000Y-63646484D01*
X171551000Y-63853516D01*
X171510611Y-64056564D01*
X171431385Y-64247833D01*
X171431384Y-64247835D01*
X171316365Y-64419973D01*
X171169973Y-64566365D01*
X170997835Y-64681384D01*
X170997834Y-64681385D01*
X170997833Y-64681385D01*
X170806564Y-64760611D01*
X170603516Y-64801000D01*
X170396484Y-64801000D01*
X170193436Y-64760611D01*
X170002167Y-64681385D01*
X170002166Y-64681385D01*
X170002165Y-64681384D01*
X169830027Y-64566365D01*
X169683635Y-64419973D01*
X169568616Y-64247835D01*
X169568615Y-64247833D01*
X169489389Y-64056564D01*
X169449000Y-63853516D01*
X169449000Y-63646484D01*
X169489389Y-63443436D01*
X169568615Y-63252167D01*
X169614407Y-63183635D01*
X169683635Y-63080027D01*
X169830027Y-62933635D01*
X170002165Y-62818616D01*
X170002167Y-62818615D01*
X170193436Y-62739389D01*
X170396484Y-62699000D01*
X170603516Y-62699000D01*
X170806564Y-62739389D01*
X170806564Y-62739389D01*
G37*
G36*
X101806564Y-58489389D02*
G01*
X101997833Y-58568615D01*
X101997835Y-58568616D01*
X102169973Y-58683635D01*
X102316365Y-58830027D01*
X102392143Y-58943436D01*
X102431385Y-59002167D01*
X102510611Y-59193436D01*
X102551000Y-59396484D01*
X102551000Y-59603516D01*
X102510611Y-59806564D01*
X102431385Y-59997833D01*
X102431384Y-59997835D01*
X102316365Y-60169973D01*
X102169973Y-60316365D01*
X101997835Y-60431384D01*
X101997834Y-60431385D01*
X101997833Y-60431385D01*
X101806564Y-60510611D01*
X101603516Y-60551000D01*
X101396484Y-60551000D01*
X101193436Y-60510611D01*
X101002167Y-60431385D01*
X101002166Y-60431385D01*
X101002165Y-60431384D01*
X100830027Y-60316365D01*
X100683635Y-60169973D01*
X100568616Y-59997835D01*
X100568615Y-59997833D01*
X100489389Y-59806564D01*
X100449000Y-59603516D01*
X100449000Y-59396484D01*
X100489389Y-59193436D01*
X100568615Y-59002167D01*
X100607858Y-58943436D01*
X100683635Y-58830027D01*
X100830027Y-58683635D01*
X101002165Y-58568616D01*
X101002167Y-58568615D01*
X101193436Y-58489389D01*
X101396484Y-58449000D01*
X101603516Y-58449000D01*
X101806564Y-58489389D01*
X101806564Y-58489389D01*
G37*
G36*
X108306564Y-58489389D02*
G01*
X108497833Y-58568615D01*
X108497835Y-58568616D01*
X108669973Y-58683635D01*
X108816365Y-58830027D01*
X108892143Y-58943436D01*
X108931385Y-59002167D01*
X109010611Y-59193436D01*
X109051000Y-59396484D01*
X109051000Y-59603516D01*
X109010611Y-59806564D01*
X108931385Y-59997833D01*
X108931384Y-59997835D01*
X108816365Y-60169973D01*
X108669973Y-60316365D01*
X108497835Y-60431384D01*
X108497834Y-60431385D01*
X108497833Y-60431385D01*
X108306564Y-60510611D01*
X108103516Y-60551000D01*
X107896484Y-60551000D01*
X107693436Y-60510611D01*
X107502167Y-60431385D01*
X107502166Y-60431385D01*
X107502165Y-60431384D01*
X107330027Y-60316365D01*
X107183635Y-60169973D01*
X107068616Y-59997835D01*
X107068615Y-59997833D01*
X106989389Y-59806564D01*
X106949000Y-59603516D01*
X106949000Y-59396484D01*
X106989389Y-59193436D01*
X107068615Y-59002167D01*
X107107858Y-58943436D01*
X107183635Y-58830027D01*
X107330027Y-58683635D01*
X107502165Y-58568616D01*
X107502167Y-58568615D01*
X107693436Y-58489389D01*
X107896484Y-58449000D01*
X108103516Y-58449000D01*
X108306564Y-58489389D01*
X108306564Y-58489389D01*
G37*
G36*
X96306564Y-58489389D02*
G01*
X96497833Y-58568615D01*
X96497835Y-58568616D01*
X96669973Y-58683635D01*
X96816365Y-58830027D01*
X96892143Y-58943436D01*
X96931385Y-59002167D01*
X97010611Y-59193436D01*
X97051000Y-59396484D01*
X97051000Y-59603516D01*
X97010611Y-59806564D01*
X96931385Y-59997833D01*
X96931384Y-59997835D01*
X96816365Y-60169973D01*
X96669973Y-60316365D01*
X96497835Y-60431384D01*
X96497834Y-60431385D01*
X96497833Y-60431385D01*
X96306564Y-60510611D01*
X96103516Y-60551000D01*
X95896484Y-60551000D01*
X95693436Y-60510611D01*
X95502167Y-60431385D01*
X95502166Y-60431385D01*
X95502165Y-60431384D01*
X95330027Y-60316365D01*
X95183635Y-60169973D01*
X95068616Y-59997835D01*
X95068615Y-59997833D01*
X94989389Y-59806564D01*
X94949000Y-59603516D01*
X94949000Y-59396484D01*
X94989389Y-59193436D01*
X95068615Y-59002167D01*
X95107858Y-58943436D01*
X95183635Y-58830027D01*
X95330027Y-58683635D01*
X95502165Y-58568616D01*
X95502167Y-58568615D01*
X95693436Y-58489389D01*
X95896484Y-58449000D01*
X96103516Y-58449000D01*
X96306564Y-58489389D01*
X96306564Y-58489389D01*
G37*
G36*
X89806564Y-58489389D02*
G01*
X89997833Y-58568615D01*
X89997835Y-58568616D01*
X90169973Y-58683635D01*
X90316365Y-58830027D01*
X90392143Y-58943436D01*
X90431385Y-59002167D01*
X90510611Y-59193436D01*
X90551000Y-59396484D01*
X90551000Y-59603516D01*
X90510611Y-59806564D01*
X90431385Y-59997833D01*
X90431384Y-59997835D01*
X90316365Y-60169973D01*
X90169973Y-60316365D01*
X89997835Y-60431384D01*
X89997834Y-60431385D01*
X89997833Y-60431385D01*
X89806564Y-60510611D01*
X89603516Y-60551000D01*
X89396484Y-60551000D01*
X89193436Y-60510611D01*
X89002167Y-60431385D01*
X89002166Y-60431385D01*
X89002165Y-60431384D01*
X88830027Y-60316365D01*
X88683635Y-60169973D01*
X88568616Y-59997835D01*
X88568615Y-59997833D01*
X88489389Y-59806564D01*
X88449000Y-59603516D01*
X88449000Y-59396484D01*
X88489389Y-59193436D01*
X88568615Y-59002167D01*
X88607858Y-58943436D01*
X88683635Y-58830027D01*
X88830027Y-58683635D01*
X89002165Y-58568616D01*
X89002167Y-58568615D01*
X89193436Y-58489389D01*
X89396484Y-58449000D01*
X89603516Y-58449000D01*
X89806564Y-58489389D01*
X89806564Y-58489389D01*
G37*
G36*
X152306564Y-58239389D02*
G01*
X152497833Y-58318615D01*
X152497835Y-58318616D01*
X152669973Y-58433635D01*
X152816365Y-58580027D01*
X152885594Y-58683635D01*
X152931385Y-58752167D01*
X153010611Y-58943436D01*
X153051000Y-59146484D01*
X153051000Y-59353516D01*
X153010611Y-59556564D01*
X152931385Y-59747833D01*
X152931384Y-59747835D01*
X152816365Y-59919973D01*
X152669973Y-60066365D01*
X152497835Y-60181384D01*
X152497834Y-60181385D01*
X152497833Y-60181385D01*
X152306564Y-60260611D01*
X152103516Y-60301000D01*
X151896484Y-60301000D01*
X151693436Y-60260611D01*
X151502167Y-60181385D01*
X151502166Y-60181385D01*
X151502165Y-60181384D01*
X151330027Y-60066365D01*
X151183635Y-59919973D01*
X151068616Y-59747835D01*
X151068615Y-59747833D01*
X150989389Y-59556564D01*
X150949000Y-59353516D01*
X150949000Y-59146484D01*
X150989389Y-58943436D01*
X151068615Y-58752167D01*
X151114407Y-58683635D01*
X151183635Y-58580027D01*
X151330027Y-58433635D01*
X151502165Y-58318616D01*
X151502167Y-58318615D01*
X151693436Y-58239389D01*
X151896484Y-58199000D01*
X152103516Y-58199000D01*
X152306564Y-58239389D01*
X152306564Y-58239389D01*
G37*
G36*
X170806564Y-58239389D02*
G01*
X170997833Y-58318615D01*
X170997835Y-58318616D01*
X171169973Y-58433635D01*
X171316365Y-58580027D01*
X171385594Y-58683635D01*
X171431385Y-58752167D01*
X171510611Y-58943436D01*
X171551000Y-59146484D01*
X171551000Y-59353516D01*
X171510611Y-59556564D01*
X171431385Y-59747833D01*
X171431384Y-59747835D01*
X171316365Y-59919973D01*
X171169973Y-60066365D01*
X170997835Y-60181384D01*
X170997834Y-60181385D01*
X170997833Y-60181385D01*
X170806564Y-60260611D01*
X170603516Y-60301000D01*
X170396484Y-60301000D01*
X170193436Y-60260611D01*
X170002167Y-60181385D01*
X170002166Y-60181385D01*
X170002165Y-60181384D01*
X169830027Y-60066365D01*
X169683635Y-59919973D01*
X169568616Y-59747835D01*
X169568615Y-59747833D01*
X169489389Y-59556564D01*
X169449000Y-59353516D01*
X169449000Y-59146484D01*
X169489389Y-58943436D01*
X169568615Y-58752167D01*
X169614407Y-58683635D01*
X169683635Y-58580027D01*
X169830027Y-58433635D01*
X170002165Y-58318616D01*
X170002167Y-58318615D01*
X170193436Y-58239389D01*
X170396484Y-58199000D01*
X170603516Y-58199000D01*
X170806564Y-58239389D01*
X170806564Y-58239389D01*
G37*
G36*
X158806564Y-58239389D02*
G01*
X158997833Y-58318615D01*
X158997835Y-58318616D01*
X159169973Y-58433635D01*
X159316365Y-58580027D01*
X159385594Y-58683635D01*
X159431385Y-58752167D01*
X159510611Y-58943436D01*
X159551000Y-59146484D01*
X159551000Y-59353516D01*
X159510611Y-59556564D01*
X159431385Y-59747833D01*
X159431384Y-59747835D01*
X159316365Y-59919973D01*
X159169973Y-60066365D01*
X158997835Y-60181384D01*
X158997834Y-60181385D01*
X158997833Y-60181385D01*
X158806564Y-60260611D01*
X158603516Y-60301000D01*
X158396484Y-60301000D01*
X158193436Y-60260611D01*
X158002167Y-60181385D01*
X158002166Y-60181385D01*
X158002165Y-60181384D01*
X157830027Y-60066365D01*
X157683635Y-59919973D01*
X157568616Y-59747835D01*
X157568615Y-59747833D01*
X157489389Y-59556564D01*
X157449000Y-59353516D01*
X157449000Y-59146484D01*
X157489389Y-58943436D01*
X157568615Y-58752167D01*
X157614407Y-58683635D01*
X157683635Y-58580027D01*
X157830027Y-58433635D01*
X158002165Y-58318616D01*
X158002167Y-58318615D01*
X158193436Y-58239389D01*
X158396484Y-58199000D01*
X158603516Y-58199000D01*
X158806564Y-58239389D01*
X158806564Y-58239389D01*
G37*
G36*
X164306564Y-58239389D02*
G01*
X164497833Y-58318615D01*
X164497835Y-58318616D01*
X164669973Y-58433635D01*
X164816365Y-58580027D01*
X164885594Y-58683635D01*
X164931385Y-58752167D01*
X165010611Y-58943436D01*
X165051000Y-59146484D01*
X165051000Y-59353516D01*
X165010611Y-59556564D01*
X164931385Y-59747833D01*
X164931384Y-59747835D01*
X164816365Y-59919973D01*
X164669973Y-60066365D01*
X164497835Y-60181384D01*
X164497834Y-60181385D01*
X164497833Y-60181385D01*
X164306564Y-60260611D01*
X164103516Y-60301000D01*
X163896484Y-60301000D01*
X163693436Y-60260611D01*
X163502167Y-60181385D01*
X163502166Y-60181385D01*
X163502165Y-60181384D01*
X163330027Y-60066365D01*
X163183635Y-59919973D01*
X163068616Y-59747835D01*
X163068615Y-59747833D01*
X162989389Y-59556564D01*
X162949000Y-59353516D01*
X162949000Y-59146484D01*
X162989389Y-58943436D01*
X163068615Y-58752167D01*
X163114407Y-58683635D01*
X163183635Y-58580027D01*
X163330027Y-58433635D01*
X163502165Y-58318616D01*
X163502167Y-58318615D01*
X163693436Y-58239389D01*
X163896484Y-58199000D01*
X164103516Y-58199000D01*
X164306564Y-58239389D01*
X164306564Y-58239389D01*
G37*
G36*
X144416823Y-57791313D02*
G01*
X144577242Y-57839976D01*
X144698747Y-57904922D01*
X144725078Y-57918996D01*
X144854659Y-58025341D01*
X144961004Y-58154922D01*
X144961005Y-58154924D01*
X145040024Y-58302758D01*
X145088687Y-58463177D01*
X145105117Y-58630000D01*
X145088687Y-58796823D01*
X145040024Y-58957242D01*
X145025369Y-58984659D01*
X144961004Y-59105078D01*
X144854659Y-59234659D01*
X144725078Y-59341004D01*
X144725076Y-59341005D01*
X144577242Y-59420024D01*
X144416823Y-59468687D01*
X144291804Y-59481000D01*
X144208196Y-59481000D01*
X144083177Y-59468687D01*
X143922758Y-59420024D01*
X143774924Y-59341005D01*
X143774922Y-59341004D01*
X143645341Y-59234659D01*
X143538996Y-59105078D01*
X143474631Y-58984659D01*
X143459976Y-58957242D01*
X143411313Y-58796823D01*
X143394883Y-58630000D01*
X143411313Y-58463177D01*
X143459976Y-58302758D01*
X143538995Y-58154924D01*
X143538996Y-58154922D01*
X143645341Y-58025341D01*
X143774922Y-57918996D01*
X143801253Y-57904922D01*
X143922758Y-57839976D01*
X144083177Y-57791313D01*
X144208196Y-57779000D01*
X144291804Y-57779000D01*
X144416823Y-57791313D01*
X144416823Y-57791313D01*
G37*
G36*
X137416823Y-57791313D02*
G01*
X137577242Y-57839976D01*
X137698747Y-57904922D01*
X137725078Y-57918996D01*
X137854659Y-58025341D01*
X137961004Y-58154922D01*
X137961005Y-58154924D01*
X138040024Y-58302758D01*
X138088687Y-58463177D01*
X138105117Y-58630000D01*
X138088687Y-58796823D01*
X138040024Y-58957242D01*
X138025369Y-58984659D01*
X137961004Y-59105078D01*
X137854659Y-59234659D01*
X137725078Y-59341004D01*
X137725076Y-59341005D01*
X137577242Y-59420024D01*
X137416823Y-59468687D01*
X137291804Y-59481000D01*
X137208196Y-59481000D01*
X137083177Y-59468687D01*
X136922758Y-59420024D01*
X136774924Y-59341005D01*
X136774922Y-59341004D01*
X136645341Y-59234659D01*
X136538996Y-59105078D01*
X136474631Y-58984659D01*
X136459976Y-58957242D01*
X136411313Y-58796823D01*
X136394883Y-58630000D01*
X136411313Y-58463177D01*
X136459976Y-58302758D01*
X136538995Y-58154924D01*
X136538996Y-58154922D01*
X136645341Y-58025341D01*
X136774922Y-57918996D01*
X136801253Y-57904922D01*
X136922758Y-57839976D01*
X137083177Y-57791313D01*
X137208196Y-57779000D01*
X137291804Y-57779000D01*
X137416823Y-57791313D01*
X137416823Y-57791313D01*
G37*
G36*
X122916823Y-57541313D02*
G01*
X123077242Y-57589976D01*
X123209906Y-57660886D01*
X123225078Y-57668996D01*
X123354659Y-57775341D01*
X123461004Y-57904922D01*
X123461005Y-57904924D01*
X123540024Y-58052758D01*
X123588687Y-58213177D01*
X123605117Y-58380000D01*
X123588687Y-58546823D01*
X123540024Y-58707242D01*
X123516012Y-58752165D01*
X123461004Y-58855078D01*
X123354659Y-58984659D01*
X123225078Y-59091004D01*
X123225076Y-59091005D01*
X123077242Y-59170024D01*
X122916823Y-59218687D01*
X122791804Y-59231000D01*
X122708196Y-59231000D01*
X122583177Y-59218687D01*
X122422758Y-59170024D01*
X122274924Y-59091005D01*
X122274922Y-59091004D01*
X122145341Y-58984659D01*
X122038996Y-58855078D01*
X121983988Y-58752165D01*
X121959976Y-58707242D01*
X121911313Y-58546823D01*
X121894883Y-58380000D01*
X121911313Y-58213177D01*
X121959976Y-58052758D01*
X122038995Y-57904924D01*
X122038996Y-57904922D01*
X122145341Y-57775341D01*
X122274922Y-57668996D01*
X122290094Y-57660886D01*
X122422758Y-57589976D01*
X122583177Y-57541313D01*
X122708196Y-57529000D01*
X122791804Y-57529000D01*
X122916823Y-57541313D01*
X122916823Y-57541313D01*
G37*
G36*
X115916823Y-57541313D02*
G01*
X116077242Y-57589976D01*
X116209906Y-57660886D01*
X116225078Y-57668996D01*
X116354659Y-57775341D01*
X116461004Y-57904922D01*
X116461005Y-57904924D01*
X116540024Y-58052758D01*
X116588687Y-58213177D01*
X116605117Y-58380000D01*
X116588687Y-58546823D01*
X116540024Y-58707242D01*
X116516012Y-58752165D01*
X116461004Y-58855078D01*
X116354659Y-58984659D01*
X116225078Y-59091004D01*
X116225076Y-59091005D01*
X116077242Y-59170024D01*
X115916823Y-59218687D01*
X115791804Y-59231000D01*
X115708196Y-59231000D01*
X115583177Y-59218687D01*
X115422758Y-59170024D01*
X115274924Y-59091005D01*
X115274922Y-59091004D01*
X115145341Y-58984659D01*
X115038996Y-58855078D01*
X114983988Y-58752165D01*
X114959976Y-58707242D01*
X114911313Y-58546823D01*
X114894883Y-58380000D01*
X114911313Y-58213177D01*
X114959976Y-58052758D01*
X115038995Y-57904924D01*
X115038996Y-57904922D01*
X115145341Y-57775341D01*
X115274922Y-57668996D01*
X115290094Y-57660886D01*
X115422758Y-57589976D01*
X115583177Y-57541313D01*
X115708196Y-57529000D01*
X115791804Y-57529000D01*
X115916823Y-57541313D01*
X115916823Y-57541313D01*
G37*
G36*
X95914600Y-55914600D02*
G01*
X94085400Y-55914600D01*
X94085400Y-54085400D01*
X95914600Y-54085400D01*
X95914600Y-55914600D01*
X95914600Y-55914600D01*
G37*
G36*
X97719294Y-54098633D02*
G01*
X97891695Y-54150931D01*
X98050583Y-54235858D01*
X98189849Y-54350151D01*
X98304142Y-54489417D01*
X98389069Y-54648305D01*
X98441367Y-54820706D01*
X98459025Y-55000000D01*
X98441367Y-55179294D01*
X98389069Y-55351695D01*
X98304142Y-55510583D01*
X98189849Y-55649849D01*
X98050583Y-55764142D01*
X97891695Y-55849069D01*
X97719294Y-55901367D01*
X97584931Y-55914600D01*
X97495069Y-55914600D01*
X97360706Y-55901367D01*
X97188305Y-55849069D01*
X97029417Y-55764142D01*
X96890151Y-55649849D01*
X96775858Y-55510583D01*
X96690931Y-55351695D01*
X96638633Y-55179294D01*
X96620975Y-55000000D01*
X96638633Y-54820706D01*
X96690931Y-54648305D01*
X96775858Y-54489417D01*
X96890151Y-54350151D01*
X97029417Y-54235858D01*
X97188305Y-54150931D01*
X97360706Y-54098633D01*
X97495069Y-54085400D01*
X97584931Y-54085400D01*
X97719294Y-54098633D01*
X97719294Y-54098633D01*
G37*
G36*
X100259294Y-54098633D02*
G01*
X100431695Y-54150931D01*
X100590583Y-54235858D01*
X100729849Y-54350151D01*
X100844142Y-54489417D01*
X100929069Y-54648305D01*
X100981367Y-54820706D01*
X100999025Y-55000000D01*
X100981367Y-55179294D01*
X100929069Y-55351695D01*
X100844142Y-55510583D01*
X100729849Y-55649849D01*
X100590583Y-55764142D01*
X100431695Y-55849069D01*
X100259294Y-55901367D01*
X100124931Y-55914600D01*
X100035069Y-55914600D01*
X99900706Y-55901367D01*
X99728305Y-55849069D01*
X99569417Y-55764142D01*
X99430151Y-55649849D01*
X99315858Y-55510583D01*
X99230931Y-55351695D01*
X99178633Y-55179294D01*
X99160975Y-55000000D01*
X99178633Y-54820706D01*
X99230931Y-54648305D01*
X99315858Y-54489417D01*
X99430151Y-54350151D01*
X99569417Y-54235858D01*
X99728305Y-54150931D01*
X99900706Y-54098633D01*
X100035069Y-54085400D01*
X100124931Y-54085400D01*
X100259294Y-54098633D01*
X100259294Y-54098633D01*
G37*
G36*
X105339294Y-54098633D02*
G01*
X105511695Y-54150931D01*
X105670583Y-54235858D01*
X105809849Y-54350151D01*
X105924142Y-54489417D01*
X106009069Y-54648305D01*
X106061367Y-54820706D01*
X106079025Y-55000000D01*
X106061367Y-55179294D01*
X106009069Y-55351695D01*
X105924142Y-55510583D01*
X105809849Y-55649849D01*
X105670583Y-55764142D01*
X105511695Y-55849069D01*
X105339294Y-55901367D01*
X105204931Y-55914600D01*
X105115069Y-55914600D01*
X104980706Y-55901367D01*
X104808305Y-55849069D01*
X104649417Y-55764142D01*
X104510151Y-55649849D01*
X104395858Y-55510583D01*
X104310931Y-55351695D01*
X104258633Y-55179294D01*
X104240975Y-55000000D01*
X104258633Y-54820706D01*
X104310931Y-54648305D01*
X104395858Y-54489417D01*
X104510151Y-54350151D01*
X104649417Y-54235858D01*
X104808305Y-54150931D01*
X104980706Y-54098633D01*
X105115069Y-54085400D01*
X105204931Y-54085400D01*
X105339294Y-54098633D01*
X105339294Y-54098633D01*
G37*
G36*
X102799294Y-54098633D02*
G01*
X102971695Y-54150931D01*
X103130583Y-54235858D01*
X103269849Y-54350151D01*
X103384142Y-54489417D01*
X103469069Y-54648305D01*
X103521367Y-54820706D01*
X103539025Y-55000000D01*
X103521367Y-55179294D01*
X103469069Y-55351695D01*
X103384142Y-55510583D01*
X103269849Y-55649849D01*
X103130583Y-55764142D01*
X102971695Y-55849069D01*
X102799294Y-55901367D01*
X102664931Y-55914600D01*
X102575069Y-55914600D01*
X102440706Y-55901367D01*
X102268305Y-55849069D01*
X102109417Y-55764142D01*
X101970151Y-55649849D01*
X101855858Y-55510583D01*
X101770931Y-55351695D01*
X101718633Y-55179294D01*
X101700975Y-55000000D01*
X101718633Y-54820706D01*
X101770931Y-54648305D01*
X101855858Y-54489417D01*
X101970151Y-54350151D01*
X102109417Y-54235858D01*
X102268305Y-54150931D01*
X102440706Y-54098633D01*
X102575069Y-54085400D01*
X102664931Y-54085400D01*
X102799294Y-54098633D01*
X102799294Y-54098633D01*
G37*
G36*
X84224549Y-52871116D02*
G01*
X84335734Y-52893232D01*
X84545203Y-52979997D01*
X84733720Y-53105960D01*
X84894040Y-53266280D01*
X84957574Y-53361366D01*
X85020004Y-53454799D01*
X85106768Y-53664267D01*
X85151000Y-53886635D01*
X85151000Y-54113365D01*
X85143527Y-54150932D01*
X85106768Y-54335734D01*
X85020003Y-54545203D01*
X84894040Y-54733720D01*
X84733720Y-54894040D01*
X84545203Y-55020003D01*
X84335734Y-55106768D01*
X84224549Y-55128884D01*
X84113365Y-55151000D01*
X83886635Y-55151000D01*
X83775451Y-55128884D01*
X83664266Y-55106768D01*
X83454797Y-55020003D01*
X83266280Y-54894040D01*
X83105960Y-54733720D01*
X82979997Y-54545203D01*
X82893232Y-54335734D01*
X82856473Y-54150932D01*
X82849000Y-54113365D01*
X82849000Y-53886635D01*
X82893232Y-53664267D01*
X82979996Y-53454799D01*
X83042426Y-53361366D01*
X83105960Y-53266280D01*
X83266280Y-53105960D01*
X83454797Y-52979997D01*
X83664266Y-52893232D01*
X83775451Y-52871116D01*
X83886635Y-52849000D01*
X84113365Y-52849000D01*
X84224549Y-52871116D01*
X84224549Y-52871116D01*
G37*
G36*
X176224549Y-52871116D02*
G01*
X176335734Y-52893232D01*
X176545203Y-52979997D01*
X176733720Y-53105960D01*
X176894040Y-53266280D01*
X176957574Y-53361366D01*
X177020004Y-53454799D01*
X177106768Y-53664267D01*
X177151000Y-53886635D01*
X177151000Y-54113365D01*
X177143527Y-54150932D01*
X177106768Y-54335734D01*
X177020003Y-54545203D01*
X176894040Y-54733720D01*
X176733720Y-54894040D01*
X176545203Y-55020003D01*
X176335734Y-55106768D01*
X176224549Y-55128884D01*
X176113365Y-55151000D01*
X175886635Y-55151000D01*
X175775451Y-55128884D01*
X175664266Y-55106768D01*
X175454797Y-55020003D01*
X175266280Y-54894040D01*
X175105960Y-54733720D01*
X174979997Y-54545203D01*
X174893232Y-54335734D01*
X174856473Y-54150932D01*
X174849000Y-54113365D01*
X174849000Y-53886635D01*
X174893232Y-53664267D01*
X174979996Y-53454799D01*
X175042426Y-53361366D01*
X175105960Y-53266280D01*
X175266280Y-53105960D01*
X175454797Y-52979997D01*
X175664266Y-52893232D01*
X175775451Y-52871116D01*
X175886635Y-52849000D01*
X176113365Y-52849000D01*
X176224549Y-52871116D01*
X176224549Y-52871116D01*
G37*
G36*
X121701000Y-54951000D02*
G01*
X119799000Y-54951000D01*
X119799000Y-53049000D01*
X121701000Y-53049000D01*
X121701000Y-54951000D01*
X121701000Y-54951000D01*
G37*
G36*
X142701000Y-54951000D02*
G01*
X140799000Y-54951000D01*
X140799000Y-53049000D01*
X142701000Y-53049000D01*
X142701000Y-54951000D01*
X142701000Y-54951000D01*
G37*
G36*
X139487395Y-53085546D02*
G01*
X139660466Y-53157234D01*
X139660467Y-53157235D01*
X139816227Y-53261310D01*
X139948690Y-53393773D01*
X139948691Y-53393775D01*
X140052766Y-53549534D01*
X140124454Y-53722605D01*
X140161000Y-53906333D01*
X140161000Y-54093667D01*
X140124454Y-54277395D01*
X140052766Y-54450466D01*
X140052765Y-54450467D01*
X139948690Y-54606227D01*
X139816227Y-54738690D01*
X139737818Y-54791081D01*
X139660466Y-54842766D01*
X139487395Y-54914454D01*
X139303667Y-54951000D01*
X139116333Y-54951000D01*
X138932605Y-54914454D01*
X138759534Y-54842766D01*
X138682182Y-54791081D01*
X138603773Y-54738690D01*
X138471310Y-54606227D01*
X138367235Y-54450467D01*
X138367234Y-54450466D01*
X138295546Y-54277395D01*
X138259000Y-54093667D01*
X138259000Y-53906333D01*
X138295546Y-53722605D01*
X138367234Y-53549534D01*
X138471309Y-53393775D01*
X138471310Y-53393773D01*
X138603773Y-53261310D01*
X138759533Y-53157235D01*
X138759534Y-53157234D01*
X138932605Y-53085546D01*
X139116333Y-53049000D01*
X139303667Y-53049000D01*
X139487395Y-53085546D01*
X139487395Y-53085546D01*
G37*
G36*
X135701000Y-54951000D02*
G01*
X133799000Y-54951000D01*
X133799000Y-53049000D01*
X135701000Y-53049000D01*
X135701000Y-54951000D01*
X135701000Y-54951000D01*
G37*
G36*
X132487395Y-53085546D02*
G01*
X132660466Y-53157234D01*
X132660467Y-53157235D01*
X132816227Y-53261310D01*
X132948690Y-53393773D01*
X132948691Y-53393775D01*
X133052766Y-53549534D01*
X133124454Y-53722605D01*
X133161000Y-53906333D01*
X133161000Y-54093667D01*
X133124454Y-54277395D01*
X133052766Y-54450466D01*
X133052765Y-54450467D01*
X132948690Y-54606227D01*
X132816227Y-54738690D01*
X132737818Y-54791081D01*
X132660466Y-54842766D01*
X132487395Y-54914454D01*
X132303667Y-54951000D01*
X132116333Y-54951000D01*
X131932605Y-54914454D01*
X131759534Y-54842766D01*
X131682182Y-54791081D01*
X131603773Y-54738690D01*
X131471310Y-54606227D01*
X131367235Y-54450467D01*
X131367234Y-54450466D01*
X131295546Y-54277395D01*
X131259000Y-54093667D01*
X131259000Y-53906333D01*
X131295546Y-53722605D01*
X131367234Y-53549534D01*
X131471309Y-53393775D01*
X131471310Y-53393773D01*
X131603773Y-53261310D01*
X131759533Y-53157235D01*
X131759534Y-53157234D01*
X131932605Y-53085546D01*
X132116333Y-53049000D01*
X132303667Y-53049000D01*
X132487395Y-53085546D01*
X132487395Y-53085546D01*
G37*
G36*
X128701000Y-54951000D02*
G01*
X126799000Y-54951000D01*
X126799000Y-53049000D01*
X128701000Y-53049000D01*
X128701000Y-54951000D01*
X128701000Y-54951000D01*
G37*
G36*
X125487395Y-53085546D02*
G01*
X125660466Y-53157234D01*
X125660467Y-53157235D01*
X125816227Y-53261310D01*
X125948690Y-53393773D01*
X125948691Y-53393775D01*
X126052766Y-53549534D01*
X126124454Y-53722605D01*
X126161000Y-53906333D01*
X126161000Y-54093667D01*
X126124454Y-54277395D01*
X126052766Y-54450466D01*
X126052765Y-54450467D01*
X125948690Y-54606227D01*
X125816227Y-54738690D01*
X125737818Y-54791081D01*
X125660466Y-54842766D01*
X125487395Y-54914454D01*
X125303667Y-54951000D01*
X125116333Y-54951000D01*
X124932605Y-54914454D01*
X124759534Y-54842766D01*
X124682182Y-54791081D01*
X124603773Y-54738690D01*
X124471310Y-54606227D01*
X124367235Y-54450467D01*
X124367234Y-54450466D01*
X124295546Y-54277395D01*
X124259000Y-54093667D01*
X124259000Y-53906333D01*
X124295546Y-53722605D01*
X124367234Y-53549534D01*
X124471309Y-53393775D01*
X124471310Y-53393773D01*
X124603773Y-53261310D01*
X124759533Y-53157235D01*
X124759534Y-53157234D01*
X124932605Y-53085546D01*
X125116333Y-53049000D01*
X125303667Y-53049000D01*
X125487395Y-53085546D01*
X125487395Y-53085546D01*
G37*
G36*
X118487395Y-53085546D02*
G01*
X118660466Y-53157234D01*
X118660467Y-53157235D01*
X118816227Y-53261310D01*
X118948690Y-53393773D01*
X118948691Y-53393775D01*
X119052766Y-53549534D01*
X119124454Y-53722605D01*
X119161000Y-53906333D01*
X119161000Y-54093667D01*
X119124454Y-54277395D01*
X119052766Y-54450466D01*
X119052765Y-54450467D01*
X118948690Y-54606227D01*
X118816227Y-54738690D01*
X118737818Y-54791081D01*
X118660466Y-54842766D01*
X118487395Y-54914454D01*
X118303667Y-54951000D01*
X118116333Y-54951000D01*
X117932605Y-54914454D01*
X117759534Y-54842766D01*
X117682182Y-54791081D01*
X117603773Y-54738690D01*
X117471310Y-54606227D01*
X117367235Y-54450467D01*
X117367234Y-54450466D01*
X117295546Y-54277395D01*
X117259000Y-54093667D01*
X117259000Y-53906333D01*
X117295546Y-53722605D01*
X117367234Y-53549534D01*
X117471309Y-53393775D01*
X117471310Y-53393773D01*
X117603773Y-53261310D01*
X117759533Y-53157235D01*
X117759534Y-53157234D01*
X117932605Y-53085546D01*
X118116333Y-53049000D01*
X118303667Y-53049000D01*
X118487395Y-53085546D01*
X118487395Y-53085546D01*
G37*
G36*
X100259294Y-51558633D02*
G01*
X100431695Y-51610931D01*
X100590583Y-51695858D01*
X100729849Y-51810151D01*
X100844142Y-51949417D01*
X100929069Y-52108305D01*
X100981367Y-52280706D01*
X100999025Y-52460000D01*
X100981367Y-52639294D01*
X100929069Y-52811695D01*
X100844142Y-52970583D01*
X100729849Y-53109849D01*
X100590583Y-53224142D01*
X100431695Y-53309069D01*
X100259294Y-53361367D01*
X100124931Y-53374600D01*
X100035069Y-53374600D01*
X99900706Y-53361367D01*
X99728305Y-53309069D01*
X99569417Y-53224142D01*
X99430151Y-53109849D01*
X99315858Y-52970583D01*
X99230931Y-52811695D01*
X99178633Y-52639294D01*
X99160975Y-52460000D01*
X99178633Y-52280706D01*
X99230931Y-52108305D01*
X99315858Y-51949417D01*
X99430151Y-51810151D01*
X99569417Y-51695858D01*
X99728305Y-51610931D01*
X99900706Y-51558633D01*
X100035069Y-51545400D01*
X100124931Y-51545400D01*
X100259294Y-51558633D01*
X100259294Y-51558633D01*
G37*
G36*
X95179294Y-51558633D02*
G01*
X95351695Y-51610931D01*
X95510583Y-51695858D01*
X95649849Y-51810151D01*
X95764142Y-51949417D01*
X95849069Y-52108305D01*
X95901367Y-52280706D01*
X95919025Y-52460000D01*
X95901367Y-52639294D01*
X95849069Y-52811695D01*
X95764142Y-52970583D01*
X95649849Y-53109849D01*
X95510583Y-53224142D01*
X95351695Y-53309069D01*
X95179294Y-53361367D01*
X95044931Y-53374600D01*
X94955069Y-53374600D01*
X94820706Y-53361367D01*
X94648305Y-53309069D01*
X94489417Y-53224142D01*
X94350151Y-53109849D01*
X94235858Y-52970583D01*
X94150931Y-52811695D01*
X94098633Y-52639294D01*
X94080975Y-52460000D01*
X94098633Y-52280706D01*
X94150931Y-52108305D01*
X94235858Y-51949417D01*
X94350151Y-51810151D01*
X94489417Y-51695858D01*
X94648305Y-51610931D01*
X94820706Y-51558633D01*
X94955069Y-51545400D01*
X95044931Y-51545400D01*
X95179294Y-51558633D01*
X95179294Y-51558633D01*
G37*
G36*
X97719294Y-51558633D02*
G01*
X97891695Y-51610931D01*
X98050583Y-51695858D01*
X98189849Y-51810151D01*
X98304142Y-51949417D01*
X98389069Y-52108305D01*
X98441367Y-52280706D01*
X98459025Y-52460000D01*
X98441367Y-52639294D01*
X98389069Y-52811695D01*
X98304142Y-52970583D01*
X98189849Y-53109849D01*
X98050583Y-53224142D01*
X97891695Y-53309069D01*
X97719294Y-53361367D01*
X97584931Y-53374600D01*
X97495069Y-53374600D01*
X97360706Y-53361367D01*
X97188305Y-53309069D01*
X97029417Y-53224142D01*
X96890151Y-53109849D01*
X96775858Y-52970583D01*
X96690931Y-52811695D01*
X96638633Y-52639294D01*
X96620975Y-52460000D01*
X96638633Y-52280706D01*
X96690931Y-52108305D01*
X96775858Y-51949417D01*
X96890151Y-51810151D01*
X97029417Y-51695858D01*
X97188305Y-51610931D01*
X97360706Y-51558633D01*
X97495069Y-51545400D01*
X97584931Y-51545400D01*
X97719294Y-51558633D01*
X97719294Y-51558633D01*
G37*
G36*
X102799294Y-51558633D02*
G01*
X102971695Y-51610931D01*
X103130583Y-51695858D01*
X103269849Y-51810151D01*
X103384142Y-51949417D01*
X103469069Y-52108305D01*
X103521367Y-52280706D01*
X103539025Y-52460000D01*
X103521367Y-52639294D01*
X103469069Y-52811695D01*
X103384142Y-52970583D01*
X103269849Y-53109849D01*
X103130583Y-53224142D01*
X102971695Y-53309069D01*
X102799294Y-53361367D01*
X102664931Y-53374600D01*
X102575069Y-53374600D01*
X102440706Y-53361367D01*
X102268305Y-53309069D01*
X102109417Y-53224142D01*
X101970151Y-53109849D01*
X101855858Y-52970583D01*
X101770931Y-52811695D01*
X101718633Y-52639294D01*
X101700975Y-52460000D01*
X101718633Y-52280706D01*
X101770931Y-52108305D01*
X101855858Y-51949417D01*
X101970151Y-51810151D01*
X102109417Y-51695858D01*
X102268305Y-51610931D01*
X102440706Y-51558633D01*
X102575069Y-51545400D01*
X102664931Y-51545400D01*
X102799294Y-51558633D01*
X102799294Y-51558633D01*
G37*
G36*
X105339294Y-51558633D02*
G01*
X105511695Y-51610931D01*
X105670583Y-51695858D01*
X105809849Y-51810151D01*
X105924142Y-51949417D01*
X106009069Y-52108305D01*
X106061367Y-52280706D01*
X106079025Y-52460000D01*
X106061367Y-52639294D01*
X106009069Y-52811695D01*
X105924142Y-52970583D01*
X105809849Y-53109849D01*
X105670583Y-53224142D01*
X105511695Y-53309069D01*
X105339294Y-53361367D01*
X105204931Y-53374600D01*
X105115069Y-53374600D01*
X104980706Y-53361367D01*
X104808305Y-53309069D01*
X104649417Y-53224142D01*
X104510151Y-53109849D01*
X104395858Y-52970583D01*
X104310931Y-52811695D01*
X104258633Y-52639294D01*
X104240975Y-52460000D01*
X104258633Y-52280706D01*
X104310931Y-52108305D01*
X104395858Y-51949417D01*
X104510151Y-51810151D01*
X104649417Y-51695858D01*
X104808305Y-51610931D01*
X104980706Y-51558633D01*
X105115069Y-51545400D01*
X105204931Y-51545400D01*
X105339294Y-51558633D01*
X105339294Y-51558633D01*
G37*
M02*
