G04 #@! TF.GenerationSoftware,KiCad,Pcbnew,(5.1.2)-1*
G04 #@! TF.CreationDate,2019-05-18T22:17:39-04:00*
G04 #@! TF.ProjectId,Simon Says Game,53696d6f-6e20-4536-9179-732047616d65,rev?*
G04 #@! TF.SameCoordinates,Original*
G04 #@! TF.FileFunction,Copper,L1,Top*
G04 #@! TF.FilePolarity,Positive*
%FSLAX46Y46*%
G04 Gerber Fmt 4.6, Leading zero omitted, Abs format (unit mm)*
G04 Created by KiCad (PCBNEW (5.1.2)-1) date 2019-05-18 22:17:39*
%MOMM*%
%LPD*%
G04 APERTURE LIST*
%ADD10R,1.727200X1.727200*%
%ADD11O,1.727200X1.727200*%
%ADD12C,2.000000*%
%ADD13R,2.000000X2.000000*%
%ADD14C,1.500000*%
%ADD15C,1.750000*%
%ADD16O,1.600000X1.600000*%
%ADD17R,1.600000X1.600000*%
%ADD18C,1.600000*%
%ADD19O,2.200000X2.200000*%
%ADD20R,2.200000X2.200000*%
%ADD21C,1.800000*%
%ADD22R,1.800000X1.800000*%
%ADD23C,0.800000*%
%ADD24C,0.250000*%
%ADD25C,0.254000*%
G04 APERTURE END LIST*
D10*
X95000000Y-55000000D03*
D11*
X95000000Y-52460000D03*
X97540000Y-55000000D03*
X97540000Y-52460000D03*
X100080000Y-55000000D03*
X100080000Y-52460000D03*
X102620000Y-55000000D03*
X102620000Y-52460000D03*
X105160000Y-55000000D03*
X105160000Y-52460000D03*
D12*
X95000000Y-101200000D03*
D13*
X95000000Y-88500000D03*
D14*
X167000000Y-94250000D03*
X169000000Y-94250000D03*
D15*
X83000000Y-85000000D03*
X83000000Y-93000000D03*
D14*
X83000000Y-91000000D03*
X83000000Y-87000000D03*
X83000000Y-89000000D03*
X157880000Y-73000000D03*
X153000000Y-73000000D03*
D16*
X162620000Y-85000000D03*
X155000000Y-92620000D03*
X162620000Y-87540000D03*
X155000000Y-90080000D03*
X162620000Y-90080000D03*
X155000000Y-87540000D03*
X162620000Y-92620000D03*
D17*
X155000000Y-85000000D03*
D16*
X146000000Y-77620000D03*
X112980000Y-70000000D03*
X143460000Y-77620000D03*
X115520000Y-70000000D03*
X140920000Y-77620000D03*
X118060000Y-70000000D03*
X138380000Y-77620000D03*
X120600000Y-70000000D03*
X135840000Y-77620000D03*
X123140000Y-70000000D03*
X133300000Y-77620000D03*
X125680000Y-70000000D03*
X130760000Y-77620000D03*
X128220000Y-70000000D03*
X128220000Y-77620000D03*
X130760000Y-70000000D03*
X125680000Y-77620000D03*
X133300000Y-70000000D03*
X123140000Y-77620000D03*
X135840000Y-70000000D03*
X120600000Y-77620000D03*
X138380000Y-70000000D03*
X118060000Y-77620000D03*
X140920000Y-70000000D03*
X115520000Y-77620000D03*
X143460000Y-70000000D03*
X112980000Y-77620000D03*
D17*
X146000000Y-70000000D03*
D12*
X170500000Y-59250000D03*
X170500000Y-63750000D03*
X164000000Y-59250000D03*
X164000000Y-63750000D03*
X158500000Y-59250000D03*
X158500000Y-63750000D03*
X152000000Y-59250000D03*
X152000000Y-63750000D03*
X101500000Y-64000000D03*
X101500000Y-59500000D03*
X108000000Y-64000000D03*
X108000000Y-59500000D03*
X89500000Y-64000000D03*
X89500000Y-59500000D03*
X96000000Y-64000000D03*
X96000000Y-59500000D03*
D16*
X150250000Y-95120000D03*
D18*
X150250000Y-87500000D03*
X137250000Y-66250000D03*
D16*
X137250000Y-58630000D03*
X144250000Y-58630000D03*
D18*
X144250000Y-66250000D03*
X115750000Y-66000000D03*
D16*
X115750000Y-58380000D03*
X98000000Y-71380000D03*
D18*
X98000000Y-79000000D03*
X122750000Y-66000000D03*
D16*
X122750000Y-58380000D03*
X165000000Y-79620000D03*
D18*
X165000000Y-72000000D03*
D19*
X165620000Y-99000000D03*
D20*
X158000000Y-99000000D03*
D21*
X139210000Y-54000000D03*
D22*
X141750000Y-54000000D03*
D21*
X132210000Y-54000000D03*
D22*
X134750000Y-54000000D03*
D21*
X125210000Y-54000000D03*
D22*
X127750000Y-54000000D03*
D21*
X118210000Y-54000000D03*
D22*
X120750000Y-54000000D03*
D18*
X154750000Y-99000000D03*
X149750000Y-99000000D03*
X167000000Y-85000000D03*
X167000000Y-90000000D03*
X173750000Y-96250000D03*
D17*
X173750000Y-98750000D03*
D18*
X174000000Y-88250000D03*
D17*
X174000000Y-90750000D03*
D18*
X175000000Y-79000000D03*
X170000000Y-79000000D03*
X175000000Y-73000000D03*
X170000000Y-73000000D03*
D12*
X89000000Y-72000000D03*
D13*
X89000000Y-77000000D03*
D23*
X135295002Y-74750000D03*
X104250000Y-69164213D03*
D24*
X94500000Y-89000000D02*
X95000000Y-88500000D01*
X83000000Y-89000000D02*
X94500000Y-89000000D01*
X89000000Y-75750000D02*
X89000000Y-77000000D01*
X93370000Y-71380000D02*
X89000000Y-75750000D01*
X98000000Y-71380000D02*
X93370000Y-71380000D01*
X98000000Y-59113600D02*
X98000000Y-71380000D01*
X95000000Y-56113600D02*
X98000000Y-59113600D01*
X95000000Y-55000000D02*
X95000000Y-56113600D01*
X126479999Y-70799999D02*
X125680000Y-70000000D01*
X126805001Y-71125001D02*
X126479999Y-70799999D01*
X154944341Y-71125001D02*
X126805001Y-71125001D01*
X156819340Y-73000000D02*
X154944341Y-71125001D01*
X157880000Y-73000000D02*
X156819340Y-73000000D01*
X164000000Y-73000000D02*
X165000000Y-72000000D01*
X157880000Y-73000000D02*
X164000000Y-73000000D01*
X169000000Y-72000000D02*
X170000000Y-73000000D01*
X165000000Y-72000000D02*
X169000000Y-72000000D01*
X126140000Y-73000000D02*
X123140000Y-70000000D01*
X153000000Y-73000000D02*
X126140000Y-73000000D01*
X169380000Y-79620000D02*
X170000000Y-79000000D01*
X165000000Y-79620000D02*
X169380000Y-79620000D01*
X154075001Y-74075001D02*
X153000000Y-73000000D01*
X159455001Y-74075001D02*
X154075001Y-74075001D01*
X165000000Y-79620000D02*
X159455001Y-74075001D01*
X161820001Y-89280001D02*
X162620000Y-90080000D01*
X156290000Y-83750000D02*
X161820001Y-89280001D01*
X86250000Y-83750000D02*
X156290000Y-83750000D01*
X83000000Y-87000000D02*
X86250000Y-83750000D01*
X162700000Y-90000000D02*
X162620000Y-90080000D01*
X167000000Y-90000000D02*
X162700000Y-90000000D01*
X169000000Y-92000000D02*
X167000000Y-90000000D01*
X169000000Y-94250000D02*
X169000000Y-92000000D01*
X174000000Y-91800000D02*
X174000000Y-90750000D01*
X171550000Y-94250000D02*
X174000000Y-91800000D01*
X169000000Y-94250000D02*
X171550000Y-94250000D01*
X149750000Y-95620000D02*
X150250000Y-95120000D01*
X149750000Y-99000000D02*
X149750000Y-95620000D01*
X117310001Y-54899999D02*
X118210000Y-54000000D01*
X118210000Y-54000000D02*
X116105000Y-56105000D01*
X116021399Y-56188601D02*
X116105000Y-56105000D01*
X116105000Y-56105000D02*
X116230000Y-55980000D01*
X98403599Y-55863599D02*
X97540000Y-55000000D01*
X98728601Y-56188601D02*
X98403599Y-55863599D01*
X105730529Y-56188601D02*
X98728601Y-56188601D01*
X105814130Y-56105000D02*
X105730529Y-56188601D01*
X116105000Y-56105000D02*
X105814130Y-56105000D01*
X125210000Y-54000000D02*
X123210000Y-56000000D01*
X118130000Y-56000000D02*
X115750000Y-58380000D01*
X123210000Y-56000000D02*
X118130000Y-56000000D01*
X133109999Y-54899999D02*
X132210000Y-54000000D01*
X133435001Y-55225001D02*
X133109999Y-54899999D01*
X140845001Y-55225001D02*
X133435001Y-55225001D01*
X144250000Y-58630000D02*
X140845001Y-55225001D01*
X131310001Y-53100001D02*
X132210000Y-54000000D01*
X130984999Y-52774999D02*
X131310001Y-53100001D01*
X117621999Y-52774999D02*
X130984999Y-52774999D01*
X116585599Y-53811399D02*
X117621999Y-52774999D01*
X103808601Y-53811399D02*
X116585599Y-53811399D01*
X102620000Y-55000000D02*
X103808601Y-53811399D01*
X99380000Y-77620000D02*
X98000000Y-79000000D01*
X112980000Y-77620000D02*
X99380000Y-77620000D01*
X134099999Y-69200001D02*
X133300000Y-70000000D01*
X134425001Y-68874999D02*
X134099999Y-69200001D01*
X140493631Y-68874999D02*
X134425001Y-68874999D01*
X143118630Y-66250000D02*
X140493631Y-68874999D01*
X144250000Y-66250000D02*
X143118630Y-66250000D01*
X124350000Y-66250000D02*
X120600000Y-70000000D01*
X137250000Y-66250000D02*
X124350000Y-66250000D01*
X154960000Y-87500000D02*
X155000000Y-87540000D01*
X150250000Y-87500000D02*
X154960000Y-87500000D01*
X122810000Y-74750000D02*
X118060000Y-70000000D01*
X135295002Y-74750000D02*
X122810000Y-74750000D01*
X116319999Y-69200001D02*
X115520000Y-70000000D01*
X120645001Y-64874999D02*
X116319999Y-69200001D01*
X144960788Y-64874999D02*
X120645001Y-64874999D01*
X150585787Y-59250000D02*
X144960788Y-64874999D01*
X152000000Y-59250000D02*
X150585787Y-59250000D01*
X96676401Y-53323599D02*
X97540000Y-52460000D01*
X96351399Y-53648601D02*
X96676401Y-53323599D01*
X96351399Y-56828589D02*
X96351399Y-53648601D01*
X99022810Y-59500000D02*
X96351399Y-56828589D01*
X101500000Y-59500000D02*
X99022810Y-59500000D01*
X108000000Y-59500000D02*
X101500000Y-59500000D01*
X112980000Y-64480000D02*
X112980000Y-70000000D01*
X108000000Y-59500000D02*
X112980000Y-64480000D01*
X89500000Y-59500000D02*
X96000000Y-59500000D01*
X96000000Y-59500000D02*
X93250000Y-56750000D01*
X93250000Y-54210000D02*
X95000000Y-52460000D01*
X93250000Y-56750000D02*
X93250000Y-54210000D01*
X119800001Y-76820001D02*
X120600000Y-77620000D01*
X119474999Y-76494999D02*
X119800001Y-76820001D01*
X117809997Y-76494999D02*
X119474999Y-76494999D01*
X110479211Y-69164213D02*
X117809997Y-76494999D01*
X104250000Y-69164213D02*
X110479211Y-69164213D01*
D25*
G36*
X175768083Y-50731173D02*
G01*
X176511891Y-50934656D01*
X177207905Y-51266638D01*
X177834130Y-51716626D01*
X178370777Y-52270403D01*
X178800871Y-52910451D01*
X179110829Y-53616553D01*
X179292065Y-54371457D01*
X179340000Y-55024207D01*
X179340001Y-94967572D01*
X179340000Y-94967582D01*
X179340001Y-104970597D01*
X179268827Y-105768083D01*
X179065344Y-106511890D01*
X178733363Y-107207904D01*
X178283374Y-107834130D01*
X177729597Y-108370777D01*
X177089549Y-108800871D01*
X176383447Y-109110829D01*
X175628543Y-109292065D01*
X174975793Y-109340000D01*
X85029392Y-109340000D01*
X84231917Y-109268827D01*
X83488110Y-109065344D01*
X82792096Y-108733363D01*
X82165870Y-108283374D01*
X81629223Y-107729597D01*
X81199129Y-107089549D01*
X80889171Y-106383447D01*
X80756089Y-105829117D01*
X82265000Y-105829117D01*
X82265000Y-106170883D01*
X82331675Y-106506081D01*
X82462463Y-106821831D01*
X82652337Y-107105998D01*
X82894002Y-107347663D01*
X83178169Y-107537537D01*
X83493919Y-107668325D01*
X83829117Y-107735000D01*
X84170883Y-107735000D01*
X84506081Y-107668325D01*
X84821831Y-107537537D01*
X85105998Y-107347663D01*
X85347663Y-107105998D01*
X85537537Y-106821831D01*
X85668325Y-106506081D01*
X85735000Y-106170883D01*
X85735000Y-105829117D01*
X174265000Y-105829117D01*
X174265000Y-106170883D01*
X174331675Y-106506081D01*
X174462463Y-106821831D01*
X174652337Y-107105998D01*
X174894002Y-107347663D01*
X175178169Y-107537537D01*
X175493919Y-107668325D01*
X175829117Y-107735000D01*
X176170883Y-107735000D01*
X176506081Y-107668325D01*
X176821831Y-107537537D01*
X177105998Y-107347663D01*
X177347663Y-107105998D01*
X177537537Y-106821831D01*
X177668325Y-106506081D01*
X177735000Y-106170883D01*
X177735000Y-105829117D01*
X177668325Y-105493919D01*
X177537537Y-105178169D01*
X177347663Y-104894002D01*
X177105998Y-104652337D01*
X176821831Y-104462463D01*
X176506081Y-104331675D01*
X176170883Y-104265000D01*
X175829117Y-104265000D01*
X175493919Y-104331675D01*
X175178169Y-104462463D01*
X174894002Y-104652337D01*
X174652337Y-104894002D01*
X174462463Y-105178169D01*
X174331675Y-105493919D01*
X174265000Y-105829117D01*
X85735000Y-105829117D01*
X85668325Y-105493919D01*
X85537537Y-105178169D01*
X85347663Y-104894002D01*
X85105998Y-104652337D01*
X84821831Y-104462463D01*
X84506081Y-104331675D01*
X84170883Y-104265000D01*
X83829117Y-104265000D01*
X83493919Y-104331675D01*
X83178169Y-104462463D01*
X82894002Y-104652337D01*
X82652337Y-104894002D01*
X82462463Y-105178169D01*
X82331675Y-105493919D01*
X82265000Y-105829117D01*
X80756089Y-105829117D01*
X80707935Y-105628543D01*
X80660000Y-104975793D01*
X80660000Y-102335413D01*
X94044192Y-102335413D01*
X94139956Y-102599814D01*
X94429571Y-102740704D01*
X94741108Y-102822384D01*
X95062595Y-102841718D01*
X95381675Y-102797961D01*
X95686088Y-102692795D01*
X95860044Y-102599814D01*
X95955808Y-102335413D01*
X95000000Y-101379605D01*
X94044192Y-102335413D01*
X80660000Y-102335413D01*
X80660000Y-101262595D01*
X93358282Y-101262595D01*
X93402039Y-101581675D01*
X93507205Y-101886088D01*
X93600186Y-102060044D01*
X93864587Y-102155808D01*
X94820395Y-101200000D01*
X95179605Y-101200000D01*
X96135413Y-102155808D01*
X96399814Y-102060044D01*
X96540704Y-101770429D01*
X96622384Y-101458892D01*
X96641718Y-101137405D01*
X96597961Y-100818325D01*
X96492795Y-100513912D01*
X96399814Y-100339956D01*
X96135413Y-100244192D01*
X95179605Y-101200000D01*
X94820395Y-101200000D01*
X93864587Y-100244192D01*
X93600186Y-100339956D01*
X93459296Y-100629571D01*
X93377616Y-100941108D01*
X93358282Y-101262595D01*
X80660000Y-101262595D01*
X80660000Y-100064587D01*
X94044192Y-100064587D01*
X95000000Y-101020395D01*
X95955808Y-100064587D01*
X95860044Y-99800186D01*
X95570429Y-99659296D01*
X95258892Y-99577616D01*
X94937405Y-99558282D01*
X94618325Y-99602039D01*
X94313912Y-99707205D01*
X94139956Y-99800186D01*
X94044192Y-100064587D01*
X80660000Y-100064587D01*
X80660000Y-96967560D01*
X131250000Y-96967560D01*
X131250000Y-97432440D01*
X131340694Y-97888387D01*
X131518595Y-98317879D01*
X131776868Y-98704412D01*
X132105588Y-99033132D01*
X132492121Y-99291405D01*
X132921613Y-99469306D01*
X133377560Y-99560000D01*
X133842440Y-99560000D01*
X134298387Y-99469306D01*
X134727879Y-99291405D01*
X135114412Y-99033132D01*
X135288879Y-98858665D01*
X148315000Y-98858665D01*
X148315000Y-99141335D01*
X148370147Y-99418574D01*
X148478320Y-99679727D01*
X148635363Y-99914759D01*
X148835241Y-100114637D01*
X149070273Y-100271680D01*
X149331426Y-100379853D01*
X149608665Y-100435000D01*
X149891335Y-100435000D01*
X150168574Y-100379853D01*
X150429727Y-100271680D01*
X150664759Y-100114637D01*
X150786694Y-99992702D01*
X153936903Y-99992702D01*
X154008486Y-100236671D01*
X154263996Y-100357571D01*
X154538184Y-100426300D01*
X154820512Y-100440217D01*
X155100130Y-100398787D01*
X155366292Y-100303603D01*
X155491514Y-100236671D01*
X155563097Y-99992702D01*
X154750000Y-99179605D01*
X153936903Y-99992702D01*
X150786694Y-99992702D01*
X150864637Y-99914759D01*
X151021680Y-99679727D01*
X151129853Y-99418574D01*
X151185000Y-99141335D01*
X151185000Y-99070512D01*
X153309783Y-99070512D01*
X153351213Y-99350130D01*
X153446397Y-99616292D01*
X153513329Y-99741514D01*
X153757298Y-99813097D01*
X154570395Y-99000000D01*
X154929605Y-99000000D01*
X155742702Y-99813097D01*
X155986671Y-99741514D01*
X156107571Y-99486004D01*
X156176300Y-99211816D01*
X156190217Y-98929488D01*
X156148787Y-98649870D01*
X156053603Y-98383708D01*
X155986671Y-98258486D01*
X155742702Y-98186903D01*
X154929605Y-99000000D01*
X154570395Y-99000000D01*
X153757298Y-98186903D01*
X153513329Y-98258486D01*
X153392429Y-98513996D01*
X153323700Y-98788184D01*
X153309783Y-99070512D01*
X151185000Y-99070512D01*
X151185000Y-98858665D01*
X151129853Y-98581426D01*
X151021680Y-98320273D01*
X150864637Y-98085241D01*
X150786694Y-98007298D01*
X153936903Y-98007298D01*
X154750000Y-98820395D01*
X155563097Y-98007298D01*
X155531615Y-97900000D01*
X156261928Y-97900000D01*
X156261928Y-100100000D01*
X156274188Y-100224482D01*
X156310498Y-100344180D01*
X156369463Y-100454494D01*
X156448815Y-100551185D01*
X156545506Y-100630537D01*
X156655820Y-100689502D01*
X156775518Y-100725812D01*
X156900000Y-100738072D01*
X159100000Y-100738072D01*
X159224482Y-100725812D01*
X159344180Y-100689502D01*
X159454494Y-100630537D01*
X159551185Y-100551185D01*
X159630537Y-100454494D01*
X159689502Y-100344180D01*
X159725812Y-100224482D01*
X159738072Y-100100000D01*
X159738072Y-99000000D01*
X163876606Y-99000000D01*
X163910105Y-99340119D01*
X164009314Y-99667168D01*
X164170421Y-99968578D01*
X164387234Y-100232766D01*
X164651422Y-100449579D01*
X164952832Y-100610686D01*
X165279881Y-100709895D01*
X165534775Y-100735000D01*
X165705225Y-100735000D01*
X165960119Y-100709895D01*
X166287168Y-100610686D01*
X166588578Y-100449579D01*
X166852766Y-100232766D01*
X167069579Y-99968578D01*
X167230686Y-99667168D01*
X167329895Y-99340119D01*
X167363394Y-99000000D01*
X167329895Y-98659881D01*
X167230686Y-98332832D01*
X167069579Y-98031422D01*
X167002758Y-97950000D01*
X172311928Y-97950000D01*
X172311928Y-99550000D01*
X172324188Y-99674482D01*
X172360498Y-99794180D01*
X172419463Y-99904494D01*
X172498815Y-100001185D01*
X172595506Y-100080537D01*
X172705820Y-100139502D01*
X172825518Y-100175812D01*
X172950000Y-100188072D01*
X174550000Y-100188072D01*
X174674482Y-100175812D01*
X174794180Y-100139502D01*
X174904494Y-100080537D01*
X175001185Y-100001185D01*
X175080537Y-99904494D01*
X175139502Y-99794180D01*
X175175812Y-99674482D01*
X175188072Y-99550000D01*
X175188072Y-97950000D01*
X175175812Y-97825518D01*
X175139502Y-97705820D01*
X175080537Y-97595506D01*
X175001185Y-97498815D01*
X174904494Y-97419463D01*
X174794180Y-97360498D01*
X174674482Y-97324188D01*
X174550000Y-97311928D01*
X174542785Y-97311928D01*
X174563097Y-97242702D01*
X173750000Y-96429605D01*
X172936903Y-97242702D01*
X172957215Y-97311928D01*
X172950000Y-97311928D01*
X172825518Y-97324188D01*
X172705820Y-97360498D01*
X172595506Y-97419463D01*
X172498815Y-97498815D01*
X172419463Y-97595506D01*
X172360498Y-97705820D01*
X172324188Y-97825518D01*
X172311928Y-97950000D01*
X167002758Y-97950000D01*
X166852766Y-97767234D01*
X166588578Y-97550421D01*
X166287168Y-97389314D01*
X165960119Y-97290105D01*
X165705225Y-97265000D01*
X165534775Y-97265000D01*
X165279881Y-97290105D01*
X164952832Y-97389314D01*
X164651422Y-97550421D01*
X164387234Y-97767234D01*
X164170421Y-98031422D01*
X164009314Y-98332832D01*
X163910105Y-98659881D01*
X163876606Y-99000000D01*
X159738072Y-99000000D01*
X159738072Y-97900000D01*
X159725812Y-97775518D01*
X159689502Y-97655820D01*
X159630537Y-97545506D01*
X159551185Y-97448815D01*
X159454494Y-97369463D01*
X159344180Y-97310498D01*
X159224482Y-97274188D01*
X159100000Y-97261928D01*
X156900000Y-97261928D01*
X156775518Y-97274188D01*
X156655820Y-97310498D01*
X156545506Y-97369463D01*
X156448815Y-97448815D01*
X156369463Y-97545506D01*
X156310498Y-97655820D01*
X156274188Y-97775518D01*
X156261928Y-97900000D01*
X155531615Y-97900000D01*
X155491514Y-97763329D01*
X155236004Y-97642429D01*
X154961816Y-97573700D01*
X154679488Y-97559783D01*
X154399870Y-97601213D01*
X154133708Y-97696397D01*
X154008486Y-97763329D01*
X153936903Y-98007298D01*
X150786694Y-98007298D01*
X150664759Y-97885363D01*
X150510000Y-97781957D01*
X150510000Y-96536335D01*
X150531309Y-96534236D01*
X150801808Y-96452182D01*
X151048145Y-96320512D01*
X172309783Y-96320512D01*
X172351213Y-96600130D01*
X172446397Y-96866292D01*
X172513329Y-96991514D01*
X172757298Y-97063097D01*
X173570395Y-96250000D01*
X173929605Y-96250000D01*
X174742702Y-97063097D01*
X174986671Y-96991514D01*
X175107571Y-96736004D01*
X175176300Y-96461816D01*
X175190217Y-96179488D01*
X175148787Y-95899870D01*
X175053603Y-95633708D01*
X174986671Y-95508486D01*
X174742702Y-95436903D01*
X173929605Y-96250000D01*
X173570395Y-96250000D01*
X172757298Y-95436903D01*
X172513329Y-95508486D01*
X172392429Y-95763996D01*
X172323700Y-96038184D01*
X172309783Y-96320512D01*
X151048145Y-96320512D01*
X151051101Y-96318932D01*
X151269608Y-96139608D01*
X151448932Y-95921101D01*
X151582182Y-95671808D01*
X151664236Y-95401309D01*
X151691943Y-95120000D01*
X151664236Y-94838691D01*
X151582182Y-94568192D01*
X151448932Y-94318899D01*
X151269608Y-94100392D01*
X151051101Y-93921068D01*
X150801808Y-93787818D01*
X150531309Y-93705764D01*
X150320492Y-93685000D01*
X150179508Y-93685000D01*
X149968691Y-93705764D01*
X149698192Y-93787818D01*
X149448899Y-93921068D01*
X149230392Y-94100392D01*
X149051068Y-94318899D01*
X148917818Y-94568192D01*
X148835764Y-94838691D01*
X148808057Y-95120000D01*
X148835764Y-95401309D01*
X148917818Y-95671808D01*
X148990001Y-95806853D01*
X148990000Y-97781956D01*
X148835241Y-97885363D01*
X148635363Y-98085241D01*
X148478320Y-98320273D01*
X148370147Y-98581426D01*
X148315000Y-98858665D01*
X135288879Y-98858665D01*
X135443132Y-98704412D01*
X135701405Y-98317879D01*
X135879306Y-97888387D01*
X135970000Y-97432440D01*
X135970000Y-96967560D01*
X135879306Y-96511613D01*
X135701405Y-96082121D01*
X135443132Y-95695588D01*
X135114412Y-95366868D01*
X134727879Y-95108595D01*
X134298387Y-94930694D01*
X133842440Y-94840000D01*
X133377560Y-94840000D01*
X132921613Y-94930694D01*
X132492121Y-95108595D01*
X132105588Y-95366868D01*
X131776868Y-95695588D01*
X131518595Y-96082121D01*
X131340694Y-96511613D01*
X131250000Y-96967560D01*
X80660000Y-96967560D01*
X80660000Y-84851278D01*
X81490000Y-84851278D01*
X81490000Y-85148722D01*
X81548029Y-85440451D01*
X81661856Y-85715253D01*
X81827107Y-85962569D01*
X81952927Y-86088389D01*
X81924201Y-86117114D01*
X81772629Y-86343957D01*
X81668225Y-86596011D01*
X81615000Y-86863589D01*
X81615000Y-87136411D01*
X81668225Y-87403989D01*
X81772629Y-87656043D01*
X81924201Y-87882886D01*
X82041315Y-88000000D01*
X81924201Y-88117114D01*
X81772629Y-88343957D01*
X81668225Y-88596011D01*
X81615000Y-88863589D01*
X81615000Y-89136411D01*
X81668225Y-89403989D01*
X81772629Y-89656043D01*
X81924201Y-89882886D01*
X82041315Y-90000000D01*
X81924201Y-90117114D01*
X81772629Y-90343957D01*
X81668225Y-90596011D01*
X81615000Y-90863589D01*
X81615000Y-91136411D01*
X81668225Y-91403989D01*
X81772629Y-91656043D01*
X81924201Y-91882886D01*
X81952927Y-91911612D01*
X81827107Y-92037431D01*
X81661856Y-92284747D01*
X81548029Y-92559549D01*
X81490000Y-92851278D01*
X81490000Y-93148722D01*
X81548029Y-93440451D01*
X81661856Y-93715253D01*
X81827107Y-93962569D01*
X82037431Y-94172893D01*
X82284747Y-94338144D01*
X82559549Y-94451971D01*
X82851278Y-94510000D01*
X83148722Y-94510000D01*
X83440451Y-94451971D01*
X83715253Y-94338144D01*
X83962569Y-94172893D01*
X84172893Y-93962569D01*
X84338144Y-93715253D01*
X84451971Y-93440451D01*
X84510000Y-93148722D01*
X84510000Y-92851278D01*
X84451971Y-92559549D01*
X84338144Y-92284747D01*
X84326661Y-92267560D01*
X101280000Y-92267560D01*
X101280000Y-92732440D01*
X101370694Y-93188387D01*
X101548595Y-93617879D01*
X101806868Y-94004412D01*
X102135588Y-94333132D01*
X102522121Y-94591405D01*
X102951613Y-94769306D01*
X103407560Y-94860000D01*
X103872440Y-94860000D01*
X104328387Y-94769306D01*
X104757879Y-94591405D01*
X105144412Y-94333132D01*
X105473132Y-94004412D01*
X105731405Y-93617879D01*
X105909306Y-93188387D01*
X106000000Y-92732440D01*
X106000000Y-92267560D01*
X105909306Y-91811613D01*
X105731405Y-91382121D01*
X105473132Y-90995588D01*
X105144412Y-90666868D01*
X104757879Y-90408595D01*
X104328387Y-90230694D01*
X103872440Y-90140000D01*
X103407560Y-90140000D01*
X102951613Y-90230694D01*
X102522121Y-90408595D01*
X102135588Y-90666868D01*
X101806868Y-90995588D01*
X101548595Y-91382121D01*
X101370694Y-91811613D01*
X101280000Y-92267560D01*
X84326661Y-92267560D01*
X84172893Y-92037431D01*
X84047074Y-91911612D01*
X84075799Y-91882886D01*
X84227371Y-91656043D01*
X84331775Y-91403989D01*
X84385000Y-91136411D01*
X84385000Y-90863589D01*
X84331775Y-90596011D01*
X84227371Y-90343957D01*
X84075799Y-90117114D01*
X83958685Y-90000000D01*
X84075799Y-89882886D01*
X84157909Y-89760000D01*
X93418954Y-89760000D01*
X93469463Y-89854494D01*
X93548815Y-89951185D01*
X93645506Y-90030537D01*
X93755820Y-90089502D01*
X93875518Y-90125812D01*
X94000000Y-90138072D01*
X96000000Y-90138072D01*
X96124482Y-90125812D01*
X96244180Y-90089502D01*
X96354494Y-90030537D01*
X96451185Y-89951185D01*
X96530537Y-89854494D01*
X96589502Y-89744180D01*
X96625812Y-89624482D01*
X96638072Y-89500000D01*
X96638072Y-87500000D01*
X96625812Y-87375518D01*
X96620700Y-87358665D01*
X148815000Y-87358665D01*
X148815000Y-87641335D01*
X148870147Y-87918574D01*
X148978320Y-88179727D01*
X149135363Y-88414759D01*
X149335241Y-88614637D01*
X149570273Y-88771680D01*
X149831426Y-88879853D01*
X150108665Y-88935000D01*
X150391335Y-88935000D01*
X150668574Y-88879853D01*
X150929727Y-88771680D01*
X151164759Y-88614637D01*
X151364637Y-88414759D01*
X151468043Y-88260000D01*
X153757719Y-88260000D01*
X153801068Y-88341101D01*
X153980392Y-88559608D01*
X154198899Y-88738932D01*
X154331858Y-88810000D01*
X154198899Y-88881068D01*
X153980392Y-89060392D01*
X153801068Y-89278899D01*
X153667818Y-89528192D01*
X153585764Y-89798691D01*
X153558057Y-90080000D01*
X153585764Y-90361309D01*
X153667818Y-90631808D01*
X153801068Y-90881101D01*
X153980392Y-91099608D01*
X154198899Y-91278932D01*
X154331858Y-91350000D01*
X154198899Y-91421068D01*
X153980392Y-91600392D01*
X153801068Y-91818899D01*
X153667818Y-92068192D01*
X153585764Y-92338691D01*
X153558057Y-92620000D01*
X153585764Y-92901309D01*
X153667818Y-93171808D01*
X153801068Y-93421101D01*
X153980392Y-93639608D01*
X154198899Y-93818932D01*
X154448192Y-93952182D01*
X154718691Y-94034236D01*
X154929508Y-94055000D01*
X155070492Y-94055000D01*
X155281309Y-94034236D01*
X155551808Y-93952182D01*
X155801101Y-93818932D01*
X156019608Y-93639608D01*
X156198932Y-93421101D01*
X156332182Y-93171808D01*
X156414236Y-92901309D01*
X156441943Y-92620000D01*
X156414236Y-92338691D01*
X156332182Y-92068192D01*
X156198932Y-91818899D01*
X156019608Y-91600392D01*
X155801101Y-91421068D01*
X155668142Y-91350000D01*
X155801101Y-91278932D01*
X156019608Y-91099608D01*
X156198932Y-90881101D01*
X156332182Y-90631808D01*
X156414236Y-90361309D01*
X156441943Y-90080000D01*
X156414236Y-89798691D01*
X156332182Y-89528192D01*
X156198932Y-89278899D01*
X156019608Y-89060392D01*
X155801101Y-88881068D01*
X155668142Y-88810000D01*
X155801101Y-88738932D01*
X156019608Y-88559608D01*
X156198932Y-88341101D01*
X156332182Y-88091808D01*
X156414236Y-87821309D01*
X156441943Y-87540000D01*
X156414236Y-87258691D01*
X156332182Y-86988192D01*
X156198932Y-86738899D01*
X156019608Y-86520392D01*
X155906518Y-86427581D01*
X155924482Y-86425812D01*
X156044180Y-86389502D01*
X156154494Y-86330537D01*
X156251185Y-86251185D01*
X156330537Y-86154494D01*
X156389502Y-86044180D01*
X156425812Y-85924482D01*
X156438072Y-85800000D01*
X156435000Y-85285750D01*
X156276250Y-85127000D01*
X155127000Y-85127000D01*
X155127000Y-85147000D01*
X154873000Y-85147000D01*
X154873000Y-85127000D01*
X153723750Y-85127000D01*
X153565000Y-85285750D01*
X153561928Y-85800000D01*
X153574188Y-85924482D01*
X153610498Y-86044180D01*
X153669463Y-86154494D01*
X153748815Y-86251185D01*
X153845506Y-86330537D01*
X153955820Y-86389502D01*
X154075518Y-86425812D01*
X154093482Y-86427581D01*
X153980392Y-86520392D01*
X153801068Y-86738899D01*
X153800480Y-86740000D01*
X151468043Y-86740000D01*
X151364637Y-86585241D01*
X151164759Y-86385363D01*
X150929727Y-86228320D01*
X150668574Y-86120147D01*
X150391335Y-86065000D01*
X150108665Y-86065000D01*
X149831426Y-86120147D01*
X149570273Y-86228320D01*
X149335241Y-86385363D01*
X149135363Y-86585241D01*
X148978320Y-86820273D01*
X148870147Y-87081426D01*
X148815000Y-87358665D01*
X96620700Y-87358665D01*
X96589502Y-87255820D01*
X96530537Y-87145506D01*
X96451185Y-87048815D01*
X96354494Y-86969463D01*
X96244180Y-86910498D01*
X96124482Y-86874188D01*
X96000000Y-86861928D01*
X94000000Y-86861928D01*
X93875518Y-86874188D01*
X93755820Y-86910498D01*
X93645506Y-86969463D01*
X93548815Y-87048815D01*
X93469463Y-87145506D01*
X93410498Y-87255820D01*
X93374188Y-87375518D01*
X93361928Y-87500000D01*
X93361928Y-88240000D01*
X84157909Y-88240000D01*
X84075799Y-88117114D01*
X83958685Y-88000000D01*
X84075799Y-87882886D01*
X84227371Y-87656043D01*
X84331775Y-87403989D01*
X84385000Y-87136411D01*
X84385000Y-86863589D01*
X84356167Y-86718635D01*
X86564802Y-84510000D01*
X153563780Y-84510000D01*
X153565000Y-84714250D01*
X153723750Y-84873000D01*
X154873000Y-84873000D01*
X154873000Y-84853000D01*
X155127000Y-84853000D01*
X155127000Y-84873000D01*
X156276250Y-84873000D01*
X156307224Y-84842026D01*
X161219292Y-89754095D01*
X161205764Y-89798691D01*
X161178057Y-90080000D01*
X161205764Y-90361309D01*
X161287818Y-90631808D01*
X161421068Y-90881101D01*
X161600392Y-91099608D01*
X161818899Y-91278932D01*
X161951858Y-91350000D01*
X161818899Y-91421068D01*
X161600392Y-91600392D01*
X161421068Y-91818899D01*
X161287818Y-92068192D01*
X161205764Y-92338691D01*
X161178057Y-92620000D01*
X161205764Y-92901309D01*
X161287818Y-93171808D01*
X161421068Y-93421101D01*
X161600392Y-93639608D01*
X161818899Y-93818932D01*
X162068192Y-93952182D01*
X162338691Y-94034236D01*
X162549508Y-94055000D01*
X162690492Y-94055000D01*
X162901309Y-94034236D01*
X163171808Y-93952182D01*
X163421101Y-93818932D01*
X163639608Y-93639608D01*
X163818932Y-93421101D01*
X163952182Y-93171808D01*
X164034236Y-92901309D01*
X164061943Y-92620000D01*
X164034236Y-92338691D01*
X163952182Y-92068192D01*
X163818932Y-91818899D01*
X163639608Y-91600392D01*
X163421101Y-91421068D01*
X163288142Y-91350000D01*
X163421101Y-91278932D01*
X163639608Y-91099608D01*
X163818932Y-90881101D01*
X163883662Y-90760000D01*
X165781957Y-90760000D01*
X165885363Y-90914759D01*
X166085241Y-91114637D01*
X166320273Y-91271680D01*
X166581426Y-91379853D01*
X166858665Y-91435000D01*
X167141335Y-91435000D01*
X167323886Y-91398688D01*
X168240001Y-92314803D01*
X168240001Y-93092091D01*
X168117114Y-93174201D01*
X168000000Y-93291315D01*
X167882886Y-93174201D01*
X167656043Y-93022629D01*
X167403989Y-92918225D01*
X167136411Y-92865000D01*
X166863589Y-92865000D01*
X166596011Y-92918225D01*
X166343957Y-93022629D01*
X166117114Y-93174201D01*
X165924201Y-93367114D01*
X165772629Y-93593957D01*
X165668225Y-93846011D01*
X165615000Y-94113589D01*
X165615000Y-94386411D01*
X165668225Y-94653989D01*
X165772629Y-94906043D01*
X165924201Y-95132886D01*
X166117114Y-95325799D01*
X166343957Y-95477371D01*
X166596011Y-95581775D01*
X166863589Y-95635000D01*
X167136411Y-95635000D01*
X167403989Y-95581775D01*
X167656043Y-95477371D01*
X167882886Y-95325799D01*
X168000000Y-95208685D01*
X168117114Y-95325799D01*
X168343957Y-95477371D01*
X168596011Y-95581775D01*
X168863589Y-95635000D01*
X169136411Y-95635000D01*
X169403989Y-95581775D01*
X169656043Y-95477371D01*
X169882886Y-95325799D01*
X169951387Y-95257298D01*
X172936903Y-95257298D01*
X173750000Y-96070395D01*
X174563097Y-95257298D01*
X174491514Y-95013329D01*
X174236004Y-94892429D01*
X173961816Y-94823700D01*
X173679488Y-94809783D01*
X173399870Y-94851213D01*
X173133708Y-94946397D01*
X173008486Y-95013329D01*
X172936903Y-95257298D01*
X169951387Y-95257298D01*
X170075799Y-95132886D01*
X170157909Y-95010000D01*
X171512678Y-95010000D01*
X171550000Y-95013676D01*
X171587322Y-95010000D01*
X171587333Y-95010000D01*
X171698986Y-94999003D01*
X171842247Y-94955546D01*
X171974276Y-94884974D01*
X172090001Y-94790001D01*
X172113804Y-94760997D01*
X174511004Y-92363798D01*
X174540001Y-92340001D01*
X174634974Y-92224276D01*
X174654326Y-92188072D01*
X174800000Y-92188072D01*
X174924482Y-92175812D01*
X175044180Y-92139502D01*
X175154494Y-92080537D01*
X175251185Y-92001185D01*
X175330537Y-91904494D01*
X175389502Y-91794180D01*
X175425812Y-91674482D01*
X175438072Y-91550000D01*
X175438072Y-89950000D01*
X175425812Y-89825518D01*
X175389502Y-89705820D01*
X175330537Y-89595506D01*
X175251185Y-89498815D01*
X175154494Y-89419463D01*
X175044180Y-89360498D01*
X174924482Y-89324188D01*
X174800000Y-89311928D01*
X174792785Y-89311928D01*
X174813097Y-89242702D01*
X174000000Y-88429605D01*
X173186903Y-89242702D01*
X173207215Y-89311928D01*
X173200000Y-89311928D01*
X173075518Y-89324188D01*
X172955820Y-89360498D01*
X172845506Y-89419463D01*
X172748815Y-89498815D01*
X172669463Y-89595506D01*
X172610498Y-89705820D01*
X172574188Y-89825518D01*
X172561928Y-89950000D01*
X172561928Y-91550000D01*
X172574188Y-91674482D01*
X172610498Y-91794180D01*
X172669463Y-91904494D01*
X172737636Y-91987563D01*
X171235199Y-93490000D01*
X170157909Y-93490000D01*
X170075799Y-93367114D01*
X169882886Y-93174201D01*
X169760000Y-93092091D01*
X169760000Y-92037322D01*
X169763676Y-91999999D01*
X169760000Y-91962676D01*
X169760000Y-91962667D01*
X169749003Y-91851014D01*
X169705546Y-91707753D01*
X169677906Y-91656043D01*
X169634974Y-91575723D01*
X169563799Y-91488997D01*
X169540001Y-91459999D01*
X169511003Y-91436201D01*
X168398688Y-90323886D01*
X168435000Y-90141335D01*
X168435000Y-89858665D01*
X168379853Y-89581426D01*
X168271680Y-89320273D01*
X168114637Y-89085241D01*
X167914759Y-88885363D01*
X167679727Y-88728320D01*
X167418574Y-88620147D01*
X167141335Y-88565000D01*
X166858665Y-88565000D01*
X166581426Y-88620147D01*
X166320273Y-88728320D01*
X166085241Y-88885363D01*
X165885363Y-89085241D01*
X165781957Y-89240000D01*
X163787008Y-89240000D01*
X163639608Y-89060392D01*
X163421101Y-88881068D01*
X163288142Y-88810000D01*
X163421101Y-88738932D01*
X163639608Y-88559608D01*
X163818932Y-88341101D01*
X163829937Y-88320512D01*
X172559783Y-88320512D01*
X172601213Y-88600130D01*
X172696397Y-88866292D01*
X172763329Y-88991514D01*
X173007298Y-89063097D01*
X173820395Y-88250000D01*
X174179605Y-88250000D01*
X174992702Y-89063097D01*
X175236671Y-88991514D01*
X175357571Y-88736004D01*
X175426300Y-88461816D01*
X175440217Y-88179488D01*
X175398787Y-87899870D01*
X175303603Y-87633708D01*
X175236671Y-87508486D01*
X174992702Y-87436903D01*
X174179605Y-88250000D01*
X173820395Y-88250000D01*
X173007298Y-87436903D01*
X172763329Y-87508486D01*
X172642429Y-87763996D01*
X172573700Y-88038184D01*
X172559783Y-88320512D01*
X163829937Y-88320512D01*
X163952182Y-88091808D01*
X164034236Y-87821309D01*
X164061943Y-87540000D01*
X164034236Y-87258691D01*
X164033814Y-87257298D01*
X173186903Y-87257298D01*
X174000000Y-88070395D01*
X174813097Y-87257298D01*
X174741514Y-87013329D01*
X174486004Y-86892429D01*
X174211816Y-86823700D01*
X173929488Y-86809783D01*
X173649870Y-86851213D01*
X173383708Y-86946397D01*
X173258486Y-87013329D01*
X173186903Y-87257298D01*
X164033814Y-87257298D01*
X163952182Y-86988192D01*
X163818932Y-86738899D01*
X163639608Y-86520392D01*
X163421101Y-86341068D01*
X163283318Y-86267421D01*
X163475131Y-86152385D01*
X163651221Y-85992702D01*
X166186903Y-85992702D01*
X166258486Y-86236671D01*
X166513996Y-86357571D01*
X166788184Y-86426300D01*
X167070512Y-86440217D01*
X167350130Y-86398787D01*
X167616292Y-86303603D01*
X167741514Y-86236671D01*
X167813097Y-85992702D01*
X167000000Y-85179605D01*
X166186903Y-85992702D01*
X163651221Y-85992702D01*
X163683519Y-85963414D01*
X163851037Y-85737420D01*
X163971246Y-85483087D01*
X164011904Y-85349039D01*
X163889915Y-85127000D01*
X162747000Y-85127000D01*
X162747000Y-85147000D01*
X162493000Y-85147000D01*
X162493000Y-85127000D01*
X161350085Y-85127000D01*
X161228096Y-85349039D01*
X161268754Y-85483087D01*
X161388963Y-85737420D01*
X161556481Y-85963414D01*
X161764869Y-86152385D01*
X161956682Y-86267421D01*
X161818899Y-86341068D01*
X161600392Y-86520392D01*
X161421068Y-86738899D01*
X161287818Y-86988192D01*
X161205764Y-87258691D01*
X161178057Y-87540000D01*
X161180598Y-87565795D01*
X158685315Y-85070512D01*
X165559783Y-85070512D01*
X165601213Y-85350130D01*
X165696397Y-85616292D01*
X165763329Y-85741514D01*
X166007298Y-85813097D01*
X166820395Y-85000000D01*
X167179605Y-85000000D01*
X167992702Y-85813097D01*
X168236671Y-85741514D01*
X168357571Y-85486004D01*
X168426300Y-85211816D01*
X168440217Y-84929488D01*
X168398787Y-84649870D01*
X168303603Y-84383708D01*
X168236671Y-84258486D01*
X167992702Y-84186903D01*
X167179605Y-85000000D01*
X166820395Y-85000000D01*
X166007298Y-84186903D01*
X165763329Y-84258486D01*
X165642429Y-84513996D01*
X165573700Y-84788184D01*
X165559783Y-85070512D01*
X158685315Y-85070512D01*
X158265763Y-84650961D01*
X161228096Y-84650961D01*
X161350085Y-84873000D01*
X162493000Y-84873000D01*
X162493000Y-83729376D01*
X162747000Y-83729376D01*
X162747000Y-84873000D01*
X163889915Y-84873000D01*
X164011904Y-84650961D01*
X163971246Y-84516913D01*
X163851037Y-84262580D01*
X163683519Y-84036586D01*
X163651222Y-84007298D01*
X166186903Y-84007298D01*
X167000000Y-84820395D01*
X167813097Y-84007298D01*
X167741514Y-83763329D01*
X167486004Y-83642429D01*
X167211816Y-83573700D01*
X166929488Y-83559783D01*
X166649870Y-83601213D01*
X166383708Y-83696397D01*
X166258486Y-83763329D01*
X166186903Y-84007298D01*
X163651222Y-84007298D01*
X163475131Y-83847615D01*
X163233881Y-83702930D01*
X162969040Y-83608091D01*
X162747000Y-83729376D01*
X162493000Y-83729376D01*
X162270960Y-83608091D01*
X162006119Y-83702930D01*
X161764869Y-83847615D01*
X161556481Y-84036586D01*
X161388963Y-84262580D01*
X161268754Y-84516913D01*
X161228096Y-84650961D01*
X158265763Y-84650961D01*
X156853804Y-83239003D01*
X156830001Y-83209999D01*
X156714276Y-83115026D01*
X156582247Y-83044454D01*
X156438986Y-83000997D01*
X156327333Y-82990000D01*
X156327322Y-82990000D01*
X156290000Y-82986324D01*
X156252678Y-82990000D01*
X86287322Y-82990000D01*
X86249999Y-82986324D01*
X86212676Y-82990000D01*
X86212667Y-82990000D01*
X86101014Y-83000997D01*
X85957753Y-83044454D01*
X85825723Y-83115026D01*
X85742083Y-83183668D01*
X85709999Y-83209999D01*
X85686201Y-83238997D01*
X84426688Y-84498510D01*
X84338144Y-84284747D01*
X84172893Y-84037431D01*
X83962569Y-83827107D01*
X83715253Y-83661856D01*
X83440451Y-83548029D01*
X83148722Y-83490000D01*
X82851278Y-83490000D01*
X82559549Y-83548029D01*
X82284747Y-83661856D01*
X82037431Y-83827107D01*
X81827107Y-84037431D01*
X81661856Y-84284747D01*
X81548029Y-84559549D01*
X81490000Y-84851278D01*
X80660000Y-84851278D01*
X80660000Y-76000000D01*
X87361928Y-76000000D01*
X87361928Y-78000000D01*
X87374188Y-78124482D01*
X87410498Y-78244180D01*
X87469463Y-78354494D01*
X87548815Y-78451185D01*
X87645506Y-78530537D01*
X87755820Y-78589502D01*
X87875518Y-78625812D01*
X88000000Y-78638072D01*
X90000000Y-78638072D01*
X90124482Y-78625812D01*
X90244180Y-78589502D01*
X90354494Y-78530537D01*
X90451185Y-78451185D01*
X90530537Y-78354494D01*
X90589502Y-78244180D01*
X90625812Y-78124482D01*
X90638072Y-78000000D01*
X90638072Y-76000000D01*
X90625812Y-75875518D01*
X90589502Y-75755820D01*
X90530537Y-75645506D01*
X90451185Y-75548815D01*
X90354958Y-75469844D01*
X93684802Y-72140000D01*
X96779099Y-72140000D01*
X96801068Y-72181101D01*
X96980392Y-72399608D01*
X97198899Y-72578932D01*
X97448192Y-72712182D01*
X97718691Y-72794236D01*
X97929508Y-72815000D01*
X98070492Y-72815000D01*
X98281309Y-72794236D01*
X98551808Y-72712182D01*
X98801101Y-72578932D01*
X99019608Y-72399608D01*
X99198932Y-72181101D01*
X99332182Y-71931808D01*
X99414236Y-71661309D01*
X99441943Y-71380000D01*
X99414236Y-71098691D01*
X99332182Y-70828192D01*
X99198932Y-70578899D01*
X99019608Y-70360392D01*
X98801101Y-70181068D01*
X98760000Y-70159099D01*
X98760000Y-65135413D01*
X100544192Y-65135413D01*
X100639956Y-65399814D01*
X100929571Y-65540704D01*
X101241108Y-65622384D01*
X101562595Y-65641718D01*
X101881675Y-65597961D01*
X102186088Y-65492795D01*
X102360044Y-65399814D01*
X102455808Y-65135413D01*
X107044192Y-65135413D01*
X107139956Y-65399814D01*
X107429571Y-65540704D01*
X107741108Y-65622384D01*
X108062595Y-65641718D01*
X108381675Y-65597961D01*
X108686088Y-65492795D01*
X108860044Y-65399814D01*
X108955808Y-65135413D01*
X108000000Y-64179605D01*
X107044192Y-65135413D01*
X102455808Y-65135413D01*
X101500000Y-64179605D01*
X100544192Y-65135413D01*
X98760000Y-65135413D01*
X98760000Y-64062595D01*
X99858282Y-64062595D01*
X99902039Y-64381675D01*
X100007205Y-64686088D01*
X100100186Y-64860044D01*
X100364587Y-64955808D01*
X101320395Y-64000000D01*
X101679605Y-64000000D01*
X102635413Y-64955808D01*
X102899814Y-64860044D01*
X103040704Y-64570429D01*
X103122384Y-64258892D01*
X103134189Y-64062595D01*
X106358282Y-64062595D01*
X106402039Y-64381675D01*
X106507205Y-64686088D01*
X106600186Y-64860044D01*
X106864587Y-64955808D01*
X107820395Y-64000000D01*
X108179605Y-64000000D01*
X109135413Y-64955808D01*
X109399814Y-64860044D01*
X109540704Y-64570429D01*
X109622384Y-64258892D01*
X109641718Y-63937405D01*
X109597961Y-63618325D01*
X109492795Y-63313912D01*
X109399814Y-63139956D01*
X109135413Y-63044192D01*
X108179605Y-64000000D01*
X107820395Y-64000000D01*
X106864587Y-63044192D01*
X106600186Y-63139956D01*
X106459296Y-63429571D01*
X106377616Y-63741108D01*
X106358282Y-64062595D01*
X103134189Y-64062595D01*
X103141718Y-63937405D01*
X103097961Y-63618325D01*
X102992795Y-63313912D01*
X102899814Y-63139956D01*
X102635413Y-63044192D01*
X101679605Y-64000000D01*
X101320395Y-64000000D01*
X100364587Y-63044192D01*
X100100186Y-63139956D01*
X99959296Y-63429571D01*
X99877616Y-63741108D01*
X99858282Y-64062595D01*
X98760000Y-64062595D01*
X98760000Y-62864587D01*
X100544192Y-62864587D01*
X101500000Y-63820395D01*
X102455808Y-62864587D01*
X107044192Y-62864587D01*
X108000000Y-63820395D01*
X108955808Y-62864587D01*
X108860044Y-62600186D01*
X108570429Y-62459296D01*
X108258892Y-62377616D01*
X107937405Y-62358282D01*
X107618325Y-62402039D01*
X107313912Y-62507205D01*
X107139956Y-62600186D01*
X107044192Y-62864587D01*
X102455808Y-62864587D01*
X102360044Y-62600186D01*
X102070429Y-62459296D01*
X101758892Y-62377616D01*
X101437405Y-62358282D01*
X101118325Y-62402039D01*
X100813912Y-62507205D01*
X100639956Y-62600186D01*
X100544192Y-62864587D01*
X98760000Y-62864587D01*
X98760000Y-60214475D01*
X98873824Y-60249003D01*
X98985477Y-60260000D01*
X98985485Y-60260000D01*
X99022810Y-60263676D01*
X99060135Y-60260000D01*
X100045091Y-60260000D01*
X100051082Y-60274463D01*
X100230013Y-60542252D01*
X100457748Y-60769987D01*
X100725537Y-60948918D01*
X101023088Y-61072168D01*
X101338967Y-61135000D01*
X101661033Y-61135000D01*
X101976912Y-61072168D01*
X102274463Y-60948918D01*
X102542252Y-60769987D01*
X102769987Y-60542252D01*
X102948918Y-60274463D01*
X102954909Y-60260000D01*
X106545091Y-60260000D01*
X106551082Y-60274463D01*
X106730013Y-60542252D01*
X106957748Y-60769987D01*
X107225537Y-60948918D01*
X107523088Y-61072168D01*
X107838967Y-61135000D01*
X108161033Y-61135000D01*
X108476912Y-61072168D01*
X108491376Y-61066177D01*
X112220000Y-64794802D01*
X112220001Y-68779099D01*
X112178899Y-68801068D01*
X111960392Y-68980392D01*
X111781068Y-69198899D01*
X111714060Y-69324261D01*
X111043015Y-68653216D01*
X111019212Y-68624212D01*
X110903487Y-68529239D01*
X110771458Y-68458667D01*
X110628197Y-68415210D01*
X110516544Y-68404213D01*
X110516533Y-68404213D01*
X110479211Y-68400537D01*
X110441889Y-68404213D01*
X104953711Y-68404213D01*
X104909774Y-68360276D01*
X104740256Y-68247008D01*
X104551898Y-68168987D01*
X104351939Y-68129213D01*
X104148061Y-68129213D01*
X103948102Y-68168987D01*
X103759744Y-68247008D01*
X103590226Y-68360276D01*
X103446063Y-68504439D01*
X103332795Y-68673957D01*
X103254774Y-68862315D01*
X103215000Y-69062274D01*
X103215000Y-69266152D01*
X103254774Y-69466111D01*
X103332795Y-69654469D01*
X103446063Y-69823987D01*
X103590226Y-69968150D01*
X103759744Y-70081418D01*
X103948102Y-70159439D01*
X104148061Y-70199213D01*
X104351939Y-70199213D01*
X104551898Y-70159439D01*
X104740256Y-70081418D01*
X104909774Y-69968150D01*
X104953711Y-69924213D01*
X110164410Y-69924213D01*
X116950330Y-76710133D01*
X116861068Y-76818899D01*
X116790000Y-76951858D01*
X116718932Y-76818899D01*
X116539608Y-76600392D01*
X116321101Y-76421068D01*
X116071808Y-76287818D01*
X115801309Y-76205764D01*
X115590492Y-76185000D01*
X115449508Y-76185000D01*
X115238691Y-76205764D01*
X114968192Y-76287818D01*
X114718899Y-76421068D01*
X114500392Y-76600392D01*
X114321068Y-76818899D01*
X114250000Y-76951858D01*
X114178932Y-76818899D01*
X113999608Y-76600392D01*
X113781101Y-76421068D01*
X113531808Y-76287818D01*
X113261309Y-76205764D01*
X113050492Y-76185000D01*
X112909508Y-76185000D01*
X112698691Y-76205764D01*
X112428192Y-76287818D01*
X112178899Y-76421068D01*
X111960392Y-76600392D01*
X111781068Y-76818899D01*
X111759099Y-76860000D01*
X99417325Y-76860000D01*
X99380000Y-76856324D01*
X99342675Y-76860000D01*
X99342667Y-76860000D01*
X99231014Y-76870997D01*
X99087753Y-76914454D01*
X98955724Y-76985026D01*
X98839999Y-77079999D01*
X98816202Y-77108996D01*
X98323886Y-77601312D01*
X98141335Y-77565000D01*
X97858665Y-77565000D01*
X97581426Y-77620147D01*
X97320273Y-77728320D01*
X97085241Y-77885363D01*
X96885363Y-78085241D01*
X96728320Y-78320273D01*
X96620147Y-78581426D01*
X96565000Y-78858665D01*
X96565000Y-79141335D01*
X96620147Y-79418574D01*
X96728320Y-79679727D01*
X96885363Y-79914759D01*
X97085241Y-80114637D01*
X97320273Y-80271680D01*
X97581426Y-80379853D01*
X97858665Y-80435000D01*
X98141335Y-80435000D01*
X98418574Y-80379853D01*
X98679727Y-80271680D01*
X98914759Y-80114637D01*
X99114637Y-79914759D01*
X99271680Y-79679727D01*
X99379853Y-79418574D01*
X99435000Y-79141335D01*
X99435000Y-78858665D01*
X99398688Y-78676114D01*
X99694802Y-78380000D01*
X111759099Y-78380000D01*
X111781068Y-78421101D01*
X111960392Y-78639608D01*
X112178899Y-78818932D01*
X112428192Y-78952182D01*
X112698691Y-79034236D01*
X112909508Y-79055000D01*
X113050492Y-79055000D01*
X113261309Y-79034236D01*
X113531808Y-78952182D01*
X113781101Y-78818932D01*
X113999608Y-78639608D01*
X114178932Y-78421101D01*
X114250000Y-78288142D01*
X114321068Y-78421101D01*
X114500392Y-78639608D01*
X114718899Y-78818932D01*
X114968192Y-78952182D01*
X115238691Y-79034236D01*
X115449508Y-79055000D01*
X115590492Y-79055000D01*
X115801309Y-79034236D01*
X116071808Y-78952182D01*
X116321101Y-78818932D01*
X116539608Y-78639608D01*
X116718932Y-78421101D01*
X116790000Y-78288142D01*
X116861068Y-78421101D01*
X117040392Y-78639608D01*
X117258899Y-78818932D01*
X117508192Y-78952182D01*
X117778691Y-79034236D01*
X117989508Y-79055000D01*
X118130492Y-79055000D01*
X118341309Y-79034236D01*
X118611808Y-78952182D01*
X118861101Y-78818932D01*
X119079608Y-78639608D01*
X119258932Y-78421101D01*
X119330000Y-78288142D01*
X119401068Y-78421101D01*
X119580392Y-78639608D01*
X119798899Y-78818932D01*
X120048192Y-78952182D01*
X120318691Y-79034236D01*
X120529508Y-79055000D01*
X120670492Y-79055000D01*
X120881309Y-79034236D01*
X121151808Y-78952182D01*
X121401101Y-78818932D01*
X121619608Y-78639608D01*
X121798932Y-78421101D01*
X121870000Y-78288142D01*
X121941068Y-78421101D01*
X122120392Y-78639608D01*
X122338899Y-78818932D01*
X122588192Y-78952182D01*
X122858691Y-79034236D01*
X123069508Y-79055000D01*
X123210492Y-79055000D01*
X123421309Y-79034236D01*
X123691808Y-78952182D01*
X123941101Y-78818932D01*
X124159608Y-78639608D01*
X124338932Y-78421101D01*
X124410000Y-78288142D01*
X124481068Y-78421101D01*
X124660392Y-78639608D01*
X124878899Y-78818932D01*
X125128192Y-78952182D01*
X125398691Y-79034236D01*
X125609508Y-79055000D01*
X125750492Y-79055000D01*
X125961309Y-79034236D01*
X126231808Y-78952182D01*
X126481101Y-78818932D01*
X126699608Y-78639608D01*
X126878932Y-78421101D01*
X126950000Y-78288142D01*
X127021068Y-78421101D01*
X127200392Y-78639608D01*
X127418899Y-78818932D01*
X127668192Y-78952182D01*
X127938691Y-79034236D01*
X128149508Y-79055000D01*
X128290492Y-79055000D01*
X128501309Y-79034236D01*
X128771808Y-78952182D01*
X129021101Y-78818932D01*
X129239608Y-78639608D01*
X129418932Y-78421101D01*
X129492579Y-78283318D01*
X129607615Y-78475131D01*
X129796586Y-78683519D01*
X130022580Y-78851037D01*
X130276913Y-78971246D01*
X130410961Y-79011904D01*
X130633000Y-78889915D01*
X130633000Y-77747000D01*
X130613000Y-77747000D01*
X130613000Y-77493000D01*
X130633000Y-77493000D01*
X130633000Y-76350085D01*
X130887000Y-76350085D01*
X130887000Y-77493000D01*
X130907000Y-77493000D01*
X130907000Y-77747000D01*
X130887000Y-77747000D01*
X130887000Y-78889915D01*
X131109039Y-79011904D01*
X131243087Y-78971246D01*
X131497420Y-78851037D01*
X131723414Y-78683519D01*
X131912385Y-78475131D01*
X132027421Y-78283318D01*
X132101068Y-78421101D01*
X132280392Y-78639608D01*
X132498899Y-78818932D01*
X132748192Y-78952182D01*
X133018691Y-79034236D01*
X133229508Y-79055000D01*
X133370492Y-79055000D01*
X133581309Y-79034236D01*
X133851808Y-78952182D01*
X134101101Y-78818932D01*
X134319608Y-78639608D01*
X134498932Y-78421101D01*
X134570000Y-78288142D01*
X134641068Y-78421101D01*
X134820392Y-78639608D01*
X135038899Y-78818932D01*
X135288192Y-78952182D01*
X135558691Y-79034236D01*
X135769508Y-79055000D01*
X135910492Y-79055000D01*
X136121309Y-79034236D01*
X136391808Y-78952182D01*
X136641101Y-78818932D01*
X136859608Y-78639608D01*
X137038932Y-78421101D01*
X137110000Y-78288142D01*
X137181068Y-78421101D01*
X137360392Y-78639608D01*
X137578899Y-78818932D01*
X137828192Y-78952182D01*
X138098691Y-79034236D01*
X138309508Y-79055000D01*
X138450492Y-79055000D01*
X138661309Y-79034236D01*
X138931808Y-78952182D01*
X139181101Y-78818932D01*
X139399608Y-78639608D01*
X139578932Y-78421101D01*
X139650000Y-78288142D01*
X139721068Y-78421101D01*
X139900392Y-78639608D01*
X140118899Y-78818932D01*
X140368192Y-78952182D01*
X140638691Y-79034236D01*
X140849508Y-79055000D01*
X140990492Y-79055000D01*
X141201309Y-79034236D01*
X141471808Y-78952182D01*
X141721101Y-78818932D01*
X141939608Y-78639608D01*
X142118932Y-78421101D01*
X142190000Y-78288142D01*
X142261068Y-78421101D01*
X142440392Y-78639608D01*
X142658899Y-78818932D01*
X142908192Y-78952182D01*
X143178691Y-79034236D01*
X143389508Y-79055000D01*
X143530492Y-79055000D01*
X143741309Y-79034236D01*
X144011808Y-78952182D01*
X144261101Y-78818932D01*
X144479608Y-78639608D01*
X144658932Y-78421101D01*
X144730000Y-78288142D01*
X144801068Y-78421101D01*
X144980392Y-78639608D01*
X145198899Y-78818932D01*
X145448192Y-78952182D01*
X145718691Y-79034236D01*
X145929508Y-79055000D01*
X146070492Y-79055000D01*
X146281309Y-79034236D01*
X146551808Y-78952182D01*
X146801101Y-78818932D01*
X147019608Y-78639608D01*
X147198932Y-78421101D01*
X147332182Y-78171808D01*
X147414236Y-77901309D01*
X147441943Y-77620000D01*
X147414236Y-77338691D01*
X147332182Y-77068192D01*
X147198932Y-76818899D01*
X147019608Y-76600392D01*
X146801101Y-76421068D01*
X146551808Y-76287818D01*
X146281309Y-76205764D01*
X146070492Y-76185000D01*
X145929508Y-76185000D01*
X145718691Y-76205764D01*
X145448192Y-76287818D01*
X145198899Y-76421068D01*
X144980392Y-76600392D01*
X144801068Y-76818899D01*
X144730000Y-76951858D01*
X144658932Y-76818899D01*
X144479608Y-76600392D01*
X144261101Y-76421068D01*
X144011808Y-76287818D01*
X143741309Y-76205764D01*
X143530492Y-76185000D01*
X143389508Y-76185000D01*
X143178691Y-76205764D01*
X142908192Y-76287818D01*
X142658899Y-76421068D01*
X142440392Y-76600392D01*
X142261068Y-76818899D01*
X142190000Y-76951858D01*
X142118932Y-76818899D01*
X141939608Y-76600392D01*
X141721101Y-76421068D01*
X141471808Y-76287818D01*
X141201309Y-76205764D01*
X140990492Y-76185000D01*
X140849508Y-76185000D01*
X140638691Y-76205764D01*
X140368192Y-76287818D01*
X140118899Y-76421068D01*
X139900392Y-76600392D01*
X139721068Y-76818899D01*
X139650000Y-76951858D01*
X139578932Y-76818899D01*
X139399608Y-76600392D01*
X139181101Y-76421068D01*
X138931808Y-76287818D01*
X138661309Y-76205764D01*
X138450492Y-76185000D01*
X138309508Y-76185000D01*
X138098691Y-76205764D01*
X137828192Y-76287818D01*
X137578899Y-76421068D01*
X137360392Y-76600392D01*
X137181068Y-76818899D01*
X137110000Y-76951858D01*
X137038932Y-76818899D01*
X136859608Y-76600392D01*
X136641101Y-76421068D01*
X136391808Y-76287818D01*
X136121309Y-76205764D01*
X135910492Y-76185000D01*
X135769508Y-76185000D01*
X135558691Y-76205764D01*
X135288192Y-76287818D01*
X135038899Y-76421068D01*
X134820392Y-76600392D01*
X134641068Y-76818899D01*
X134570000Y-76951858D01*
X134498932Y-76818899D01*
X134319608Y-76600392D01*
X134101101Y-76421068D01*
X133851808Y-76287818D01*
X133581309Y-76205764D01*
X133370492Y-76185000D01*
X133229508Y-76185000D01*
X133018691Y-76205764D01*
X132748192Y-76287818D01*
X132498899Y-76421068D01*
X132280392Y-76600392D01*
X132101068Y-76818899D01*
X132027421Y-76956682D01*
X131912385Y-76764869D01*
X131723414Y-76556481D01*
X131497420Y-76388963D01*
X131243087Y-76268754D01*
X131109039Y-76228096D01*
X130887000Y-76350085D01*
X130633000Y-76350085D01*
X130410961Y-76228096D01*
X130276913Y-76268754D01*
X130022580Y-76388963D01*
X129796586Y-76556481D01*
X129607615Y-76764869D01*
X129492579Y-76956682D01*
X129418932Y-76818899D01*
X129239608Y-76600392D01*
X129021101Y-76421068D01*
X128771808Y-76287818D01*
X128501309Y-76205764D01*
X128290492Y-76185000D01*
X128149508Y-76185000D01*
X127938691Y-76205764D01*
X127668192Y-76287818D01*
X127418899Y-76421068D01*
X127200392Y-76600392D01*
X127021068Y-76818899D01*
X126950000Y-76951858D01*
X126878932Y-76818899D01*
X126699608Y-76600392D01*
X126481101Y-76421068D01*
X126231808Y-76287818D01*
X125961309Y-76205764D01*
X125750492Y-76185000D01*
X125609508Y-76185000D01*
X125398691Y-76205764D01*
X125128192Y-76287818D01*
X124878899Y-76421068D01*
X124660392Y-76600392D01*
X124481068Y-76818899D01*
X124410000Y-76951858D01*
X124338932Y-76818899D01*
X124159608Y-76600392D01*
X123941101Y-76421068D01*
X123691808Y-76287818D01*
X123421309Y-76205764D01*
X123210492Y-76185000D01*
X123069508Y-76185000D01*
X122858691Y-76205764D01*
X122588192Y-76287818D01*
X122338899Y-76421068D01*
X122120392Y-76600392D01*
X121941068Y-76818899D01*
X121870000Y-76951858D01*
X121798932Y-76818899D01*
X121619608Y-76600392D01*
X121401101Y-76421068D01*
X121151808Y-76287818D01*
X120881309Y-76205764D01*
X120670492Y-76185000D01*
X120529508Y-76185000D01*
X120318691Y-76205764D01*
X120274093Y-76219292D01*
X120038803Y-75984002D01*
X120015000Y-75954998D01*
X119899275Y-75860025D01*
X119767246Y-75789453D01*
X119623985Y-75745996D01*
X119512332Y-75734999D01*
X119512321Y-75734999D01*
X119474999Y-75731323D01*
X119437677Y-75734999D01*
X118124799Y-75734999D01*
X113655739Y-71265940D01*
X113781101Y-71198932D01*
X113999608Y-71019608D01*
X114178932Y-70801101D01*
X114250000Y-70668142D01*
X114321068Y-70801101D01*
X114500392Y-71019608D01*
X114718899Y-71198932D01*
X114968192Y-71332182D01*
X115238691Y-71414236D01*
X115449508Y-71435000D01*
X115590492Y-71435000D01*
X115801309Y-71414236D01*
X116071808Y-71332182D01*
X116321101Y-71198932D01*
X116539608Y-71019608D01*
X116718932Y-70801101D01*
X116790000Y-70668142D01*
X116861068Y-70801101D01*
X117040392Y-71019608D01*
X117258899Y-71198932D01*
X117508192Y-71332182D01*
X117778691Y-71414236D01*
X117989508Y-71435000D01*
X118130492Y-71435000D01*
X118341309Y-71414236D01*
X118385906Y-71400708D01*
X122246205Y-75261008D01*
X122269999Y-75290001D01*
X122298992Y-75313795D01*
X122298996Y-75313799D01*
X122357642Y-75361928D01*
X122385724Y-75384974D01*
X122517753Y-75455546D01*
X122661014Y-75499003D01*
X122772667Y-75510000D01*
X122772676Y-75510000D01*
X122809999Y-75513676D01*
X122847322Y-75510000D01*
X134591291Y-75510000D01*
X134635228Y-75553937D01*
X134804746Y-75667205D01*
X134993104Y-75745226D01*
X135193063Y-75785000D01*
X135396941Y-75785000D01*
X135596900Y-75745226D01*
X135785258Y-75667205D01*
X135954776Y-75553937D01*
X136098939Y-75409774D01*
X136212207Y-75240256D01*
X136290228Y-75051898D01*
X136330002Y-74851939D01*
X136330002Y-74648061D01*
X136290228Y-74448102D01*
X136212207Y-74259744D01*
X136098939Y-74090226D01*
X135954776Y-73946063D01*
X135785258Y-73832795D01*
X135609517Y-73760000D01*
X151842091Y-73760000D01*
X151924201Y-73882886D01*
X152117114Y-74075799D01*
X152343957Y-74227371D01*
X152596011Y-74331775D01*
X152863589Y-74385000D01*
X153136411Y-74385000D01*
X153281365Y-74356167D01*
X153511201Y-74586003D01*
X153535000Y-74615002D01*
X153563998Y-74638800D01*
X153650724Y-74709975D01*
X153725605Y-74750000D01*
X153782754Y-74780547D01*
X153926015Y-74824004D01*
X154037668Y-74835001D01*
X154037678Y-74835001D01*
X154075001Y-74838677D01*
X154112323Y-74835001D01*
X159140200Y-74835001D01*
X163599292Y-79294094D01*
X163585764Y-79338691D01*
X163558057Y-79620000D01*
X163585764Y-79901309D01*
X163667818Y-80171808D01*
X163801068Y-80421101D01*
X163980392Y-80639608D01*
X164198899Y-80818932D01*
X164448192Y-80952182D01*
X164718691Y-81034236D01*
X164929508Y-81055000D01*
X165070492Y-81055000D01*
X165281309Y-81034236D01*
X165551808Y-80952182D01*
X165801101Y-80818932D01*
X166019608Y-80639608D01*
X166198932Y-80421101D01*
X166220901Y-80380000D01*
X169342678Y-80380000D01*
X169380000Y-80383676D01*
X169417322Y-80380000D01*
X169417333Y-80380000D01*
X169528986Y-80369003D01*
X169544137Y-80364407D01*
X169581426Y-80379853D01*
X169858665Y-80435000D01*
X170141335Y-80435000D01*
X170418574Y-80379853D01*
X170679727Y-80271680D01*
X170914759Y-80114637D01*
X171036694Y-79992702D01*
X174186903Y-79992702D01*
X174258486Y-80236671D01*
X174513996Y-80357571D01*
X174788184Y-80426300D01*
X175070512Y-80440217D01*
X175350130Y-80398787D01*
X175616292Y-80303603D01*
X175741514Y-80236671D01*
X175813097Y-79992702D01*
X175000000Y-79179605D01*
X174186903Y-79992702D01*
X171036694Y-79992702D01*
X171114637Y-79914759D01*
X171271680Y-79679727D01*
X171379853Y-79418574D01*
X171435000Y-79141335D01*
X171435000Y-79070512D01*
X173559783Y-79070512D01*
X173601213Y-79350130D01*
X173696397Y-79616292D01*
X173763329Y-79741514D01*
X174007298Y-79813097D01*
X174820395Y-79000000D01*
X175179605Y-79000000D01*
X175992702Y-79813097D01*
X176236671Y-79741514D01*
X176357571Y-79486004D01*
X176426300Y-79211816D01*
X176440217Y-78929488D01*
X176398787Y-78649870D01*
X176303603Y-78383708D01*
X176236671Y-78258486D01*
X175992702Y-78186903D01*
X175179605Y-79000000D01*
X174820395Y-79000000D01*
X174007298Y-78186903D01*
X173763329Y-78258486D01*
X173642429Y-78513996D01*
X173573700Y-78788184D01*
X173559783Y-79070512D01*
X171435000Y-79070512D01*
X171435000Y-78858665D01*
X171379853Y-78581426D01*
X171271680Y-78320273D01*
X171114637Y-78085241D01*
X171036694Y-78007298D01*
X174186903Y-78007298D01*
X175000000Y-78820395D01*
X175813097Y-78007298D01*
X175741514Y-77763329D01*
X175486004Y-77642429D01*
X175211816Y-77573700D01*
X174929488Y-77559783D01*
X174649870Y-77601213D01*
X174383708Y-77696397D01*
X174258486Y-77763329D01*
X174186903Y-78007298D01*
X171036694Y-78007298D01*
X170914759Y-77885363D01*
X170679727Y-77728320D01*
X170418574Y-77620147D01*
X170141335Y-77565000D01*
X169858665Y-77565000D01*
X169581426Y-77620147D01*
X169320273Y-77728320D01*
X169085241Y-77885363D01*
X168885363Y-78085241D01*
X168728320Y-78320273D01*
X168620147Y-78581426D01*
X168565000Y-78858665D01*
X168565000Y-78860000D01*
X166220901Y-78860000D01*
X166198932Y-78818899D01*
X166019608Y-78600392D01*
X165801101Y-78421068D01*
X165551808Y-78287818D01*
X165281309Y-78205764D01*
X165070492Y-78185000D01*
X164929508Y-78185000D01*
X164718691Y-78205764D01*
X164674094Y-78219292D01*
X160214801Y-73760000D01*
X163962678Y-73760000D01*
X164000000Y-73763676D01*
X164037322Y-73760000D01*
X164037333Y-73760000D01*
X164148986Y-73749003D01*
X164292247Y-73705546D01*
X164424276Y-73634974D01*
X164540001Y-73540001D01*
X164563804Y-73510998D01*
X164676113Y-73398688D01*
X164858665Y-73435000D01*
X165141335Y-73435000D01*
X165418574Y-73379853D01*
X165679727Y-73271680D01*
X165914759Y-73114637D01*
X166114637Y-72914759D01*
X166218043Y-72760000D01*
X168584626Y-72760000D01*
X168565000Y-72858665D01*
X168565000Y-73141335D01*
X168620147Y-73418574D01*
X168728320Y-73679727D01*
X168885363Y-73914759D01*
X169085241Y-74114637D01*
X169320273Y-74271680D01*
X169581426Y-74379853D01*
X169858665Y-74435000D01*
X170141335Y-74435000D01*
X170418574Y-74379853D01*
X170679727Y-74271680D01*
X170914759Y-74114637D01*
X171036694Y-73992702D01*
X174186903Y-73992702D01*
X174258486Y-74236671D01*
X174513996Y-74357571D01*
X174788184Y-74426300D01*
X175070512Y-74440217D01*
X175350130Y-74398787D01*
X175616292Y-74303603D01*
X175741514Y-74236671D01*
X175813097Y-73992702D01*
X175000000Y-73179605D01*
X174186903Y-73992702D01*
X171036694Y-73992702D01*
X171114637Y-73914759D01*
X171271680Y-73679727D01*
X171379853Y-73418574D01*
X171435000Y-73141335D01*
X171435000Y-73070512D01*
X173559783Y-73070512D01*
X173601213Y-73350130D01*
X173696397Y-73616292D01*
X173763329Y-73741514D01*
X174007298Y-73813097D01*
X174820395Y-73000000D01*
X175179605Y-73000000D01*
X175992702Y-73813097D01*
X176236671Y-73741514D01*
X176357571Y-73486004D01*
X176426300Y-73211816D01*
X176440217Y-72929488D01*
X176398787Y-72649870D01*
X176303603Y-72383708D01*
X176236671Y-72258486D01*
X175992702Y-72186903D01*
X175179605Y-73000000D01*
X174820395Y-73000000D01*
X174007298Y-72186903D01*
X173763329Y-72258486D01*
X173642429Y-72513996D01*
X173573700Y-72788184D01*
X173559783Y-73070512D01*
X171435000Y-73070512D01*
X171435000Y-72858665D01*
X171379853Y-72581426D01*
X171271680Y-72320273D01*
X171114637Y-72085241D01*
X171036694Y-72007298D01*
X174186903Y-72007298D01*
X175000000Y-72820395D01*
X175813097Y-72007298D01*
X175741514Y-71763329D01*
X175486004Y-71642429D01*
X175211816Y-71573700D01*
X174929488Y-71559783D01*
X174649870Y-71601213D01*
X174383708Y-71696397D01*
X174258486Y-71763329D01*
X174186903Y-72007298D01*
X171036694Y-72007298D01*
X170914759Y-71885363D01*
X170679727Y-71728320D01*
X170418574Y-71620147D01*
X170141335Y-71565000D01*
X169858665Y-71565000D01*
X169676113Y-71601312D01*
X169563804Y-71489002D01*
X169540001Y-71459999D01*
X169424276Y-71365026D01*
X169292247Y-71294454D01*
X169148986Y-71250997D01*
X169037333Y-71240000D01*
X169037322Y-71240000D01*
X169000000Y-71236324D01*
X168962678Y-71240000D01*
X166218043Y-71240000D01*
X166114637Y-71085241D01*
X165914759Y-70885363D01*
X165679727Y-70728320D01*
X165418574Y-70620147D01*
X165141335Y-70565000D01*
X164858665Y-70565000D01*
X164581426Y-70620147D01*
X164320273Y-70728320D01*
X164085241Y-70885363D01*
X163885363Y-71085241D01*
X163728320Y-71320273D01*
X163620147Y-71581426D01*
X163565000Y-71858665D01*
X163565000Y-72141335D01*
X163584626Y-72240000D01*
X159037909Y-72240000D01*
X158955799Y-72117114D01*
X158762886Y-71924201D01*
X158536043Y-71772629D01*
X158283989Y-71668225D01*
X158016411Y-71615000D01*
X157743589Y-71615000D01*
X157476011Y-71668225D01*
X157223957Y-71772629D01*
X156997114Y-71924201D01*
X156907728Y-72013587D01*
X155508145Y-70614004D01*
X155484342Y-70585000D01*
X155368617Y-70490027D01*
X155236588Y-70419455D01*
X155093327Y-70375998D01*
X154981674Y-70365001D01*
X154981663Y-70365001D01*
X154944341Y-70361325D01*
X154907019Y-70365001D01*
X147438072Y-70365001D01*
X147438072Y-69200000D01*
X147425812Y-69075518D01*
X147389502Y-68955820D01*
X147330537Y-68845506D01*
X147251185Y-68748815D01*
X147154494Y-68669463D01*
X147044180Y-68610498D01*
X146924482Y-68574188D01*
X146800000Y-68561928D01*
X145200000Y-68561928D01*
X145075518Y-68574188D01*
X144955820Y-68610498D01*
X144845506Y-68669463D01*
X144748815Y-68748815D01*
X144669463Y-68845506D01*
X144610498Y-68955820D01*
X144574188Y-69075518D01*
X144572419Y-69093482D01*
X144479608Y-68980392D01*
X144261101Y-68801068D01*
X144011808Y-68667818D01*
X143741309Y-68585764D01*
X143530492Y-68565000D01*
X143389508Y-68565000D01*
X143178691Y-68585764D01*
X142908192Y-68667818D01*
X142658899Y-68801068D01*
X142440392Y-68980392D01*
X142261068Y-69198899D01*
X142190000Y-69331858D01*
X142118932Y-69198899D01*
X141939608Y-68980392D01*
X141721101Y-68801068D01*
X141669790Y-68773642D01*
X143207018Y-67236414D01*
X143335241Y-67364637D01*
X143570273Y-67521680D01*
X143831426Y-67629853D01*
X144108665Y-67685000D01*
X144391335Y-67685000D01*
X144668574Y-67629853D01*
X144929727Y-67521680D01*
X145164759Y-67364637D01*
X145364637Y-67164759D01*
X145521680Y-66929727D01*
X145629853Y-66668574D01*
X145685000Y-66391335D01*
X145685000Y-66108665D01*
X145629853Y-65831426D01*
X145521680Y-65570273D01*
X145447275Y-65458918D01*
X145500789Y-65415000D01*
X145524592Y-65385996D01*
X146025175Y-64885413D01*
X151044192Y-64885413D01*
X151139956Y-65149814D01*
X151429571Y-65290704D01*
X151741108Y-65372384D01*
X152062595Y-65391718D01*
X152381675Y-65347961D01*
X152686088Y-65242795D01*
X152860044Y-65149814D01*
X152955808Y-64885413D01*
X157544192Y-64885413D01*
X157639956Y-65149814D01*
X157929571Y-65290704D01*
X158241108Y-65372384D01*
X158562595Y-65391718D01*
X158881675Y-65347961D01*
X159186088Y-65242795D01*
X159360044Y-65149814D01*
X159455808Y-64885413D01*
X163044192Y-64885413D01*
X163139956Y-65149814D01*
X163429571Y-65290704D01*
X163741108Y-65372384D01*
X164062595Y-65391718D01*
X164381675Y-65347961D01*
X164686088Y-65242795D01*
X164860044Y-65149814D01*
X164955808Y-64885413D01*
X169544192Y-64885413D01*
X169639956Y-65149814D01*
X169929571Y-65290704D01*
X170241108Y-65372384D01*
X170562595Y-65391718D01*
X170881675Y-65347961D01*
X171186088Y-65242795D01*
X171360044Y-65149814D01*
X171455808Y-64885413D01*
X170500000Y-63929605D01*
X169544192Y-64885413D01*
X164955808Y-64885413D01*
X164000000Y-63929605D01*
X163044192Y-64885413D01*
X159455808Y-64885413D01*
X158500000Y-63929605D01*
X157544192Y-64885413D01*
X152955808Y-64885413D01*
X152000000Y-63929605D01*
X151044192Y-64885413D01*
X146025175Y-64885413D01*
X147097993Y-63812595D01*
X150358282Y-63812595D01*
X150402039Y-64131675D01*
X150507205Y-64436088D01*
X150600186Y-64610044D01*
X150864587Y-64705808D01*
X151820395Y-63750000D01*
X152179605Y-63750000D01*
X153135413Y-64705808D01*
X153399814Y-64610044D01*
X153540704Y-64320429D01*
X153622384Y-64008892D01*
X153634189Y-63812595D01*
X156858282Y-63812595D01*
X156902039Y-64131675D01*
X157007205Y-64436088D01*
X157100186Y-64610044D01*
X157364587Y-64705808D01*
X158320395Y-63750000D01*
X158679605Y-63750000D01*
X159635413Y-64705808D01*
X159899814Y-64610044D01*
X160040704Y-64320429D01*
X160122384Y-64008892D01*
X160134189Y-63812595D01*
X162358282Y-63812595D01*
X162402039Y-64131675D01*
X162507205Y-64436088D01*
X162600186Y-64610044D01*
X162864587Y-64705808D01*
X163820395Y-63750000D01*
X164179605Y-63750000D01*
X165135413Y-64705808D01*
X165399814Y-64610044D01*
X165540704Y-64320429D01*
X165622384Y-64008892D01*
X165634189Y-63812595D01*
X168858282Y-63812595D01*
X168902039Y-64131675D01*
X169007205Y-64436088D01*
X169100186Y-64610044D01*
X169364587Y-64705808D01*
X170320395Y-63750000D01*
X170679605Y-63750000D01*
X171635413Y-64705808D01*
X171899814Y-64610044D01*
X172040704Y-64320429D01*
X172122384Y-64008892D01*
X172141718Y-63687405D01*
X172097961Y-63368325D01*
X171992795Y-63063912D01*
X171899814Y-62889956D01*
X171635413Y-62794192D01*
X170679605Y-63750000D01*
X170320395Y-63750000D01*
X169364587Y-62794192D01*
X169100186Y-62889956D01*
X168959296Y-63179571D01*
X168877616Y-63491108D01*
X168858282Y-63812595D01*
X165634189Y-63812595D01*
X165641718Y-63687405D01*
X165597961Y-63368325D01*
X165492795Y-63063912D01*
X165399814Y-62889956D01*
X165135413Y-62794192D01*
X164179605Y-63750000D01*
X163820395Y-63750000D01*
X162864587Y-62794192D01*
X162600186Y-62889956D01*
X162459296Y-63179571D01*
X162377616Y-63491108D01*
X162358282Y-63812595D01*
X160134189Y-63812595D01*
X160141718Y-63687405D01*
X160097961Y-63368325D01*
X159992795Y-63063912D01*
X159899814Y-62889956D01*
X159635413Y-62794192D01*
X158679605Y-63750000D01*
X158320395Y-63750000D01*
X157364587Y-62794192D01*
X157100186Y-62889956D01*
X156959296Y-63179571D01*
X156877616Y-63491108D01*
X156858282Y-63812595D01*
X153634189Y-63812595D01*
X153641718Y-63687405D01*
X153597961Y-63368325D01*
X153492795Y-63063912D01*
X153399814Y-62889956D01*
X153135413Y-62794192D01*
X152179605Y-63750000D01*
X151820395Y-63750000D01*
X150864587Y-62794192D01*
X150600186Y-62889956D01*
X150459296Y-63179571D01*
X150377616Y-63491108D01*
X150358282Y-63812595D01*
X147097993Y-63812595D01*
X148296001Y-62614587D01*
X151044192Y-62614587D01*
X152000000Y-63570395D01*
X152955808Y-62614587D01*
X157544192Y-62614587D01*
X158500000Y-63570395D01*
X159455808Y-62614587D01*
X163044192Y-62614587D01*
X164000000Y-63570395D01*
X164955808Y-62614587D01*
X169544192Y-62614587D01*
X170500000Y-63570395D01*
X171455808Y-62614587D01*
X171360044Y-62350186D01*
X171070429Y-62209296D01*
X170758892Y-62127616D01*
X170437405Y-62108282D01*
X170118325Y-62152039D01*
X169813912Y-62257205D01*
X169639956Y-62350186D01*
X169544192Y-62614587D01*
X164955808Y-62614587D01*
X164860044Y-62350186D01*
X164570429Y-62209296D01*
X164258892Y-62127616D01*
X163937405Y-62108282D01*
X163618325Y-62152039D01*
X163313912Y-62257205D01*
X163139956Y-62350186D01*
X163044192Y-62614587D01*
X159455808Y-62614587D01*
X159360044Y-62350186D01*
X159070429Y-62209296D01*
X158758892Y-62127616D01*
X158437405Y-62108282D01*
X158118325Y-62152039D01*
X157813912Y-62257205D01*
X157639956Y-62350186D01*
X157544192Y-62614587D01*
X152955808Y-62614587D01*
X152860044Y-62350186D01*
X152570429Y-62209296D01*
X152258892Y-62127616D01*
X151937405Y-62108282D01*
X151618325Y-62152039D01*
X151313912Y-62257205D01*
X151139956Y-62350186D01*
X151044192Y-62614587D01*
X148296001Y-62614587D01*
X150685282Y-60225307D01*
X150730013Y-60292252D01*
X150957748Y-60519987D01*
X151225537Y-60698918D01*
X151523088Y-60822168D01*
X151838967Y-60885000D01*
X152161033Y-60885000D01*
X152476912Y-60822168D01*
X152774463Y-60698918D01*
X153042252Y-60519987D01*
X153269987Y-60292252D01*
X153448918Y-60024463D01*
X153572168Y-59726912D01*
X153635000Y-59411033D01*
X153635000Y-59088967D01*
X156865000Y-59088967D01*
X156865000Y-59411033D01*
X156927832Y-59726912D01*
X157051082Y-60024463D01*
X157230013Y-60292252D01*
X157457748Y-60519987D01*
X157725537Y-60698918D01*
X158023088Y-60822168D01*
X158338967Y-60885000D01*
X158661033Y-60885000D01*
X158976912Y-60822168D01*
X159274463Y-60698918D01*
X159542252Y-60519987D01*
X159769987Y-60292252D01*
X159948918Y-60024463D01*
X160072168Y-59726912D01*
X160135000Y-59411033D01*
X160135000Y-59088967D01*
X162365000Y-59088967D01*
X162365000Y-59411033D01*
X162427832Y-59726912D01*
X162551082Y-60024463D01*
X162730013Y-60292252D01*
X162957748Y-60519987D01*
X163225537Y-60698918D01*
X163523088Y-60822168D01*
X163838967Y-60885000D01*
X164161033Y-60885000D01*
X164476912Y-60822168D01*
X164774463Y-60698918D01*
X165042252Y-60519987D01*
X165269987Y-60292252D01*
X165448918Y-60024463D01*
X165572168Y-59726912D01*
X165635000Y-59411033D01*
X165635000Y-59088967D01*
X168865000Y-59088967D01*
X168865000Y-59411033D01*
X168927832Y-59726912D01*
X169051082Y-60024463D01*
X169230013Y-60292252D01*
X169457748Y-60519987D01*
X169725537Y-60698918D01*
X170023088Y-60822168D01*
X170338967Y-60885000D01*
X170661033Y-60885000D01*
X170976912Y-60822168D01*
X171274463Y-60698918D01*
X171542252Y-60519987D01*
X171769987Y-60292252D01*
X171948918Y-60024463D01*
X172072168Y-59726912D01*
X172135000Y-59411033D01*
X172135000Y-59088967D01*
X172072168Y-58773088D01*
X171948918Y-58475537D01*
X171769987Y-58207748D01*
X171542252Y-57980013D01*
X171274463Y-57801082D01*
X170976912Y-57677832D01*
X170661033Y-57615000D01*
X170338967Y-57615000D01*
X170023088Y-57677832D01*
X169725537Y-57801082D01*
X169457748Y-57980013D01*
X169230013Y-58207748D01*
X169051082Y-58475537D01*
X168927832Y-58773088D01*
X168865000Y-59088967D01*
X165635000Y-59088967D01*
X165572168Y-58773088D01*
X165448918Y-58475537D01*
X165269987Y-58207748D01*
X165042252Y-57980013D01*
X164774463Y-57801082D01*
X164476912Y-57677832D01*
X164161033Y-57615000D01*
X163838967Y-57615000D01*
X163523088Y-57677832D01*
X163225537Y-57801082D01*
X162957748Y-57980013D01*
X162730013Y-58207748D01*
X162551082Y-58475537D01*
X162427832Y-58773088D01*
X162365000Y-59088967D01*
X160135000Y-59088967D01*
X160072168Y-58773088D01*
X159948918Y-58475537D01*
X159769987Y-58207748D01*
X159542252Y-57980013D01*
X159274463Y-57801082D01*
X158976912Y-57677832D01*
X158661033Y-57615000D01*
X158338967Y-57615000D01*
X158023088Y-57677832D01*
X157725537Y-57801082D01*
X157457748Y-57980013D01*
X157230013Y-58207748D01*
X157051082Y-58475537D01*
X156927832Y-58773088D01*
X156865000Y-59088967D01*
X153635000Y-59088967D01*
X153572168Y-58773088D01*
X153448918Y-58475537D01*
X153269987Y-58207748D01*
X153042252Y-57980013D01*
X152774463Y-57801082D01*
X152476912Y-57677832D01*
X152161033Y-57615000D01*
X151838967Y-57615000D01*
X151523088Y-57677832D01*
X151225537Y-57801082D01*
X150957748Y-57980013D01*
X150730013Y-58207748D01*
X150551082Y-58475537D01*
X150544948Y-58490345D01*
X150436801Y-58500997D01*
X150293540Y-58544454D01*
X150161510Y-58615026D01*
X150105115Y-58661309D01*
X150045786Y-58709999D01*
X150021988Y-58738997D01*
X144645987Y-64114999D01*
X120682323Y-64114999D01*
X120645000Y-64111323D01*
X120607677Y-64114999D01*
X120607668Y-64114999D01*
X120496015Y-64125996D01*
X120352754Y-64169453D01*
X120220725Y-64240025D01*
X120220723Y-64240026D01*
X120220724Y-64240026D01*
X120133997Y-64311200D01*
X120133993Y-64311204D01*
X120105000Y-64334998D01*
X120081206Y-64363991D01*
X115845907Y-68599292D01*
X115801309Y-68585764D01*
X115590492Y-68565000D01*
X115449508Y-68565000D01*
X115238691Y-68585764D01*
X114968192Y-68667818D01*
X114718899Y-68801068D01*
X114500392Y-68980392D01*
X114321068Y-69198899D01*
X114250000Y-69331858D01*
X114178932Y-69198899D01*
X113999608Y-68980392D01*
X113781101Y-68801068D01*
X113740000Y-68779099D01*
X113740000Y-65858665D01*
X114315000Y-65858665D01*
X114315000Y-66141335D01*
X114370147Y-66418574D01*
X114478320Y-66679727D01*
X114635363Y-66914759D01*
X114835241Y-67114637D01*
X115070273Y-67271680D01*
X115331426Y-67379853D01*
X115608665Y-67435000D01*
X115891335Y-67435000D01*
X116168574Y-67379853D01*
X116429727Y-67271680D01*
X116664759Y-67114637D01*
X116864637Y-66914759D01*
X117021680Y-66679727D01*
X117129853Y-66418574D01*
X117185000Y-66141335D01*
X117185000Y-65858665D01*
X117129853Y-65581426D01*
X117021680Y-65320273D01*
X116864637Y-65085241D01*
X116664759Y-64885363D01*
X116429727Y-64728320D01*
X116168574Y-64620147D01*
X115891335Y-64565000D01*
X115608665Y-64565000D01*
X115331426Y-64620147D01*
X115070273Y-64728320D01*
X114835241Y-64885363D01*
X114635363Y-65085241D01*
X114478320Y-65320273D01*
X114370147Y-65581426D01*
X114315000Y-65858665D01*
X113740000Y-65858665D01*
X113740000Y-64517333D01*
X113743677Y-64480000D01*
X113729003Y-64331014D01*
X113685546Y-64187753D01*
X113614974Y-64055724D01*
X113543799Y-63968997D01*
X113520001Y-63939999D01*
X113491004Y-63916202D01*
X109566177Y-59991376D01*
X109572168Y-59976912D01*
X109635000Y-59661033D01*
X109635000Y-59338967D01*
X109572168Y-59023088D01*
X109448918Y-58725537D01*
X109269987Y-58457748D01*
X109042252Y-58230013D01*
X108774463Y-58051082D01*
X108476912Y-57927832D01*
X108161033Y-57865000D01*
X107838967Y-57865000D01*
X107523088Y-57927832D01*
X107225537Y-58051082D01*
X106957748Y-58230013D01*
X106730013Y-58457748D01*
X106551082Y-58725537D01*
X106545091Y-58740000D01*
X102954909Y-58740000D01*
X102948918Y-58725537D01*
X102769987Y-58457748D01*
X102542252Y-58230013D01*
X102274463Y-58051082D01*
X101976912Y-57927832D01*
X101661033Y-57865000D01*
X101338967Y-57865000D01*
X101023088Y-57927832D01*
X100725537Y-58051082D01*
X100457748Y-58230013D01*
X100230013Y-58457748D01*
X100051082Y-58725537D01*
X100045091Y-58740000D01*
X99337612Y-58740000D01*
X97111399Y-56513788D01*
X97111399Y-56436018D01*
X97246223Y-56476916D01*
X97466381Y-56498600D01*
X97613619Y-56498600D01*
X97833777Y-56476916D01*
X97916900Y-56451701D01*
X98164797Y-56699598D01*
X98188600Y-56728602D01*
X98304325Y-56823575D01*
X98436354Y-56894147D01*
X98579615Y-56937604D01*
X98691268Y-56948601D01*
X98691277Y-56948601D01*
X98728600Y-56952277D01*
X98765923Y-56948601D01*
X105693207Y-56948601D01*
X105730529Y-56952277D01*
X105767851Y-56948601D01*
X105767862Y-56948601D01*
X105879515Y-56937604D01*
X106022776Y-56894147D01*
X106077305Y-56865000D01*
X115674623Y-56865000D01*
X115729153Y-56894147D01*
X115872414Y-56937603D01*
X116021399Y-56952277D01*
X116111828Y-56943370D01*
X116075906Y-56979292D01*
X116031309Y-56965764D01*
X115820492Y-56945000D01*
X115679508Y-56945000D01*
X115468691Y-56965764D01*
X115198192Y-57047818D01*
X114948899Y-57181068D01*
X114730392Y-57360392D01*
X114551068Y-57578899D01*
X114417818Y-57828192D01*
X114335764Y-58098691D01*
X114308057Y-58380000D01*
X114335764Y-58661309D01*
X114417818Y-58931808D01*
X114551068Y-59181101D01*
X114730392Y-59399608D01*
X114948899Y-59578932D01*
X115198192Y-59712182D01*
X115468691Y-59794236D01*
X115679508Y-59815000D01*
X115820492Y-59815000D01*
X116031309Y-59794236D01*
X116301808Y-59712182D01*
X116551101Y-59578932D01*
X116769608Y-59399608D01*
X116948932Y-59181101D01*
X117082182Y-58931808D01*
X117164236Y-58661309D01*
X117191943Y-58380000D01*
X121308057Y-58380000D01*
X121335764Y-58661309D01*
X121417818Y-58931808D01*
X121551068Y-59181101D01*
X121730392Y-59399608D01*
X121948899Y-59578932D01*
X122198192Y-59712182D01*
X122468691Y-59794236D01*
X122679508Y-59815000D01*
X122820492Y-59815000D01*
X123031309Y-59794236D01*
X123301808Y-59712182D01*
X123551101Y-59578932D01*
X123769608Y-59399608D01*
X123948932Y-59181101D01*
X124082182Y-58931808D01*
X124164236Y-58661309D01*
X124167319Y-58630000D01*
X135808057Y-58630000D01*
X135835764Y-58911309D01*
X135917818Y-59181808D01*
X136051068Y-59431101D01*
X136230392Y-59649608D01*
X136448899Y-59828932D01*
X136698192Y-59962182D01*
X136968691Y-60044236D01*
X137179508Y-60065000D01*
X137320492Y-60065000D01*
X137531309Y-60044236D01*
X137801808Y-59962182D01*
X138051101Y-59828932D01*
X138269608Y-59649608D01*
X138448932Y-59431101D01*
X138582182Y-59181808D01*
X138664236Y-58911309D01*
X138691943Y-58630000D01*
X138664236Y-58348691D01*
X138582182Y-58078192D01*
X138448932Y-57828899D01*
X138269608Y-57610392D01*
X138051101Y-57431068D01*
X137801808Y-57297818D01*
X137531309Y-57215764D01*
X137320492Y-57195000D01*
X137179508Y-57195000D01*
X136968691Y-57215764D01*
X136698192Y-57297818D01*
X136448899Y-57431068D01*
X136230392Y-57610392D01*
X136051068Y-57828899D01*
X135917818Y-58078192D01*
X135835764Y-58348691D01*
X135808057Y-58630000D01*
X124167319Y-58630000D01*
X124191943Y-58380000D01*
X124164236Y-58098691D01*
X124082182Y-57828192D01*
X123948932Y-57578899D01*
X123769608Y-57360392D01*
X123551101Y-57181068D01*
X123301808Y-57047818D01*
X123031309Y-56965764D01*
X122820492Y-56945000D01*
X122679508Y-56945000D01*
X122468691Y-56965764D01*
X122198192Y-57047818D01*
X121948899Y-57181068D01*
X121730392Y-57360392D01*
X121551068Y-57578899D01*
X121417818Y-57828192D01*
X121335764Y-58098691D01*
X121308057Y-58380000D01*
X117191943Y-58380000D01*
X117164236Y-58098691D01*
X117150708Y-58054094D01*
X118444802Y-56760000D01*
X123172678Y-56760000D01*
X123210000Y-56763676D01*
X123247322Y-56760000D01*
X123247333Y-56760000D01*
X123358986Y-56749003D01*
X123502247Y-56705546D01*
X123634276Y-56634974D01*
X123750001Y-56540001D01*
X123773804Y-56510997D01*
X124801070Y-55483731D01*
X125058816Y-55535000D01*
X125361184Y-55535000D01*
X125657743Y-55476011D01*
X125937095Y-55360299D01*
X126188505Y-55192312D01*
X126254944Y-55125873D01*
X126260498Y-55144180D01*
X126319463Y-55254494D01*
X126398815Y-55351185D01*
X126495506Y-55430537D01*
X126605820Y-55489502D01*
X126725518Y-55525812D01*
X126850000Y-55538072D01*
X127464250Y-55535000D01*
X127623000Y-55376250D01*
X127623000Y-54127000D01*
X127877000Y-54127000D01*
X127877000Y-55376250D01*
X128035750Y-55535000D01*
X128650000Y-55538072D01*
X128774482Y-55525812D01*
X128894180Y-55489502D01*
X129004494Y-55430537D01*
X129101185Y-55351185D01*
X129180537Y-55254494D01*
X129239502Y-55144180D01*
X129275812Y-55024482D01*
X129288072Y-54900000D01*
X129285000Y-54285750D01*
X129126250Y-54127000D01*
X127877000Y-54127000D01*
X127623000Y-54127000D01*
X127603000Y-54127000D01*
X127603000Y-53873000D01*
X127623000Y-53873000D01*
X127623000Y-53853000D01*
X127877000Y-53853000D01*
X127877000Y-53873000D01*
X129126250Y-53873000D01*
X129285000Y-53714250D01*
X129285896Y-53534999D01*
X130670198Y-53534999D01*
X130726269Y-53591070D01*
X130675000Y-53848816D01*
X130675000Y-54151184D01*
X130733989Y-54447743D01*
X130849701Y-54727095D01*
X131017688Y-54978505D01*
X131231495Y-55192312D01*
X131482905Y-55360299D01*
X131762257Y-55476011D01*
X132058816Y-55535000D01*
X132361184Y-55535000D01*
X132618930Y-55483731D01*
X132871197Y-55735998D01*
X132895000Y-55765002D01*
X133010725Y-55859975D01*
X133142754Y-55930547D01*
X133286015Y-55974004D01*
X133397668Y-55985001D01*
X133397677Y-55985001D01*
X133435000Y-55988677D01*
X133472323Y-55985001D01*
X140530200Y-55985001D01*
X142849292Y-58304094D01*
X142835764Y-58348691D01*
X142808057Y-58630000D01*
X142835764Y-58911309D01*
X142917818Y-59181808D01*
X143051068Y-59431101D01*
X143230392Y-59649608D01*
X143448899Y-59828932D01*
X143698192Y-59962182D01*
X143968691Y-60044236D01*
X144179508Y-60065000D01*
X144320492Y-60065000D01*
X144531309Y-60044236D01*
X144801808Y-59962182D01*
X145051101Y-59828932D01*
X145269608Y-59649608D01*
X145448932Y-59431101D01*
X145582182Y-59181808D01*
X145664236Y-58911309D01*
X145691943Y-58630000D01*
X145664236Y-58348691D01*
X145582182Y-58078192D01*
X145448932Y-57828899D01*
X145269608Y-57610392D01*
X145051101Y-57431068D01*
X144801808Y-57297818D01*
X144531309Y-57215764D01*
X144320492Y-57195000D01*
X144179508Y-57195000D01*
X143968691Y-57215764D01*
X143924094Y-57229292D01*
X142230777Y-55535975D01*
X142650000Y-55538072D01*
X142774482Y-55525812D01*
X142894180Y-55489502D01*
X143004494Y-55430537D01*
X143101185Y-55351185D01*
X143180537Y-55254494D01*
X143239502Y-55144180D01*
X143275812Y-55024482D01*
X143288072Y-54900000D01*
X143285000Y-54285750D01*
X143126250Y-54127000D01*
X141877000Y-54127000D01*
X141877000Y-54147000D01*
X141623000Y-54147000D01*
X141623000Y-54127000D01*
X141603000Y-54127000D01*
X141603000Y-53873000D01*
X141623000Y-53873000D01*
X141623000Y-52623750D01*
X141877000Y-52623750D01*
X141877000Y-53873000D01*
X143126250Y-53873000D01*
X143170133Y-53829117D01*
X174265000Y-53829117D01*
X174265000Y-54170883D01*
X174331675Y-54506081D01*
X174462463Y-54821831D01*
X174652337Y-55105998D01*
X174894002Y-55347663D01*
X175178169Y-55537537D01*
X175493919Y-55668325D01*
X175829117Y-55735000D01*
X176170883Y-55735000D01*
X176506081Y-55668325D01*
X176821831Y-55537537D01*
X177105998Y-55347663D01*
X177347663Y-55105998D01*
X177537537Y-54821831D01*
X177668325Y-54506081D01*
X177735000Y-54170883D01*
X177735000Y-53829117D01*
X177668325Y-53493919D01*
X177537537Y-53178169D01*
X177347663Y-52894002D01*
X177105998Y-52652337D01*
X176821831Y-52462463D01*
X176506081Y-52331675D01*
X176170883Y-52265000D01*
X175829117Y-52265000D01*
X175493919Y-52331675D01*
X175178169Y-52462463D01*
X174894002Y-52652337D01*
X174652337Y-52894002D01*
X174462463Y-53178169D01*
X174331675Y-53493919D01*
X174265000Y-53829117D01*
X143170133Y-53829117D01*
X143285000Y-53714250D01*
X143288072Y-53100000D01*
X143275812Y-52975518D01*
X143239502Y-52855820D01*
X143180537Y-52745506D01*
X143101185Y-52648815D01*
X143004494Y-52569463D01*
X142894180Y-52510498D01*
X142774482Y-52474188D01*
X142650000Y-52461928D01*
X142035750Y-52465000D01*
X141877000Y-52623750D01*
X141623000Y-52623750D01*
X141464250Y-52465000D01*
X140850000Y-52461928D01*
X140725518Y-52474188D01*
X140605820Y-52510498D01*
X140495506Y-52569463D01*
X140398815Y-52648815D01*
X140319463Y-52745506D01*
X140260498Y-52855820D01*
X140254944Y-52874127D01*
X140188505Y-52807688D01*
X139937095Y-52639701D01*
X139657743Y-52523989D01*
X139361184Y-52465000D01*
X139058816Y-52465000D01*
X138762257Y-52523989D01*
X138482905Y-52639701D01*
X138231495Y-52807688D01*
X138017688Y-53021495D01*
X137849701Y-53272905D01*
X137733989Y-53552257D01*
X137675000Y-53848816D01*
X137675000Y-54151184D01*
X137733989Y-54447743D01*
X137741138Y-54465001D01*
X136285896Y-54465001D01*
X136285000Y-54285750D01*
X136126250Y-54127000D01*
X134877000Y-54127000D01*
X134877000Y-54147000D01*
X134623000Y-54147000D01*
X134623000Y-54127000D01*
X134603000Y-54127000D01*
X134603000Y-53873000D01*
X134623000Y-53873000D01*
X134623000Y-52623750D01*
X134877000Y-52623750D01*
X134877000Y-53873000D01*
X136126250Y-53873000D01*
X136285000Y-53714250D01*
X136288072Y-53100000D01*
X136275812Y-52975518D01*
X136239502Y-52855820D01*
X136180537Y-52745506D01*
X136101185Y-52648815D01*
X136004494Y-52569463D01*
X135894180Y-52510498D01*
X135774482Y-52474188D01*
X135650000Y-52461928D01*
X135035750Y-52465000D01*
X134877000Y-52623750D01*
X134623000Y-52623750D01*
X134464250Y-52465000D01*
X133850000Y-52461928D01*
X133725518Y-52474188D01*
X133605820Y-52510498D01*
X133495506Y-52569463D01*
X133398815Y-52648815D01*
X133319463Y-52745506D01*
X133260498Y-52855820D01*
X133254944Y-52874127D01*
X133188505Y-52807688D01*
X132937095Y-52639701D01*
X132657743Y-52523989D01*
X132361184Y-52465000D01*
X132058816Y-52465000D01*
X131801070Y-52516269D01*
X131548803Y-52264002D01*
X131525000Y-52234998D01*
X131409275Y-52140025D01*
X131277246Y-52069453D01*
X131133985Y-52025996D01*
X131022332Y-52014999D01*
X131022321Y-52014999D01*
X130984999Y-52011323D01*
X130947677Y-52014999D01*
X117659322Y-52014999D01*
X117621999Y-52011323D01*
X117584676Y-52014999D01*
X117584666Y-52014999D01*
X117473013Y-52025996D01*
X117329752Y-52069453D01*
X117197722Y-52140025D01*
X117116284Y-52206860D01*
X117081998Y-52234998D01*
X117058200Y-52263996D01*
X116270798Y-53051399D01*
X106532738Y-53051399D01*
X106614963Y-52819027D01*
X106494464Y-52587000D01*
X105287000Y-52587000D01*
X105287000Y-52607000D01*
X105033000Y-52607000D01*
X105033000Y-52587000D01*
X105013000Y-52587000D01*
X105013000Y-52333000D01*
X105033000Y-52333000D01*
X105033000Y-51126183D01*
X105287000Y-51126183D01*
X105287000Y-52333000D01*
X106494464Y-52333000D01*
X106614963Y-52100973D01*
X106516964Y-51824022D01*
X106366817Y-51571512D01*
X106170293Y-51353146D01*
X105934944Y-51177316D01*
X105669814Y-51050778D01*
X105519026Y-51005042D01*
X105287000Y-51126183D01*
X105033000Y-51126183D01*
X104800974Y-51005042D01*
X104650186Y-51050778D01*
X104385056Y-51177316D01*
X104149707Y-51353146D01*
X103953183Y-51571512D01*
X103895863Y-51667910D01*
X103872069Y-51623394D01*
X103684797Y-51395203D01*
X103456606Y-51207931D01*
X103196264Y-51068775D01*
X102913777Y-50983084D01*
X102693619Y-50961400D01*
X102546381Y-50961400D01*
X102326223Y-50983084D01*
X102043736Y-51068775D01*
X101783394Y-51207931D01*
X101555203Y-51395203D01*
X101367931Y-51623394D01*
X101350000Y-51656940D01*
X101332069Y-51623394D01*
X101144797Y-51395203D01*
X100916606Y-51207931D01*
X100656264Y-51068775D01*
X100373777Y-50983084D01*
X100153619Y-50961400D01*
X100006381Y-50961400D01*
X99786223Y-50983084D01*
X99503736Y-51068775D01*
X99243394Y-51207931D01*
X99015203Y-51395203D01*
X98827931Y-51623394D01*
X98810000Y-51656940D01*
X98792069Y-51623394D01*
X98604797Y-51395203D01*
X98376606Y-51207931D01*
X98116264Y-51068775D01*
X97833777Y-50983084D01*
X97613619Y-50961400D01*
X97466381Y-50961400D01*
X97246223Y-50983084D01*
X96963736Y-51068775D01*
X96703394Y-51207931D01*
X96475203Y-51395203D01*
X96287931Y-51623394D01*
X96270000Y-51656940D01*
X96252069Y-51623394D01*
X96064797Y-51395203D01*
X95836606Y-51207931D01*
X95576264Y-51068775D01*
X95293777Y-50983084D01*
X95073619Y-50961400D01*
X94926381Y-50961400D01*
X94706223Y-50983084D01*
X94423736Y-51068775D01*
X94163394Y-51207931D01*
X93935203Y-51395203D01*
X93747931Y-51623394D01*
X93608775Y-51883736D01*
X93523084Y-52166223D01*
X93494149Y-52460000D01*
X93523084Y-52753777D01*
X93548299Y-52836900D01*
X92738998Y-53646201D01*
X92710000Y-53669999D01*
X92686202Y-53698997D01*
X92686201Y-53698998D01*
X92615026Y-53785724D01*
X92544454Y-53917754D01*
X92521071Y-53994840D01*
X92500998Y-54061014D01*
X92494636Y-54125610D01*
X92486324Y-54210000D01*
X92490001Y-54247332D01*
X92490000Y-56712677D01*
X92486324Y-56750000D01*
X92490000Y-56787322D01*
X92490000Y-56787332D01*
X92500997Y-56898985D01*
X92524837Y-56977575D01*
X92544454Y-57042246D01*
X92615026Y-57174276D01*
X92632034Y-57195000D01*
X92709999Y-57290001D01*
X92739003Y-57313804D01*
X94165198Y-58740000D01*
X90954909Y-58740000D01*
X90948918Y-58725537D01*
X90769987Y-58457748D01*
X90542252Y-58230013D01*
X90274463Y-58051082D01*
X89976912Y-57927832D01*
X89661033Y-57865000D01*
X89338967Y-57865000D01*
X89023088Y-57927832D01*
X88725537Y-58051082D01*
X88457748Y-58230013D01*
X88230013Y-58457748D01*
X88051082Y-58725537D01*
X87927832Y-59023088D01*
X87865000Y-59338967D01*
X87865000Y-59661033D01*
X87927832Y-59976912D01*
X88051082Y-60274463D01*
X88230013Y-60542252D01*
X88457748Y-60769987D01*
X88725537Y-60948918D01*
X89023088Y-61072168D01*
X89338967Y-61135000D01*
X89661033Y-61135000D01*
X89976912Y-61072168D01*
X90274463Y-60948918D01*
X90542252Y-60769987D01*
X90769987Y-60542252D01*
X90948918Y-60274463D01*
X90954909Y-60260000D01*
X94545091Y-60260000D01*
X94551082Y-60274463D01*
X94730013Y-60542252D01*
X94957748Y-60769987D01*
X95225537Y-60948918D01*
X95523088Y-61072168D01*
X95838967Y-61135000D01*
X96161033Y-61135000D01*
X96476912Y-61072168D01*
X96774463Y-60948918D01*
X97042252Y-60769987D01*
X97240000Y-60572239D01*
X97240000Y-63082073D01*
X97135413Y-63044192D01*
X96179605Y-64000000D01*
X97135413Y-64955808D01*
X97240000Y-64917927D01*
X97240001Y-70159099D01*
X97198899Y-70181068D01*
X96980392Y-70360392D01*
X96801068Y-70578899D01*
X96779099Y-70620000D01*
X93407322Y-70620000D01*
X93369999Y-70616324D01*
X93332676Y-70620000D01*
X93332667Y-70620000D01*
X93221014Y-70630997D01*
X93077753Y-70674454D01*
X92945724Y-70745026D01*
X92829999Y-70839999D01*
X92806201Y-70868997D01*
X88489003Y-75186196D01*
X88459999Y-75209999D01*
X88404871Y-75277174D01*
X88365026Y-75325724D01*
X88345674Y-75361928D01*
X88000000Y-75361928D01*
X87875518Y-75374188D01*
X87755820Y-75410498D01*
X87645506Y-75469463D01*
X87548815Y-75548815D01*
X87469463Y-75645506D01*
X87410498Y-75755820D01*
X87374188Y-75875518D01*
X87361928Y-76000000D01*
X80660000Y-76000000D01*
X80660000Y-73135413D01*
X88044192Y-73135413D01*
X88139956Y-73399814D01*
X88429571Y-73540704D01*
X88741108Y-73622384D01*
X89062595Y-73641718D01*
X89381675Y-73597961D01*
X89686088Y-73492795D01*
X89860044Y-73399814D01*
X89955808Y-73135413D01*
X89000000Y-72179605D01*
X88044192Y-73135413D01*
X80660000Y-73135413D01*
X80660000Y-72062595D01*
X87358282Y-72062595D01*
X87402039Y-72381675D01*
X87507205Y-72686088D01*
X87600186Y-72860044D01*
X87864587Y-72955808D01*
X88820395Y-72000000D01*
X89179605Y-72000000D01*
X90135413Y-72955808D01*
X90399814Y-72860044D01*
X90540704Y-72570429D01*
X90622384Y-72258892D01*
X90641718Y-71937405D01*
X90597961Y-71618325D01*
X90492795Y-71313912D01*
X90399814Y-71139956D01*
X90135413Y-71044192D01*
X89179605Y-72000000D01*
X88820395Y-72000000D01*
X87864587Y-71044192D01*
X87600186Y-71139956D01*
X87459296Y-71429571D01*
X87377616Y-71741108D01*
X87358282Y-72062595D01*
X80660000Y-72062595D01*
X80660000Y-70864587D01*
X88044192Y-70864587D01*
X89000000Y-71820395D01*
X89955808Y-70864587D01*
X89860044Y-70600186D01*
X89570429Y-70459296D01*
X89258892Y-70377616D01*
X88937405Y-70358282D01*
X88618325Y-70402039D01*
X88313912Y-70507205D01*
X88139956Y-70600186D01*
X88044192Y-70864587D01*
X80660000Y-70864587D01*
X80660000Y-65135413D01*
X88544192Y-65135413D01*
X88639956Y-65399814D01*
X88929571Y-65540704D01*
X89241108Y-65622384D01*
X89562595Y-65641718D01*
X89881675Y-65597961D01*
X90186088Y-65492795D01*
X90360044Y-65399814D01*
X90455808Y-65135413D01*
X95044192Y-65135413D01*
X95139956Y-65399814D01*
X95429571Y-65540704D01*
X95741108Y-65622384D01*
X96062595Y-65641718D01*
X96381675Y-65597961D01*
X96686088Y-65492795D01*
X96860044Y-65399814D01*
X96955808Y-65135413D01*
X96000000Y-64179605D01*
X95044192Y-65135413D01*
X90455808Y-65135413D01*
X89500000Y-64179605D01*
X88544192Y-65135413D01*
X80660000Y-65135413D01*
X80660000Y-64062595D01*
X87858282Y-64062595D01*
X87902039Y-64381675D01*
X88007205Y-64686088D01*
X88100186Y-64860044D01*
X88364587Y-64955808D01*
X89320395Y-64000000D01*
X89679605Y-64000000D01*
X90635413Y-64955808D01*
X90899814Y-64860044D01*
X91040704Y-64570429D01*
X91122384Y-64258892D01*
X91134189Y-64062595D01*
X94358282Y-64062595D01*
X94402039Y-64381675D01*
X94507205Y-64686088D01*
X94600186Y-64860044D01*
X94864587Y-64955808D01*
X95820395Y-64000000D01*
X94864587Y-63044192D01*
X94600186Y-63139956D01*
X94459296Y-63429571D01*
X94377616Y-63741108D01*
X94358282Y-64062595D01*
X91134189Y-64062595D01*
X91141718Y-63937405D01*
X91097961Y-63618325D01*
X90992795Y-63313912D01*
X90899814Y-63139956D01*
X90635413Y-63044192D01*
X89679605Y-64000000D01*
X89320395Y-64000000D01*
X88364587Y-63044192D01*
X88100186Y-63139956D01*
X87959296Y-63429571D01*
X87877616Y-63741108D01*
X87858282Y-64062595D01*
X80660000Y-64062595D01*
X80660000Y-62864587D01*
X88544192Y-62864587D01*
X89500000Y-63820395D01*
X90455808Y-62864587D01*
X95044192Y-62864587D01*
X96000000Y-63820395D01*
X96955808Y-62864587D01*
X96860044Y-62600186D01*
X96570429Y-62459296D01*
X96258892Y-62377616D01*
X95937405Y-62358282D01*
X95618325Y-62402039D01*
X95313912Y-62507205D01*
X95139956Y-62600186D01*
X95044192Y-62864587D01*
X90455808Y-62864587D01*
X90360044Y-62600186D01*
X90070429Y-62459296D01*
X89758892Y-62377616D01*
X89437405Y-62358282D01*
X89118325Y-62402039D01*
X88813912Y-62507205D01*
X88639956Y-62600186D01*
X88544192Y-62864587D01*
X80660000Y-62864587D01*
X80660000Y-55029392D01*
X80731173Y-54231917D01*
X80841366Y-53829117D01*
X82265000Y-53829117D01*
X82265000Y-54170883D01*
X82331675Y-54506081D01*
X82462463Y-54821831D01*
X82652337Y-55105998D01*
X82894002Y-55347663D01*
X83178169Y-55537537D01*
X83493919Y-55668325D01*
X83829117Y-55735000D01*
X84170883Y-55735000D01*
X84506081Y-55668325D01*
X84821831Y-55537537D01*
X85105998Y-55347663D01*
X85347663Y-55105998D01*
X85537537Y-54821831D01*
X85668325Y-54506081D01*
X85735000Y-54170883D01*
X85735000Y-53829117D01*
X85668325Y-53493919D01*
X85537537Y-53178169D01*
X85347663Y-52894002D01*
X85105998Y-52652337D01*
X84821831Y-52462463D01*
X84506081Y-52331675D01*
X84170883Y-52265000D01*
X83829117Y-52265000D01*
X83493919Y-52331675D01*
X83178169Y-52462463D01*
X82894002Y-52652337D01*
X82652337Y-52894002D01*
X82462463Y-53178169D01*
X82331675Y-53493919D01*
X82265000Y-53829117D01*
X80841366Y-53829117D01*
X80934656Y-53488109D01*
X81266638Y-52792095D01*
X81716626Y-52165870D01*
X82270403Y-51629223D01*
X82910451Y-51199129D01*
X83616553Y-50889171D01*
X84371457Y-50707935D01*
X85024207Y-50660000D01*
X174970608Y-50660000D01*
X175768083Y-50731173D01*
X175768083Y-50731173D01*
G37*
X175768083Y-50731173D02*
X176511891Y-50934656D01*
X177207905Y-51266638D01*
X177834130Y-51716626D01*
X178370777Y-52270403D01*
X178800871Y-52910451D01*
X179110829Y-53616553D01*
X179292065Y-54371457D01*
X179340000Y-55024207D01*
X179340001Y-94967572D01*
X179340000Y-94967582D01*
X179340001Y-104970597D01*
X179268827Y-105768083D01*
X179065344Y-106511890D01*
X178733363Y-107207904D01*
X178283374Y-107834130D01*
X177729597Y-108370777D01*
X177089549Y-108800871D01*
X176383447Y-109110829D01*
X175628543Y-109292065D01*
X174975793Y-109340000D01*
X85029392Y-109340000D01*
X84231917Y-109268827D01*
X83488110Y-109065344D01*
X82792096Y-108733363D01*
X82165870Y-108283374D01*
X81629223Y-107729597D01*
X81199129Y-107089549D01*
X80889171Y-106383447D01*
X80756089Y-105829117D01*
X82265000Y-105829117D01*
X82265000Y-106170883D01*
X82331675Y-106506081D01*
X82462463Y-106821831D01*
X82652337Y-107105998D01*
X82894002Y-107347663D01*
X83178169Y-107537537D01*
X83493919Y-107668325D01*
X83829117Y-107735000D01*
X84170883Y-107735000D01*
X84506081Y-107668325D01*
X84821831Y-107537537D01*
X85105998Y-107347663D01*
X85347663Y-107105998D01*
X85537537Y-106821831D01*
X85668325Y-106506081D01*
X85735000Y-106170883D01*
X85735000Y-105829117D01*
X174265000Y-105829117D01*
X174265000Y-106170883D01*
X174331675Y-106506081D01*
X174462463Y-106821831D01*
X174652337Y-107105998D01*
X174894002Y-107347663D01*
X175178169Y-107537537D01*
X175493919Y-107668325D01*
X175829117Y-107735000D01*
X176170883Y-107735000D01*
X176506081Y-107668325D01*
X176821831Y-107537537D01*
X177105998Y-107347663D01*
X177347663Y-107105998D01*
X177537537Y-106821831D01*
X177668325Y-106506081D01*
X177735000Y-106170883D01*
X177735000Y-105829117D01*
X177668325Y-105493919D01*
X177537537Y-105178169D01*
X177347663Y-104894002D01*
X177105998Y-104652337D01*
X176821831Y-104462463D01*
X176506081Y-104331675D01*
X176170883Y-104265000D01*
X175829117Y-104265000D01*
X175493919Y-104331675D01*
X175178169Y-104462463D01*
X174894002Y-104652337D01*
X174652337Y-104894002D01*
X174462463Y-105178169D01*
X174331675Y-105493919D01*
X174265000Y-105829117D01*
X85735000Y-105829117D01*
X85668325Y-105493919D01*
X85537537Y-105178169D01*
X85347663Y-104894002D01*
X85105998Y-104652337D01*
X84821831Y-104462463D01*
X84506081Y-104331675D01*
X84170883Y-104265000D01*
X83829117Y-104265000D01*
X83493919Y-104331675D01*
X83178169Y-104462463D01*
X82894002Y-104652337D01*
X82652337Y-104894002D01*
X82462463Y-105178169D01*
X82331675Y-105493919D01*
X82265000Y-105829117D01*
X80756089Y-105829117D01*
X80707935Y-105628543D01*
X80660000Y-104975793D01*
X80660000Y-102335413D01*
X94044192Y-102335413D01*
X94139956Y-102599814D01*
X94429571Y-102740704D01*
X94741108Y-102822384D01*
X95062595Y-102841718D01*
X95381675Y-102797961D01*
X95686088Y-102692795D01*
X95860044Y-102599814D01*
X95955808Y-102335413D01*
X95000000Y-101379605D01*
X94044192Y-102335413D01*
X80660000Y-102335413D01*
X80660000Y-101262595D01*
X93358282Y-101262595D01*
X93402039Y-101581675D01*
X93507205Y-101886088D01*
X93600186Y-102060044D01*
X93864587Y-102155808D01*
X94820395Y-101200000D01*
X95179605Y-101200000D01*
X96135413Y-102155808D01*
X96399814Y-102060044D01*
X96540704Y-101770429D01*
X96622384Y-101458892D01*
X96641718Y-101137405D01*
X96597961Y-100818325D01*
X96492795Y-100513912D01*
X96399814Y-100339956D01*
X96135413Y-100244192D01*
X95179605Y-101200000D01*
X94820395Y-101200000D01*
X93864587Y-100244192D01*
X93600186Y-100339956D01*
X93459296Y-100629571D01*
X93377616Y-100941108D01*
X93358282Y-101262595D01*
X80660000Y-101262595D01*
X80660000Y-100064587D01*
X94044192Y-100064587D01*
X95000000Y-101020395D01*
X95955808Y-100064587D01*
X95860044Y-99800186D01*
X95570429Y-99659296D01*
X95258892Y-99577616D01*
X94937405Y-99558282D01*
X94618325Y-99602039D01*
X94313912Y-99707205D01*
X94139956Y-99800186D01*
X94044192Y-100064587D01*
X80660000Y-100064587D01*
X80660000Y-96967560D01*
X131250000Y-96967560D01*
X131250000Y-97432440D01*
X131340694Y-97888387D01*
X131518595Y-98317879D01*
X131776868Y-98704412D01*
X132105588Y-99033132D01*
X132492121Y-99291405D01*
X132921613Y-99469306D01*
X133377560Y-99560000D01*
X133842440Y-99560000D01*
X134298387Y-99469306D01*
X134727879Y-99291405D01*
X135114412Y-99033132D01*
X135288879Y-98858665D01*
X148315000Y-98858665D01*
X148315000Y-99141335D01*
X148370147Y-99418574D01*
X148478320Y-99679727D01*
X148635363Y-99914759D01*
X148835241Y-100114637D01*
X149070273Y-100271680D01*
X149331426Y-100379853D01*
X149608665Y-100435000D01*
X149891335Y-100435000D01*
X150168574Y-100379853D01*
X150429727Y-100271680D01*
X150664759Y-100114637D01*
X150786694Y-99992702D01*
X153936903Y-99992702D01*
X154008486Y-100236671D01*
X154263996Y-100357571D01*
X154538184Y-100426300D01*
X154820512Y-100440217D01*
X155100130Y-100398787D01*
X155366292Y-100303603D01*
X155491514Y-100236671D01*
X155563097Y-99992702D01*
X154750000Y-99179605D01*
X153936903Y-99992702D01*
X150786694Y-99992702D01*
X150864637Y-99914759D01*
X151021680Y-99679727D01*
X151129853Y-99418574D01*
X151185000Y-99141335D01*
X151185000Y-99070512D01*
X153309783Y-99070512D01*
X153351213Y-99350130D01*
X153446397Y-99616292D01*
X153513329Y-99741514D01*
X153757298Y-99813097D01*
X154570395Y-99000000D01*
X154929605Y-99000000D01*
X155742702Y-99813097D01*
X155986671Y-99741514D01*
X156107571Y-99486004D01*
X156176300Y-99211816D01*
X156190217Y-98929488D01*
X156148787Y-98649870D01*
X156053603Y-98383708D01*
X155986671Y-98258486D01*
X155742702Y-98186903D01*
X154929605Y-99000000D01*
X154570395Y-99000000D01*
X153757298Y-98186903D01*
X153513329Y-98258486D01*
X153392429Y-98513996D01*
X153323700Y-98788184D01*
X153309783Y-99070512D01*
X151185000Y-99070512D01*
X151185000Y-98858665D01*
X151129853Y-98581426D01*
X151021680Y-98320273D01*
X150864637Y-98085241D01*
X150786694Y-98007298D01*
X153936903Y-98007298D01*
X154750000Y-98820395D01*
X155563097Y-98007298D01*
X155531615Y-97900000D01*
X156261928Y-97900000D01*
X156261928Y-100100000D01*
X156274188Y-100224482D01*
X156310498Y-100344180D01*
X156369463Y-100454494D01*
X156448815Y-100551185D01*
X156545506Y-100630537D01*
X156655820Y-100689502D01*
X156775518Y-100725812D01*
X156900000Y-100738072D01*
X159100000Y-100738072D01*
X159224482Y-100725812D01*
X159344180Y-100689502D01*
X159454494Y-100630537D01*
X159551185Y-100551185D01*
X159630537Y-100454494D01*
X159689502Y-100344180D01*
X159725812Y-100224482D01*
X159738072Y-100100000D01*
X159738072Y-99000000D01*
X163876606Y-99000000D01*
X163910105Y-99340119D01*
X164009314Y-99667168D01*
X164170421Y-99968578D01*
X164387234Y-100232766D01*
X164651422Y-100449579D01*
X164952832Y-100610686D01*
X165279881Y-100709895D01*
X165534775Y-100735000D01*
X165705225Y-100735000D01*
X165960119Y-100709895D01*
X166287168Y-100610686D01*
X166588578Y-100449579D01*
X166852766Y-100232766D01*
X167069579Y-99968578D01*
X167230686Y-99667168D01*
X167329895Y-99340119D01*
X167363394Y-99000000D01*
X167329895Y-98659881D01*
X167230686Y-98332832D01*
X167069579Y-98031422D01*
X167002758Y-97950000D01*
X172311928Y-97950000D01*
X172311928Y-99550000D01*
X172324188Y-99674482D01*
X172360498Y-99794180D01*
X172419463Y-99904494D01*
X172498815Y-100001185D01*
X172595506Y-100080537D01*
X172705820Y-100139502D01*
X172825518Y-100175812D01*
X172950000Y-100188072D01*
X174550000Y-100188072D01*
X174674482Y-100175812D01*
X174794180Y-100139502D01*
X174904494Y-100080537D01*
X175001185Y-100001185D01*
X175080537Y-99904494D01*
X175139502Y-99794180D01*
X175175812Y-99674482D01*
X175188072Y-99550000D01*
X175188072Y-97950000D01*
X175175812Y-97825518D01*
X175139502Y-97705820D01*
X175080537Y-97595506D01*
X175001185Y-97498815D01*
X174904494Y-97419463D01*
X174794180Y-97360498D01*
X174674482Y-97324188D01*
X174550000Y-97311928D01*
X174542785Y-97311928D01*
X174563097Y-97242702D01*
X173750000Y-96429605D01*
X172936903Y-97242702D01*
X172957215Y-97311928D01*
X172950000Y-97311928D01*
X172825518Y-97324188D01*
X172705820Y-97360498D01*
X172595506Y-97419463D01*
X172498815Y-97498815D01*
X172419463Y-97595506D01*
X172360498Y-97705820D01*
X172324188Y-97825518D01*
X172311928Y-97950000D01*
X167002758Y-97950000D01*
X166852766Y-97767234D01*
X166588578Y-97550421D01*
X166287168Y-97389314D01*
X165960119Y-97290105D01*
X165705225Y-97265000D01*
X165534775Y-97265000D01*
X165279881Y-97290105D01*
X164952832Y-97389314D01*
X164651422Y-97550421D01*
X164387234Y-97767234D01*
X164170421Y-98031422D01*
X164009314Y-98332832D01*
X163910105Y-98659881D01*
X163876606Y-99000000D01*
X159738072Y-99000000D01*
X159738072Y-97900000D01*
X159725812Y-97775518D01*
X159689502Y-97655820D01*
X159630537Y-97545506D01*
X159551185Y-97448815D01*
X159454494Y-97369463D01*
X159344180Y-97310498D01*
X159224482Y-97274188D01*
X159100000Y-97261928D01*
X156900000Y-97261928D01*
X156775518Y-97274188D01*
X156655820Y-97310498D01*
X156545506Y-97369463D01*
X156448815Y-97448815D01*
X156369463Y-97545506D01*
X156310498Y-97655820D01*
X156274188Y-97775518D01*
X156261928Y-97900000D01*
X155531615Y-97900000D01*
X155491514Y-97763329D01*
X155236004Y-97642429D01*
X154961816Y-97573700D01*
X154679488Y-97559783D01*
X154399870Y-97601213D01*
X154133708Y-97696397D01*
X154008486Y-97763329D01*
X153936903Y-98007298D01*
X150786694Y-98007298D01*
X150664759Y-97885363D01*
X150510000Y-97781957D01*
X150510000Y-96536335D01*
X150531309Y-96534236D01*
X150801808Y-96452182D01*
X151048145Y-96320512D01*
X172309783Y-96320512D01*
X172351213Y-96600130D01*
X172446397Y-96866292D01*
X172513329Y-96991514D01*
X172757298Y-97063097D01*
X173570395Y-96250000D01*
X173929605Y-96250000D01*
X174742702Y-97063097D01*
X174986671Y-96991514D01*
X175107571Y-96736004D01*
X175176300Y-96461816D01*
X175190217Y-96179488D01*
X175148787Y-95899870D01*
X175053603Y-95633708D01*
X174986671Y-95508486D01*
X174742702Y-95436903D01*
X173929605Y-96250000D01*
X173570395Y-96250000D01*
X172757298Y-95436903D01*
X172513329Y-95508486D01*
X172392429Y-95763996D01*
X172323700Y-96038184D01*
X172309783Y-96320512D01*
X151048145Y-96320512D01*
X151051101Y-96318932D01*
X151269608Y-96139608D01*
X151448932Y-95921101D01*
X151582182Y-95671808D01*
X151664236Y-95401309D01*
X151691943Y-95120000D01*
X151664236Y-94838691D01*
X151582182Y-94568192D01*
X151448932Y-94318899D01*
X151269608Y-94100392D01*
X151051101Y-93921068D01*
X150801808Y-93787818D01*
X150531309Y-93705764D01*
X150320492Y-93685000D01*
X150179508Y-93685000D01*
X149968691Y-93705764D01*
X149698192Y-93787818D01*
X149448899Y-93921068D01*
X149230392Y-94100392D01*
X149051068Y-94318899D01*
X148917818Y-94568192D01*
X148835764Y-94838691D01*
X148808057Y-95120000D01*
X148835764Y-95401309D01*
X148917818Y-95671808D01*
X148990001Y-95806853D01*
X148990000Y-97781956D01*
X148835241Y-97885363D01*
X148635363Y-98085241D01*
X148478320Y-98320273D01*
X148370147Y-98581426D01*
X148315000Y-98858665D01*
X135288879Y-98858665D01*
X135443132Y-98704412D01*
X135701405Y-98317879D01*
X135879306Y-97888387D01*
X135970000Y-97432440D01*
X135970000Y-96967560D01*
X135879306Y-96511613D01*
X135701405Y-96082121D01*
X135443132Y-95695588D01*
X135114412Y-95366868D01*
X134727879Y-95108595D01*
X134298387Y-94930694D01*
X133842440Y-94840000D01*
X133377560Y-94840000D01*
X132921613Y-94930694D01*
X132492121Y-95108595D01*
X132105588Y-95366868D01*
X131776868Y-95695588D01*
X131518595Y-96082121D01*
X131340694Y-96511613D01*
X131250000Y-96967560D01*
X80660000Y-96967560D01*
X80660000Y-84851278D01*
X81490000Y-84851278D01*
X81490000Y-85148722D01*
X81548029Y-85440451D01*
X81661856Y-85715253D01*
X81827107Y-85962569D01*
X81952927Y-86088389D01*
X81924201Y-86117114D01*
X81772629Y-86343957D01*
X81668225Y-86596011D01*
X81615000Y-86863589D01*
X81615000Y-87136411D01*
X81668225Y-87403989D01*
X81772629Y-87656043D01*
X81924201Y-87882886D01*
X82041315Y-88000000D01*
X81924201Y-88117114D01*
X81772629Y-88343957D01*
X81668225Y-88596011D01*
X81615000Y-88863589D01*
X81615000Y-89136411D01*
X81668225Y-89403989D01*
X81772629Y-89656043D01*
X81924201Y-89882886D01*
X82041315Y-90000000D01*
X81924201Y-90117114D01*
X81772629Y-90343957D01*
X81668225Y-90596011D01*
X81615000Y-90863589D01*
X81615000Y-91136411D01*
X81668225Y-91403989D01*
X81772629Y-91656043D01*
X81924201Y-91882886D01*
X81952927Y-91911612D01*
X81827107Y-92037431D01*
X81661856Y-92284747D01*
X81548029Y-92559549D01*
X81490000Y-92851278D01*
X81490000Y-93148722D01*
X81548029Y-93440451D01*
X81661856Y-93715253D01*
X81827107Y-93962569D01*
X82037431Y-94172893D01*
X82284747Y-94338144D01*
X82559549Y-94451971D01*
X82851278Y-94510000D01*
X83148722Y-94510000D01*
X83440451Y-94451971D01*
X83715253Y-94338144D01*
X83962569Y-94172893D01*
X84172893Y-93962569D01*
X84338144Y-93715253D01*
X84451971Y-93440451D01*
X84510000Y-93148722D01*
X84510000Y-92851278D01*
X84451971Y-92559549D01*
X84338144Y-92284747D01*
X84326661Y-92267560D01*
X101280000Y-92267560D01*
X101280000Y-92732440D01*
X101370694Y-93188387D01*
X101548595Y-93617879D01*
X101806868Y-94004412D01*
X102135588Y-94333132D01*
X102522121Y-94591405D01*
X102951613Y-94769306D01*
X103407560Y-94860000D01*
X103872440Y-94860000D01*
X104328387Y-94769306D01*
X104757879Y-94591405D01*
X105144412Y-94333132D01*
X105473132Y-94004412D01*
X105731405Y-93617879D01*
X105909306Y-93188387D01*
X106000000Y-92732440D01*
X106000000Y-92267560D01*
X105909306Y-91811613D01*
X105731405Y-91382121D01*
X105473132Y-90995588D01*
X105144412Y-90666868D01*
X104757879Y-90408595D01*
X104328387Y-90230694D01*
X103872440Y-90140000D01*
X103407560Y-90140000D01*
X102951613Y-90230694D01*
X102522121Y-90408595D01*
X102135588Y-90666868D01*
X101806868Y-90995588D01*
X101548595Y-91382121D01*
X101370694Y-91811613D01*
X101280000Y-92267560D01*
X84326661Y-92267560D01*
X84172893Y-92037431D01*
X84047074Y-91911612D01*
X84075799Y-91882886D01*
X84227371Y-91656043D01*
X84331775Y-91403989D01*
X84385000Y-91136411D01*
X84385000Y-90863589D01*
X84331775Y-90596011D01*
X84227371Y-90343957D01*
X84075799Y-90117114D01*
X83958685Y-90000000D01*
X84075799Y-89882886D01*
X84157909Y-89760000D01*
X93418954Y-89760000D01*
X93469463Y-89854494D01*
X93548815Y-89951185D01*
X93645506Y-90030537D01*
X93755820Y-90089502D01*
X93875518Y-90125812D01*
X94000000Y-90138072D01*
X96000000Y-90138072D01*
X96124482Y-90125812D01*
X96244180Y-90089502D01*
X96354494Y-90030537D01*
X96451185Y-89951185D01*
X96530537Y-89854494D01*
X96589502Y-89744180D01*
X96625812Y-89624482D01*
X96638072Y-89500000D01*
X96638072Y-87500000D01*
X96625812Y-87375518D01*
X96620700Y-87358665D01*
X148815000Y-87358665D01*
X148815000Y-87641335D01*
X148870147Y-87918574D01*
X148978320Y-88179727D01*
X149135363Y-88414759D01*
X149335241Y-88614637D01*
X149570273Y-88771680D01*
X149831426Y-88879853D01*
X150108665Y-88935000D01*
X150391335Y-88935000D01*
X150668574Y-88879853D01*
X150929727Y-88771680D01*
X151164759Y-88614637D01*
X151364637Y-88414759D01*
X151468043Y-88260000D01*
X153757719Y-88260000D01*
X153801068Y-88341101D01*
X153980392Y-88559608D01*
X154198899Y-88738932D01*
X154331858Y-88810000D01*
X154198899Y-88881068D01*
X153980392Y-89060392D01*
X153801068Y-89278899D01*
X153667818Y-89528192D01*
X153585764Y-89798691D01*
X153558057Y-90080000D01*
X153585764Y-90361309D01*
X153667818Y-90631808D01*
X153801068Y-90881101D01*
X153980392Y-91099608D01*
X154198899Y-91278932D01*
X154331858Y-91350000D01*
X154198899Y-91421068D01*
X153980392Y-91600392D01*
X153801068Y-91818899D01*
X153667818Y-92068192D01*
X153585764Y-92338691D01*
X153558057Y-92620000D01*
X153585764Y-92901309D01*
X153667818Y-93171808D01*
X153801068Y-93421101D01*
X153980392Y-93639608D01*
X154198899Y-93818932D01*
X154448192Y-93952182D01*
X154718691Y-94034236D01*
X154929508Y-94055000D01*
X155070492Y-94055000D01*
X155281309Y-94034236D01*
X155551808Y-93952182D01*
X155801101Y-93818932D01*
X156019608Y-93639608D01*
X156198932Y-93421101D01*
X156332182Y-93171808D01*
X156414236Y-92901309D01*
X156441943Y-92620000D01*
X156414236Y-92338691D01*
X156332182Y-92068192D01*
X156198932Y-91818899D01*
X156019608Y-91600392D01*
X155801101Y-91421068D01*
X155668142Y-91350000D01*
X155801101Y-91278932D01*
X156019608Y-91099608D01*
X156198932Y-90881101D01*
X156332182Y-90631808D01*
X156414236Y-90361309D01*
X156441943Y-90080000D01*
X156414236Y-89798691D01*
X156332182Y-89528192D01*
X156198932Y-89278899D01*
X156019608Y-89060392D01*
X155801101Y-88881068D01*
X155668142Y-88810000D01*
X155801101Y-88738932D01*
X156019608Y-88559608D01*
X156198932Y-88341101D01*
X156332182Y-88091808D01*
X156414236Y-87821309D01*
X156441943Y-87540000D01*
X156414236Y-87258691D01*
X156332182Y-86988192D01*
X156198932Y-86738899D01*
X156019608Y-86520392D01*
X155906518Y-86427581D01*
X155924482Y-86425812D01*
X156044180Y-86389502D01*
X156154494Y-86330537D01*
X156251185Y-86251185D01*
X156330537Y-86154494D01*
X156389502Y-86044180D01*
X156425812Y-85924482D01*
X156438072Y-85800000D01*
X156435000Y-85285750D01*
X156276250Y-85127000D01*
X155127000Y-85127000D01*
X155127000Y-85147000D01*
X154873000Y-85147000D01*
X154873000Y-85127000D01*
X153723750Y-85127000D01*
X153565000Y-85285750D01*
X153561928Y-85800000D01*
X153574188Y-85924482D01*
X153610498Y-86044180D01*
X153669463Y-86154494D01*
X153748815Y-86251185D01*
X153845506Y-86330537D01*
X153955820Y-86389502D01*
X154075518Y-86425812D01*
X154093482Y-86427581D01*
X153980392Y-86520392D01*
X153801068Y-86738899D01*
X153800480Y-86740000D01*
X151468043Y-86740000D01*
X151364637Y-86585241D01*
X151164759Y-86385363D01*
X150929727Y-86228320D01*
X150668574Y-86120147D01*
X150391335Y-86065000D01*
X150108665Y-86065000D01*
X149831426Y-86120147D01*
X149570273Y-86228320D01*
X149335241Y-86385363D01*
X149135363Y-86585241D01*
X148978320Y-86820273D01*
X148870147Y-87081426D01*
X148815000Y-87358665D01*
X96620700Y-87358665D01*
X96589502Y-87255820D01*
X96530537Y-87145506D01*
X96451185Y-87048815D01*
X96354494Y-86969463D01*
X96244180Y-86910498D01*
X96124482Y-86874188D01*
X96000000Y-86861928D01*
X94000000Y-86861928D01*
X93875518Y-86874188D01*
X93755820Y-86910498D01*
X93645506Y-86969463D01*
X93548815Y-87048815D01*
X93469463Y-87145506D01*
X93410498Y-87255820D01*
X93374188Y-87375518D01*
X93361928Y-87500000D01*
X93361928Y-88240000D01*
X84157909Y-88240000D01*
X84075799Y-88117114D01*
X83958685Y-88000000D01*
X84075799Y-87882886D01*
X84227371Y-87656043D01*
X84331775Y-87403989D01*
X84385000Y-87136411D01*
X84385000Y-86863589D01*
X84356167Y-86718635D01*
X86564802Y-84510000D01*
X153563780Y-84510000D01*
X153565000Y-84714250D01*
X153723750Y-84873000D01*
X154873000Y-84873000D01*
X154873000Y-84853000D01*
X155127000Y-84853000D01*
X155127000Y-84873000D01*
X156276250Y-84873000D01*
X156307224Y-84842026D01*
X161219292Y-89754095D01*
X161205764Y-89798691D01*
X161178057Y-90080000D01*
X161205764Y-90361309D01*
X161287818Y-90631808D01*
X161421068Y-90881101D01*
X161600392Y-91099608D01*
X161818899Y-91278932D01*
X161951858Y-91350000D01*
X161818899Y-91421068D01*
X161600392Y-91600392D01*
X161421068Y-91818899D01*
X161287818Y-92068192D01*
X161205764Y-92338691D01*
X161178057Y-92620000D01*
X161205764Y-92901309D01*
X161287818Y-93171808D01*
X161421068Y-93421101D01*
X161600392Y-93639608D01*
X161818899Y-93818932D01*
X162068192Y-93952182D01*
X162338691Y-94034236D01*
X162549508Y-94055000D01*
X162690492Y-94055000D01*
X162901309Y-94034236D01*
X163171808Y-93952182D01*
X163421101Y-93818932D01*
X163639608Y-93639608D01*
X163818932Y-93421101D01*
X163952182Y-93171808D01*
X164034236Y-92901309D01*
X164061943Y-92620000D01*
X164034236Y-92338691D01*
X163952182Y-92068192D01*
X163818932Y-91818899D01*
X163639608Y-91600392D01*
X163421101Y-91421068D01*
X163288142Y-91350000D01*
X163421101Y-91278932D01*
X163639608Y-91099608D01*
X163818932Y-90881101D01*
X163883662Y-90760000D01*
X165781957Y-90760000D01*
X165885363Y-90914759D01*
X166085241Y-91114637D01*
X166320273Y-91271680D01*
X166581426Y-91379853D01*
X166858665Y-91435000D01*
X167141335Y-91435000D01*
X167323886Y-91398688D01*
X168240001Y-92314803D01*
X168240001Y-93092091D01*
X168117114Y-93174201D01*
X168000000Y-93291315D01*
X167882886Y-93174201D01*
X167656043Y-93022629D01*
X167403989Y-92918225D01*
X167136411Y-92865000D01*
X166863589Y-92865000D01*
X166596011Y-92918225D01*
X166343957Y-93022629D01*
X166117114Y-93174201D01*
X165924201Y-93367114D01*
X165772629Y-93593957D01*
X165668225Y-93846011D01*
X165615000Y-94113589D01*
X165615000Y-94386411D01*
X165668225Y-94653989D01*
X165772629Y-94906043D01*
X165924201Y-95132886D01*
X166117114Y-95325799D01*
X166343957Y-95477371D01*
X166596011Y-95581775D01*
X166863589Y-95635000D01*
X167136411Y-95635000D01*
X167403989Y-95581775D01*
X167656043Y-95477371D01*
X167882886Y-95325799D01*
X168000000Y-95208685D01*
X168117114Y-95325799D01*
X168343957Y-95477371D01*
X168596011Y-95581775D01*
X168863589Y-95635000D01*
X169136411Y-95635000D01*
X169403989Y-95581775D01*
X169656043Y-95477371D01*
X169882886Y-95325799D01*
X169951387Y-95257298D01*
X172936903Y-95257298D01*
X173750000Y-96070395D01*
X174563097Y-95257298D01*
X174491514Y-95013329D01*
X174236004Y-94892429D01*
X173961816Y-94823700D01*
X173679488Y-94809783D01*
X173399870Y-94851213D01*
X173133708Y-94946397D01*
X173008486Y-95013329D01*
X172936903Y-95257298D01*
X169951387Y-95257298D01*
X170075799Y-95132886D01*
X170157909Y-95010000D01*
X171512678Y-95010000D01*
X171550000Y-95013676D01*
X171587322Y-95010000D01*
X171587333Y-95010000D01*
X171698986Y-94999003D01*
X171842247Y-94955546D01*
X171974276Y-94884974D01*
X172090001Y-94790001D01*
X172113804Y-94760997D01*
X174511004Y-92363798D01*
X174540001Y-92340001D01*
X174634974Y-92224276D01*
X174654326Y-92188072D01*
X174800000Y-92188072D01*
X174924482Y-92175812D01*
X175044180Y-92139502D01*
X175154494Y-92080537D01*
X175251185Y-92001185D01*
X175330537Y-91904494D01*
X175389502Y-91794180D01*
X175425812Y-91674482D01*
X175438072Y-91550000D01*
X175438072Y-89950000D01*
X175425812Y-89825518D01*
X175389502Y-89705820D01*
X175330537Y-89595506D01*
X175251185Y-89498815D01*
X175154494Y-89419463D01*
X175044180Y-89360498D01*
X174924482Y-89324188D01*
X174800000Y-89311928D01*
X174792785Y-89311928D01*
X174813097Y-89242702D01*
X174000000Y-88429605D01*
X173186903Y-89242702D01*
X173207215Y-89311928D01*
X173200000Y-89311928D01*
X173075518Y-89324188D01*
X172955820Y-89360498D01*
X172845506Y-89419463D01*
X172748815Y-89498815D01*
X172669463Y-89595506D01*
X172610498Y-89705820D01*
X172574188Y-89825518D01*
X172561928Y-89950000D01*
X172561928Y-91550000D01*
X172574188Y-91674482D01*
X172610498Y-91794180D01*
X172669463Y-91904494D01*
X172737636Y-91987563D01*
X171235199Y-93490000D01*
X170157909Y-93490000D01*
X170075799Y-93367114D01*
X169882886Y-93174201D01*
X169760000Y-93092091D01*
X169760000Y-92037322D01*
X169763676Y-91999999D01*
X169760000Y-91962676D01*
X169760000Y-91962667D01*
X169749003Y-91851014D01*
X169705546Y-91707753D01*
X169677906Y-91656043D01*
X169634974Y-91575723D01*
X169563799Y-91488997D01*
X169540001Y-91459999D01*
X169511003Y-91436201D01*
X168398688Y-90323886D01*
X168435000Y-90141335D01*
X168435000Y-89858665D01*
X168379853Y-89581426D01*
X168271680Y-89320273D01*
X168114637Y-89085241D01*
X167914759Y-88885363D01*
X167679727Y-88728320D01*
X167418574Y-88620147D01*
X167141335Y-88565000D01*
X166858665Y-88565000D01*
X166581426Y-88620147D01*
X166320273Y-88728320D01*
X166085241Y-88885363D01*
X165885363Y-89085241D01*
X165781957Y-89240000D01*
X163787008Y-89240000D01*
X163639608Y-89060392D01*
X163421101Y-88881068D01*
X163288142Y-88810000D01*
X163421101Y-88738932D01*
X163639608Y-88559608D01*
X163818932Y-88341101D01*
X163829937Y-88320512D01*
X172559783Y-88320512D01*
X172601213Y-88600130D01*
X172696397Y-88866292D01*
X172763329Y-88991514D01*
X173007298Y-89063097D01*
X173820395Y-88250000D01*
X174179605Y-88250000D01*
X174992702Y-89063097D01*
X175236671Y-88991514D01*
X175357571Y-88736004D01*
X175426300Y-88461816D01*
X175440217Y-88179488D01*
X175398787Y-87899870D01*
X175303603Y-87633708D01*
X175236671Y-87508486D01*
X174992702Y-87436903D01*
X174179605Y-88250000D01*
X173820395Y-88250000D01*
X173007298Y-87436903D01*
X172763329Y-87508486D01*
X172642429Y-87763996D01*
X172573700Y-88038184D01*
X172559783Y-88320512D01*
X163829937Y-88320512D01*
X163952182Y-88091808D01*
X164034236Y-87821309D01*
X164061943Y-87540000D01*
X164034236Y-87258691D01*
X164033814Y-87257298D01*
X173186903Y-87257298D01*
X174000000Y-88070395D01*
X174813097Y-87257298D01*
X174741514Y-87013329D01*
X174486004Y-86892429D01*
X174211816Y-86823700D01*
X173929488Y-86809783D01*
X173649870Y-86851213D01*
X173383708Y-86946397D01*
X173258486Y-87013329D01*
X173186903Y-87257298D01*
X164033814Y-87257298D01*
X163952182Y-86988192D01*
X163818932Y-86738899D01*
X163639608Y-86520392D01*
X163421101Y-86341068D01*
X163283318Y-86267421D01*
X163475131Y-86152385D01*
X163651221Y-85992702D01*
X166186903Y-85992702D01*
X166258486Y-86236671D01*
X166513996Y-86357571D01*
X166788184Y-86426300D01*
X167070512Y-86440217D01*
X167350130Y-86398787D01*
X167616292Y-86303603D01*
X167741514Y-86236671D01*
X167813097Y-85992702D01*
X167000000Y-85179605D01*
X166186903Y-85992702D01*
X163651221Y-85992702D01*
X163683519Y-85963414D01*
X163851037Y-85737420D01*
X163971246Y-85483087D01*
X164011904Y-85349039D01*
X163889915Y-85127000D01*
X162747000Y-85127000D01*
X162747000Y-85147000D01*
X162493000Y-85147000D01*
X162493000Y-85127000D01*
X161350085Y-85127000D01*
X161228096Y-85349039D01*
X161268754Y-85483087D01*
X161388963Y-85737420D01*
X161556481Y-85963414D01*
X161764869Y-86152385D01*
X161956682Y-86267421D01*
X161818899Y-86341068D01*
X161600392Y-86520392D01*
X161421068Y-86738899D01*
X161287818Y-86988192D01*
X161205764Y-87258691D01*
X161178057Y-87540000D01*
X161180598Y-87565795D01*
X158685315Y-85070512D01*
X165559783Y-85070512D01*
X165601213Y-85350130D01*
X165696397Y-85616292D01*
X165763329Y-85741514D01*
X166007298Y-85813097D01*
X166820395Y-85000000D01*
X167179605Y-85000000D01*
X167992702Y-85813097D01*
X168236671Y-85741514D01*
X168357571Y-85486004D01*
X168426300Y-85211816D01*
X168440217Y-84929488D01*
X168398787Y-84649870D01*
X168303603Y-84383708D01*
X168236671Y-84258486D01*
X167992702Y-84186903D01*
X167179605Y-85000000D01*
X166820395Y-85000000D01*
X166007298Y-84186903D01*
X165763329Y-84258486D01*
X165642429Y-84513996D01*
X165573700Y-84788184D01*
X165559783Y-85070512D01*
X158685315Y-85070512D01*
X158265763Y-84650961D01*
X161228096Y-84650961D01*
X161350085Y-84873000D01*
X162493000Y-84873000D01*
X162493000Y-83729376D01*
X162747000Y-83729376D01*
X162747000Y-84873000D01*
X163889915Y-84873000D01*
X164011904Y-84650961D01*
X163971246Y-84516913D01*
X163851037Y-84262580D01*
X163683519Y-84036586D01*
X163651222Y-84007298D01*
X166186903Y-84007298D01*
X167000000Y-84820395D01*
X167813097Y-84007298D01*
X167741514Y-83763329D01*
X167486004Y-83642429D01*
X167211816Y-83573700D01*
X166929488Y-83559783D01*
X166649870Y-83601213D01*
X166383708Y-83696397D01*
X166258486Y-83763329D01*
X166186903Y-84007298D01*
X163651222Y-84007298D01*
X163475131Y-83847615D01*
X163233881Y-83702930D01*
X162969040Y-83608091D01*
X162747000Y-83729376D01*
X162493000Y-83729376D01*
X162270960Y-83608091D01*
X162006119Y-83702930D01*
X161764869Y-83847615D01*
X161556481Y-84036586D01*
X161388963Y-84262580D01*
X161268754Y-84516913D01*
X161228096Y-84650961D01*
X158265763Y-84650961D01*
X156853804Y-83239003D01*
X156830001Y-83209999D01*
X156714276Y-83115026D01*
X156582247Y-83044454D01*
X156438986Y-83000997D01*
X156327333Y-82990000D01*
X156327322Y-82990000D01*
X156290000Y-82986324D01*
X156252678Y-82990000D01*
X86287322Y-82990000D01*
X86249999Y-82986324D01*
X86212676Y-82990000D01*
X86212667Y-82990000D01*
X86101014Y-83000997D01*
X85957753Y-83044454D01*
X85825723Y-83115026D01*
X85742083Y-83183668D01*
X85709999Y-83209999D01*
X85686201Y-83238997D01*
X84426688Y-84498510D01*
X84338144Y-84284747D01*
X84172893Y-84037431D01*
X83962569Y-83827107D01*
X83715253Y-83661856D01*
X83440451Y-83548029D01*
X83148722Y-83490000D01*
X82851278Y-83490000D01*
X82559549Y-83548029D01*
X82284747Y-83661856D01*
X82037431Y-83827107D01*
X81827107Y-84037431D01*
X81661856Y-84284747D01*
X81548029Y-84559549D01*
X81490000Y-84851278D01*
X80660000Y-84851278D01*
X80660000Y-76000000D01*
X87361928Y-76000000D01*
X87361928Y-78000000D01*
X87374188Y-78124482D01*
X87410498Y-78244180D01*
X87469463Y-78354494D01*
X87548815Y-78451185D01*
X87645506Y-78530537D01*
X87755820Y-78589502D01*
X87875518Y-78625812D01*
X88000000Y-78638072D01*
X90000000Y-78638072D01*
X90124482Y-78625812D01*
X90244180Y-78589502D01*
X90354494Y-78530537D01*
X90451185Y-78451185D01*
X90530537Y-78354494D01*
X90589502Y-78244180D01*
X90625812Y-78124482D01*
X90638072Y-78000000D01*
X90638072Y-76000000D01*
X90625812Y-75875518D01*
X90589502Y-75755820D01*
X90530537Y-75645506D01*
X90451185Y-75548815D01*
X90354958Y-75469844D01*
X93684802Y-72140000D01*
X96779099Y-72140000D01*
X96801068Y-72181101D01*
X96980392Y-72399608D01*
X97198899Y-72578932D01*
X97448192Y-72712182D01*
X97718691Y-72794236D01*
X97929508Y-72815000D01*
X98070492Y-72815000D01*
X98281309Y-72794236D01*
X98551808Y-72712182D01*
X98801101Y-72578932D01*
X99019608Y-72399608D01*
X99198932Y-72181101D01*
X99332182Y-71931808D01*
X99414236Y-71661309D01*
X99441943Y-71380000D01*
X99414236Y-71098691D01*
X99332182Y-70828192D01*
X99198932Y-70578899D01*
X99019608Y-70360392D01*
X98801101Y-70181068D01*
X98760000Y-70159099D01*
X98760000Y-65135413D01*
X100544192Y-65135413D01*
X100639956Y-65399814D01*
X100929571Y-65540704D01*
X101241108Y-65622384D01*
X101562595Y-65641718D01*
X101881675Y-65597961D01*
X102186088Y-65492795D01*
X102360044Y-65399814D01*
X102455808Y-65135413D01*
X107044192Y-65135413D01*
X107139956Y-65399814D01*
X107429571Y-65540704D01*
X107741108Y-65622384D01*
X108062595Y-65641718D01*
X108381675Y-65597961D01*
X108686088Y-65492795D01*
X108860044Y-65399814D01*
X108955808Y-65135413D01*
X108000000Y-64179605D01*
X107044192Y-65135413D01*
X102455808Y-65135413D01*
X101500000Y-64179605D01*
X100544192Y-65135413D01*
X98760000Y-65135413D01*
X98760000Y-64062595D01*
X99858282Y-64062595D01*
X99902039Y-64381675D01*
X100007205Y-64686088D01*
X100100186Y-64860044D01*
X100364587Y-64955808D01*
X101320395Y-64000000D01*
X101679605Y-64000000D01*
X102635413Y-64955808D01*
X102899814Y-64860044D01*
X103040704Y-64570429D01*
X103122384Y-64258892D01*
X103134189Y-64062595D01*
X106358282Y-64062595D01*
X106402039Y-64381675D01*
X106507205Y-64686088D01*
X106600186Y-64860044D01*
X106864587Y-64955808D01*
X107820395Y-64000000D01*
X108179605Y-64000000D01*
X109135413Y-64955808D01*
X109399814Y-64860044D01*
X109540704Y-64570429D01*
X109622384Y-64258892D01*
X109641718Y-63937405D01*
X109597961Y-63618325D01*
X109492795Y-63313912D01*
X109399814Y-63139956D01*
X109135413Y-63044192D01*
X108179605Y-64000000D01*
X107820395Y-64000000D01*
X106864587Y-63044192D01*
X106600186Y-63139956D01*
X106459296Y-63429571D01*
X106377616Y-63741108D01*
X106358282Y-64062595D01*
X103134189Y-64062595D01*
X103141718Y-63937405D01*
X103097961Y-63618325D01*
X102992795Y-63313912D01*
X102899814Y-63139956D01*
X102635413Y-63044192D01*
X101679605Y-64000000D01*
X101320395Y-64000000D01*
X100364587Y-63044192D01*
X100100186Y-63139956D01*
X99959296Y-63429571D01*
X99877616Y-63741108D01*
X99858282Y-64062595D01*
X98760000Y-64062595D01*
X98760000Y-62864587D01*
X100544192Y-62864587D01*
X101500000Y-63820395D01*
X102455808Y-62864587D01*
X107044192Y-62864587D01*
X108000000Y-63820395D01*
X108955808Y-62864587D01*
X108860044Y-62600186D01*
X108570429Y-62459296D01*
X108258892Y-62377616D01*
X107937405Y-62358282D01*
X107618325Y-62402039D01*
X107313912Y-62507205D01*
X107139956Y-62600186D01*
X107044192Y-62864587D01*
X102455808Y-62864587D01*
X102360044Y-62600186D01*
X102070429Y-62459296D01*
X101758892Y-62377616D01*
X101437405Y-62358282D01*
X101118325Y-62402039D01*
X100813912Y-62507205D01*
X100639956Y-62600186D01*
X100544192Y-62864587D01*
X98760000Y-62864587D01*
X98760000Y-60214475D01*
X98873824Y-60249003D01*
X98985477Y-60260000D01*
X98985485Y-60260000D01*
X99022810Y-60263676D01*
X99060135Y-60260000D01*
X100045091Y-60260000D01*
X100051082Y-60274463D01*
X100230013Y-60542252D01*
X100457748Y-60769987D01*
X100725537Y-60948918D01*
X101023088Y-61072168D01*
X101338967Y-61135000D01*
X101661033Y-61135000D01*
X101976912Y-61072168D01*
X102274463Y-60948918D01*
X102542252Y-60769987D01*
X102769987Y-60542252D01*
X102948918Y-60274463D01*
X102954909Y-60260000D01*
X106545091Y-60260000D01*
X106551082Y-60274463D01*
X106730013Y-60542252D01*
X106957748Y-60769987D01*
X107225537Y-60948918D01*
X107523088Y-61072168D01*
X107838967Y-61135000D01*
X108161033Y-61135000D01*
X108476912Y-61072168D01*
X108491376Y-61066177D01*
X112220000Y-64794802D01*
X112220001Y-68779099D01*
X112178899Y-68801068D01*
X111960392Y-68980392D01*
X111781068Y-69198899D01*
X111714060Y-69324261D01*
X111043015Y-68653216D01*
X111019212Y-68624212D01*
X110903487Y-68529239D01*
X110771458Y-68458667D01*
X110628197Y-68415210D01*
X110516544Y-68404213D01*
X110516533Y-68404213D01*
X110479211Y-68400537D01*
X110441889Y-68404213D01*
X104953711Y-68404213D01*
X104909774Y-68360276D01*
X104740256Y-68247008D01*
X104551898Y-68168987D01*
X104351939Y-68129213D01*
X104148061Y-68129213D01*
X103948102Y-68168987D01*
X103759744Y-68247008D01*
X103590226Y-68360276D01*
X103446063Y-68504439D01*
X103332795Y-68673957D01*
X103254774Y-68862315D01*
X103215000Y-69062274D01*
X103215000Y-69266152D01*
X103254774Y-69466111D01*
X103332795Y-69654469D01*
X103446063Y-69823987D01*
X103590226Y-69968150D01*
X103759744Y-70081418D01*
X103948102Y-70159439D01*
X104148061Y-70199213D01*
X104351939Y-70199213D01*
X104551898Y-70159439D01*
X104740256Y-70081418D01*
X104909774Y-69968150D01*
X104953711Y-69924213D01*
X110164410Y-69924213D01*
X116950330Y-76710133D01*
X116861068Y-76818899D01*
X116790000Y-76951858D01*
X116718932Y-76818899D01*
X116539608Y-76600392D01*
X116321101Y-76421068D01*
X116071808Y-76287818D01*
X115801309Y-76205764D01*
X115590492Y-76185000D01*
X115449508Y-76185000D01*
X115238691Y-76205764D01*
X114968192Y-76287818D01*
X114718899Y-76421068D01*
X114500392Y-76600392D01*
X114321068Y-76818899D01*
X114250000Y-76951858D01*
X114178932Y-76818899D01*
X113999608Y-76600392D01*
X113781101Y-76421068D01*
X113531808Y-76287818D01*
X113261309Y-76205764D01*
X113050492Y-76185000D01*
X112909508Y-76185000D01*
X112698691Y-76205764D01*
X112428192Y-76287818D01*
X112178899Y-76421068D01*
X111960392Y-76600392D01*
X111781068Y-76818899D01*
X111759099Y-76860000D01*
X99417325Y-76860000D01*
X99380000Y-76856324D01*
X99342675Y-76860000D01*
X99342667Y-76860000D01*
X99231014Y-76870997D01*
X99087753Y-76914454D01*
X98955724Y-76985026D01*
X98839999Y-77079999D01*
X98816202Y-77108996D01*
X98323886Y-77601312D01*
X98141335Y-77565000D01*
X97858665Y-77565000D01*
X97581426Y-77620147D01*
X97320273Y-77728320D01*
X97085241Y-77885363D01*
X96885363Y-78085241D01*
X96728320Y-78320273D01*
X96620147Y-78581426D01*
X96565000Y-78858665D01*
X96565000Y-79141335D01*
X96620147Y-79418574D01*
X96728320Y-79679727D01*
X96885363Y-79914759D01*
X97085241Y-80114637D01*
X97320273Y-80271680D01*
X97581426Y-80379853D01*
X97858665Y-80435000D01*
X98141335Y-80435000D01*
X98418574Y-80379853D01*
X98679727Y-80271680D01*
X98914759Y-80114637D01*
X99114637Y-79914759D01*
X99271680Y-79679727D01*
X99379853Y-79418574D01*
X99435000Y-79141335D01*
X99435000Y-78858665D01*
X99398688Y-78676114D01*
X99694802Y-78380000D01*
X111759099Y-78380000D01*
X111781068Y-78421101D01*
X111960392Y-78639608D01*
X112178899Y-78818932D01*
X112428192Y-78952182D01*
X112698691Y-79034236D01*
X112909508Y-79055000D01*
X113050492Y-79055000D01*
X113261309Y-79034236D01*
X113531808Y-78952182D01*
X113781101Y-78818932D01*
X113999608Y-78639608D01*
X114178932Y-78421101D01*
X114250000Y-78288142D01*
X114321068Y-78421101D01*
X114500392Y-78639608D01*
X114718899Y-78818932D01*
X114968192Y-78952182D01*
X115238691Y-79034236D01*
X115449508Y-79055000D01*
X115590492Y-79055000D01*
X115801309Y-79034236D01*
X116071808Y-78952182D01*
X116321101Y-78818932D01*
X116539608Y-78639608D01*
X116718932Y-78421101D01*
X116790000Y-78288142D01*
X116861068Y-78421101D01*
X117040392Y-78639608D01*
X117258899Y-78818932D01*
X117508192Y-78952182D01*
X117778691Y-79034236D01*
X117989508Y-79055000D01*
X118130492Y-79055000D01*
X118341309Y-79034236D01*
X118611808Y-78952182D01*
X118861101Y-78818932D01*
X119079608Y-78639608D01*
X119258932Y-78421101D01*
X119330000Y-78288142D01*
X119401068Y-78421101D01*
X119580392Y-78639608D01*
X119798899Y-78818932D01*
X120048192Y-78952182D01*
X120318691Y-79034236D01*
X120529508Y-79055000D01*
X120670492Y-79055000D01*
X120881309Y-79034236D01*
X121151808Y-78952182D01*
X121401101Y-78818932D01*
X121619608Y-78639608D01*
X121798932Y-78421101D01*
X121870000Y-78288142D01*
X121941068Y-78421101D01*
X122120392Y-78639608D01*
X122338899Y-78818932D01*
X122588192Y-78952182D01*
X122858691Y-79034236D01*
X123069508Y-79055000D01*
X123210492Y-79055000D01*
X123421309Y-79034236D01*
X123691808Y-78952182D01*
X123941101Y-78818932D01*
X124159608Y-78639608D01*
X124338932Y-78421101D01*
X124410000Y-78288142D01*
X124481068Y-78421101D01*
X124660392Y-78639608D01*
X124878899Y-78818932D01*
X125128192Y-78952182D01*
X125398691Y-79034236D01*
X125609508Y-79055000D01*
X125750492Y-79055000D01*
X125961309Y-79034236D01*
X126231808Y-78952182D01*
X126481101Y-78818932D01*
X126699608Y-78639608D01*
X126878932Y-78421101D01*
X126950000Y-78288142D01*
X127021068Y-78421101D01*
X127200392Y-78639608D01*
X127418899Y-78818932D01*
X127668192Y-78952182D01*
X127938691Y-79034236D01*
X128149508Y-79055000D01*
X128290492Y-79055000D01*
X128501309Y-79034236D01*
X128771808Y-78952182D01*
X129021101Y-78818932D01*
X129239608Y-78639608D01*
X129418932Y-78421101D01*
X129492579Y-78283318D01*
X129607615Y-78475131D01*
X129796586Y-78683519D01*
X130022580Y-78851037D01*
X130276913Y-78971246D01*
X130410961Y-79011904D01*
X130633000Y-78889915D01*
X130633000Y-77747000D01*
X130613000Y-77747000D01*
X130613000Y-77493000D01*
X130633000Y-77493000D01*
X130633000Y-76350085D01*
X130887000Y-76350085D01*
X130887000Y-77493000D01*
X130907000Y-77493000D01*
X130907000Y-77747000D01*
X130887000Y-77747000D01*
X130887000Y-78889915D01*
X131109039Y-79011904D01*
X131243087Y-78971246D01*
X131497420Y-78851037D01*
X131723414Y-78683519D01*
X131912385Y-78475131D01*
X132027421Y-78283318D01*
X132101068Y-78421101D01*
X132280392Y-78639608D01*
X132498899Y-78818932D01*
X132748192Y-78952182D01*
X133018691Y-79034236D01*
X133229508Y-79055000D01*
X133370492Y-79055000D01*
X133581309Y-79034236D01*
X133851808Y-78952182D01*
X134101101Y-78818932D01*
X134319608Y-78639608D01*
X134498932Y-78421101D01*
X134570000Y-78288142D01*
X134641068Y-78421101D01*
X134820392Y-78639608D01*
X135038899Y-78818932D01*
X135288192Y-78952182D01*
X135558691Y-79034236D01*
X135769508Y-79055000D01*
X135910492Y-79055000D01*
X136121309Y-79034236D01*
X136391808Y-78952182D01*
X136641101Y-78818932D01*
X136859608Y-78639608D01*
X137038932Y-78421101D01*
X137110000Y-78288142D01*
X137181068Y-78421101D01*
X137360392Y-78639608D01*
X137578899Y-78818932D01*
X137828192Y-78952182D01*
X138098691Y-79034236D01*
X138309508Y-79055000D01*
X138450492Y-79055000D01*
X138661309Y-79034236D01*
X138931808Y-78952182D01*
X139181101Y-78818932D01*
X139399608Y-78639608D01*
X139578932Y-78421101D01*
X139650000Y-78288142D01*
X139721068Y-78421101D01*
X139900392Y-78639608D01*
X140118899Y-78818932D01*
X140368192Y-78952182D01*
X140638691Y-79034236D01*
X140849508Y-79055000D01*
X140990492Y-79055000D01*
X141201309Y-79034236D01*
X141471808Y-78952182D01*
X141721101Y-78818932D01*
X141939608Y-78639608D01*
X142118932Y-78421101D01*
X142190000Y-78288142D01*
X142261068Y-78421101D01*
X142440392Y-78639608D01*
X142658899Y-78818932D01*
X142908192Y-78952182D01*
X143178691Y-79034236D01*
X143389508Y-79055000D01*
X143530492Y-79055000D01*
X143741309Y-79034236D01*
X144011808Y-78952182D01*
X144261101Y-78818932D01*
X144479608Y-78639608D01*
X144658932Y-78421101D01*
X144730000Y-78288142D01*
X144801068Y-78421101D01*
X144980392Y-78639608D01*
X145198899Y-78818932D01*
X145448192Y-78952182D01*
X145718691Y-79034236D01*
X145929508Y-79055000D01*
X146070492Y-79055000D01*
X146281309Y-79034236D01*
X146551808Y-78952182D01*
X146801101Y-78818932D01*
X147019608Y-78639608D01*
X147198932Y-78421101D01*
X147332182Y-78171808D01*
X147414236Y-77901309D01*
X147441943Y-77620000D01*
X147414236Y-77338691D01*
X147332182Y-77068192D01*
X147198932Y-76818899D01*
X147019608Y-76600392D01*
X146801101Y-76421068D01*
X146551808Y-76287818D01*
X146281309Y-76205764D01*
X146070492Y-76185000D01*
X145929508Y-76185000D01*
X145718691Y-76205764D01*
X145448192Y-76287818D01*
X145198899Y-76421068D01*
X144980392Y-76600392D01*
X144801068Y-76818899D01*
X144730000Y-76951858D01*
X144658932Y-76818899D01*
X144479608Y-76600392D01*
X144261101Y-76421068D01*
X144011808Y-76287818D01*
X143741309Y-76205764D01*
X143530492Y-76185000D01*
X143389508Y-76185000D01*
X143178691Y-76205764D01*
X142908192Y-76287818D01*
X142658899Y-76421068D01*
X142440392Y-76600392D01*
X142261068Y-76818899D01*
X142190000Y-76951858D01*
X142118932Y-76818899D01*
X141939608Y-76600392D01*
X141721101Y-76421068D01*
X141471808Y-76287818D01*
X141201309Y-76205764D01*
X140990492Y-76185000D01*
X140849508Y-76185000D01*
X140638691Y-76205764D01*
X140368192Y-76287818D01*
X140118899Y-76421068D01*
X139900392Y-76600392D01*
X139721068Y-76818899D01*
X139650000Y-76951858D01*
X139578932Y-76818899D01*
X139399608Y-76600392D01*
X139181101Y-76421068D01*
X138931808Y-76287818D01*
X138661309Y-76205764D01*
X138450492Y-76185000D01*
X138309508Y-76185000D01*
X138098691Y-76205764D01*
X137828192Y-76287818D01*
X137578899Y-76421068D01*
X137360392Y-76600392D01*
X137181068Y-76818899D01*
X137110000Y-76951858D01*
X137038932Y-76818899D01*
X136859608Y-76600392D01*
X136641101Y-76421068D01*
X136391808Y-76287818D01*
X136121309Y-76205764D01*
X135910492Y-76185000D01*
X135769508Y-76185000D01*
X135558691Y-76205764D01*
X135288192Y-76287818D01*
X135038899Y-76421068D01*
X134820392Y-76600392D01*
X134641068Y-76818899D01*
X134570000Y-76951858D01*
X134498932Y-76818899D01*
X134319608Y-76600392D01*
X134101101Y-76421068D01*
X133851808Y-76287818D01*
X133581309Y-76205764D01*
X133370492Y-76185000D01*
X133229508Y-76185000D01*
X133018691Y-76205764D01*
X132748192Y-76287818D01*
X132498899Y-76421068D01*
X132280392Y-76600392D01*
X132101068Y-76818899D01*
X132027421Y-76956682D01*
X131912385Y-76764869D01*
X131723414Y-76556481D01*
X131497420Y-76388963D01*
X131243087Y-76268754D01*
X131109039Y-76228096D01*
X130887000Y-76350085D01*
X130633000Y-76350085D01*
X130410961Y-76228096D01*
X130276913Y-76268754D01*
X130022580Y-76388963D01*
X129796586Y-76556481D01*
X129607615Y-76764869D01*
X129492579Y-76956682D01*
X129418932Y-76818899D01*
X129239608Y-76600392D01*
X129021101Y-76421068D01*
X128771808Y-76287818D01*
X128501309Y-76205764D01*
X128290492Y-76185000D01*
X128149508Y-76185000D01*
X127938691Y-76205764D01*
X127668192Y-76287818D01*
X127418899Y-76421068D01*
X127200392Y-76600392D01*
X127021068Y-76818899D01*
X126950000Y-76951858D01*
X126878932Y-76818899D01*
X126699608Y-76600392D01*
X126481101Y-76421068D01*
X126231808Y-76287818D01*
X125961309Y-76205764D01*
X125750492Y-76185000D01*
X125609508Y-76185000D01*
X125398691Y-76205764D01*
X125128192Y-76287818D01*
X124878899Y-76421068D01*
X124660392Y-76600392D01*
X124481068Y-76818899D01*
X124410000Y-76951858D01*
X124338932Y-76818899D01*
X124159608Y-76600392D01*
X123941101Y-76421068D01*
X123691808Y-76287818D01*
X123421309Y-76205764D01*
X123210492Y-76185000D01*
X123069508Y-76185000D01*
X122858691Y-76205764D01*
X122588192Y-76287818D01*
X122338899Y-76421068D01*
X122120392Y-76600392D01*
X121941068Y-76818899D01*
X121870000Y-76951858D01*
X121798932Y-76818899D01*
X121619608Y-76600392D01*
X121401101Y-76421068D01*
X121151808Y-76287818D01*
X120881309Y-76205764D01*
X120670492Y-76185000D01*
X120529508Y-76185000D01*
X120318691Y-76205764D01*
X120274093Y-76219292D01*
X120038803Y-75984002D01*
X120015000Y-75954998D01*
X119899275Y-75860025D01*
X119767246Y-75789453D01*
X119623985Y-75745996D01*
X119512332Y-75734999D01*
X119512321Y-75734999D01*
X119474999Y-75731323D01*
X119437677Y-75734999D01*
X118124799Y-75734999D01*
X113655739Y-71265940D01*
X113781101Y-71198932D01*
X113999608Y-71019608D01*
X114178932Y-70801101D01*
X114250000Y-70668142D01*
X114321068Y-70801101D01*
X114500392Y-71019608D01*
X114718899Y-71198932D01*
X114968192Y-71332182D01*
X115238691Y-71414236D01*
X115449508Y-71435000D01*
X115590492Y-71435000D01*
X115801309Y-71414236D01*
X116071808Y-71332182D01*
X116321101Y-71198932D01*
X116539608Y-71019608D01*
X116718932Y-70801101D01*
X116790000Y-70668142D01*
X116861068Y-70801101D01*
X117040392Y-71019608D01*
X117258899Y-71198932D01*
X117508192Y-71332182D01*
X117778691Y-71414236D01*
X117989508Y-71435000D01*
X118130492Y-71435000D01*
X118341309Y-71414236D01*
X118385906Y-71400708D01*
X122246205Y-75261008D01*
X122269999Y-75290001D01*
X122298992Y-75313795D01*
X122298996Y-75313799D01*
X122357642Y-75361928D01*
X122385724Y-75384974D01*
X122517753Y-75455546D01*
X122661014Y-75499003D01*
X122772667Y-75510000D01*
X122772676Y-75510000D01*
X122809999Y-75513676D01*
X122847322Y-75510000D01*
X134591291Y-75510000D01*
X134635228Y-75553937D01*
X134804746Y-75667205D01*
X134993104Y-75745226D01*
X135193063Y-75785000D01*
X135396941Y-75785000D01*
X135596900Y-75745226D01*
X135785258Y-75667205D01*
X135954776Y-75553937D01*
X136098939Y-75409774D01*
X136212207Y-75240256D01*
X136290228Y-75051898D01*
X136330002Y-74851939D01*
X136330002Y-74648061D01*
X136290228Y-74448102D01*
X136212207Y-74259744D01*
X136098939Y-74090226D01*
X135954776Y-73946063D01*
X135785258Y-73832795D01*
X135609517Y-73760000D01*
X151842091Y-73760000D01*
X151924201Y-73882886D01*
X152117114Y-74075799D01*
X152343957Y-74227371D01*
X152596011Y-74331775D01*
X152863589Y-74385000D01*
X153136411Y-74385000D01*
X153281365Y-74356167D01*
X153511201Y-74586003D01*
X153535000Y-74615002D01*
X153563998Y-74638800D01*
X153650724Y-74709975D01*
X153725605Y-74750000D01*
X153782754Y-74780547D01*
X153926015Y-74824004D01*
X154037668Y-74835001D01*
X154037678Y-74835001D01*
X154075001Y-74838677D01*
X154112323Y-74835001D01*
X159140200Y-74835001D01*
X163599292Y-79294094D01*
X163585764Y-79338691D01*
X163558057Y-79620000D01*
X163585764Y-79901309D01*
X163667818Y-80171808D01*
X163801068Y-80421101D01*
X163980392Y-80639608D01*
X164198899Y-80818932D01*
X164448192Y-80952182D01*
X164718691Y-81034236D01*
X164929508Y-81055000D01*
X165070492Y-81055000D01*
X165281309Y-81034236D01*
X165551808Y-80952182D01*
X165801101Y-80818932D01*
X166019608Y-80639608D01*
X166198932Y-80421101D01*
X166220901Y-80380000D01*
X169342678Y-80380000D01*
X169380000Y-80383676D01*
X169417322Y-80380000D01*
X169417333Y-80380000D01*
X169528986Y-80369003D01*
X169544137Y-80364407D01*
X169581426Y-80379853D01*
X169858665Y-80435000D01*
X170141335Y-80435000D01*
X170418574Y-80379853D01*
X170679727Y-80271680D01*
X170914759Y-80114637D01*
X171036694Y-79992702D01*
X174186903Y-79992702D01*
X174258486Y-80236671D01*
X174513996Y-80357571D01*
X174788184Y-80426300D01*
X175070512Y-80440217D01*
X175350130Y-80398787D01*
X175616292Y-80303603D01*
X175741514Y-80236671D01*
X175813097Y-79992702D01*
X175000000Y-79179605D01*
X174186903Y-79992702D01*
X171036694Y-79992702D01*
X171114637Y-79914759D01*
X171271680Y-79679727D01*
X171379853Y-79418574D01*
X171435000Y-79141335D01*
X171435000Y-79070512D01*
X173559783Y-79070512D01*
X173601213Y-79350130D01*
X173696397Y-79616292D01*
X173763329Y-79741514D01*
X174007298Y-79813097D01*
X174820395Y-79000000D01*
X175179605Y-79000000D01*
X175992702Y-79813097D01*
X176236671Y-79741514D01*
X176357571Y-79486004D01*
X176426300Y-79211816D01*
X176440217Y-78929488D01*
X176398787Y-78649870D01*
X176303603Y-78383708D01*
X176236671Y-78258486D01*
X175992702Y-78186903D01*
X175179605Y-79000000D01*
X174820395Y-79000000D01*
X174007298Y-78186903D01*
X173763329Y-78258486D01*
X173642429Y-78513996D01*
X173573700Y-78788184D01*
X173559783Y-79070512D01*
X171435000Y-79070512D01*
X171435000Y-78858665D01*
X171379853Y-78581426D01*
X171271680Y-78320273D01*
X171114637Y-78085241D01*
X171036694Y-78007298D01*
X174186903Y-78007298D01*
X175000000Y-78820395D01*
X175813097Y-78007298D01*
X175741514Y-77763329D01*
X175486004Y-77642429D01*
X175211816Y-77573700D01*
X174929488Y-77559783D01*
X174649870Y-77601213D01*
X174383708Y-77696397D01*
X174258486Y-77763329D01*
X174186903Y-78007298D01*
X171036694Y-78007298D01*
X170914759Y-77885363D01*
X170679727Y-77728320D01*
X170418574Y-77620147D01*
X170141335Y-77565000D01*
X169858665Y-77565000D01*
X169581426Y-77620147D01*
X169320273Y-77728320D01*
X169085241Y-77885363D01*
X168885363Y-78085241D01*
X168728320Y-78320273D01*
X168620147Y-78581426D01*
X168565000Y-78858665D01*
X168565000Y-78860000D01*
X166220901Y-78860000D01*
X166198932Y-78818899D01*
X166019608Y-78600392D01*
X165801101Y-78421068D01*
X165551808Y-78287818D01*
X165281309Y-78205764D01*
X165070492Y-78185000D01*
X164929508Y-78185000D01*
X164718691Y-78205764D01*
X164674094Y-78219292D01*
X160214801Y-73760000D01*
X163962678Y-73760000D01*
X164000000Y-73763676D01*
X164037322Y-73760000D01*
X164037333Y-73760000D01*
X164148986Y-73749003D01*
X164292247Y-73705546D01*
X164424276Y-73634974D01*
X164540001Y-73540001D01*
X164563804Y-73510998D01*
X164676113Y-73398688D01*
X164858665Y-73435000D01*
X165141335Y-73435000D01*
X165418574Y-73379853D01*
X165679727Y-73271680D01*
X165914759Y-73114637D01*
X166114637Y-72914759D01*
X166218043Y-72760000D01*
X168584626Y-72760000D01*
X168565000Y-72858665D01*
X168565000Y-73141335D01*
X168620147Y-73418574D01*
X168728320Y-73679727D01*
X168885363Y-73914759D01*
X169085241Y-74114637D01*
X169320273Y-74271680D01*
X169581426Y-74379853D01*
X169858665Y-74435000D01*
X170141335Y-74435000D01*
X170418574Y-74379853D01*
X170679727Y-74271680D01*
X170914759Y-74114637D01*
X171036694Y-73992702D01*
X174186903Y-73992702D01*
X174258486Y-74236671D01*
X174513996Y-74357571D01*
X174788184Y-74426300D01*
X175070512Y-74440217D01*
X175350130Y-74398787D01*
X175616292Y-74303603D01*
X175741514Y-74236671D01*
X175813097Y-73992702D01*
X175000000Y-73179605D01*
X174186903Y-73992702D01*
X171036694Y-73992702D01*
X171114637Y-73914759D01*
X171271680Y-73679727D01*
X171379853Y-73418574D01*
X171435000Y-73141335D01*
X171435000Y-73070512D01*
X173559783Y-73070512D01*
X173601213Y-73350130D01*
X173696397Y-73616292D01*
X173763329Y-73741514D01*
X174007298Y-73813097D01*
X174820395Y-73000000D01*
X175179605Y-73000000D01*
X175992702Y-73813097D01*
X176236671Y-73741514D01*
X176357571Y-73486004D01*
X176426300Y-73211816D01*
X176440217Y-72929488D01*
X176398787Y-72649870D01*
X176303603Y-72383708D01*
X176236671Y-72258486D01*
X175992702Y-72186903D01*
X175179605Y-73000000D01*
X174820395Y-73000000D01*
X174007298Y-72186903D01*
X173763329Y-72258486D01*
X173642429Y-72513996D01*
X173573700Y-72788184D01*
X173559783Y-73070512D01*
X171435000Y-73070512D01*
X171435000Y-72858665D01*
X171379853Y-72581426D01*
X171271680Y-72320273D01*
X171114637Y-72085241D01*
X171036694Y-72007298D01*
X174186903Y-72007298D01*
X175000000Y-72820395D01*
X175813097Y-72007298D01*
X175741514Y-71763329D01*
X175486004Y-71642429D01*
X175211816Y-71573700D01*
X174929488Y-71559783D01*
X174649870Y-71601213D01*
X174383708Y-71696397D01*
X174258486Y-71763329D01*
X174186903Y-72007298D01*
X171036694Y-72007298D01*
X170914759Y-71885363D01*
X170679727Y-71728320D01*
X170418574Y-71620147D01*
X170141335Y-71565000D01*
X169858665Y-71565000D01*
X169676113Y-71601312D01*
X169563804Y-71489002D01*
X169540001Y-71459999D01*
X169424276Y-71365026D01*
X169292247Y-71294454D01*
X169148986Y-71250997D01*
X169037333Y-71240000D01*
X169037322Y-71240000D01*
X169000000Y-71236324D01*
X168962678Y-71240000D01*
X166218043Y-71240000D01*
X166114637Y-71085241D01*
X165914759Y-70885363D01*
X165679727Y-70728320D01*
X165418574Y-70620147D01*
X165141335Y-70565000D01*
X164858665Y-70565000D01*
X164581426Y-70620147D01*
X164320273Y-70728320D01*
X164085241Y-70885363D01*
X163885363Y-71085241D01*
X163728320Y-71320273D01*
X163620147Y-71581426D01*
X163565000Y-71858665D01*
X163565000Y-72141335D01*
X163584626Y-72240000D01*
X159037909Y-72240000D01*
X158955799Y-72117114D01*
X158762886Y-71924201D01*
X158536043Y-71772629D01*
X158283989Y-71668225D01*
X158016411Y-71615000D01*
X157743589Y-71615000D01*
X157476011Y-71668225D01*
X157223957Y-71772629D01*
X156997114Y-71924201D01*
X156907728Y-72013587D01*
X155508145Y-70614004D01*
X155484342Y-70585000D01*
X155368617Y-70490027D01*
X155236588Y-70419455D01*
X155093327Y-70375998D01*
X154981674Y-70365001D01*
X154981663Y-70365001D01*
X154944341Y-70361325D01*
X154907019Y-70365001D01*
X147438072Y-70365001D01*
X147438072Y-69200000D01*
X147425812Y-69075518D01*
X147389502Y-68955820D01*
X147330537Y-68845506D01*
X147251185Y-68748815D01*
X147154494Y-68669463D01*
X147044180Y-68610498D01*
X146924482Y-68574188D01*
X146800000Y-68561928D01*
X145200000Y-68561928D01*
X145075518Y-68574188D01*
X144955820Y-68610498D01*
X144845506Y-68669463D01*
X144748815Y-68748815D01*
X144669463Y-68845506D01*
X144610498Y-68955820D01*
X144574188Y-69075518D01*
X144572419Y-69093482D01*
X144479608Y-68980392D01*
X144261101Y-68801068D01*
X144011808Y-68667818D01*
X143741309Y-68585764D01*
X143530492Y-68565000D01*
X143389508Y-68565000D01*
X143178691Y-68585764D01*
X142908192Y-68667818D01*
X142658899Y-68801068D01*
X142440392Y-68980392D01*
X142261068Y-69198899D01*
X142190000Y-69331858D01*
X142118932Y-69198899D01*
X141939608Y-68980392D01*
X141721101Y-68801068D01*
X141669790Y-68773642D01*
X143207018Y-67236414D01*
X143335241Y-67364637D01*
X143570273Y-67521680D01*
X143831426Y-67629853D01*
X144108665Y-67685000D01*
X144391335Y-67685000D01*
X144668574Y-67629853D01*
X144929727Y-67521680D01*
X145164759Y-67364637D01*
X145364637Y-67164759D01*
X145521680Y-66929727D01*
X145629853Y-66668574D01*
X145685000Y-66391335D01*
X145685000Y-66108665D01*
X145629853Y-65831426D01*
X145521680Y-65570273D01*
X145447275Y-65458918D01*
X145500789Y-65415000D01*
X145524592Y-65385996D01*
X146025175Y-64885413D01*
X151044192Y-64885413D01*
X151139956Y-65149814D01*
X151429571Y-65290704D01*
X151741108Y-65372384D01*
X152062595Y-65391718D01*
X152381675Y-65347961D01*
X152686088Y-65242795D01*
X152860044Y-65149814D01*
X152955808Y-64885413D01*
X157544192Y-64885413D01*
X157639956Y-65149814D01*
X157929571Y-65290704D01*
X158241108Y-65372384D01*
X158562595Y-65391718D01*
X158881675Y-65347961D01*
X159186088Y-65242795D01*
X159360044Y-65149814D01*
X159455808Y-64885413D01*
X163044192Y-64885413D01*
X163139956Y-65149814D01*
X163429571Y-65290704D01*
X163741108Y-65372384D01*
X164062595Y-65391718D01*
X164381675Y-65347961D01*
X164686088Y-65242795D01*
X164860044Y-65149814D01*
X164955808Y-64885413D01*
X169544192Y-64885413D01*
X169639956Y-65149814D01*
X169929571Y-65290704D01*
X170241108Y-65372384D01*
X170562595Y-65391718D01*
X170881675Y-65347961D01*
X171186088Y-65242795D01*
X171360044Y-65149814D01*
X171455808Y-64885413D01*
X170500000Y-63929605D01*
X169544192Y-64885413D01*
X164955808Y-64885413D01*
X164000000Y-63929605D01*
X163044192Y-64885413D01*
X159455808Y-64885413D01*
X158500000Y-63929605D01*
X157544192Y-64885413D01*
X152955808Y-64885413D01*
X152000000Y-63929605D01*
X151044192Y-64885413D01*
X146025175Y-64885413D01*
X147097993Y-63812595D01*
X150358282Y-63812595D01*
X150402039Y-64131675D01*
X150507205Y-64436088D01*
X150600186Y-64610044D01*
X150864587Y-64705808D01*
X151820395Y-63750000D01*
X152179605Y-63750000D01*
X153135413Y-64705808D01*
X153399814Y-64610044D01*
X153540704Y-64320429D01*
X153622384Y-64008892D01*
X153634189Y-63812595D01*
X156858282Y-63812595D01*
X156902039Y-64131675D01*
X157007205Y-64436088D01*
X157100186Y-64610044D01*
X157364587Y-64705808D01*
X158320395Y-63750000D01*
X158679605Y-63750000D01*
X159635413Y-64705808D01*
X159899814Y-64610044D01*
X160040704Y-64320429D01*
X160122384Y-64008892D01*
X160134189Y-63812595D01*
X162358282Y-63812595D01*
X162402039Y-64131675D01*
X162507205Y-64436088D01*
X162600186Y-64610044D01*
X162864587Y-64705808D01*
X163820395Y-63750000D01*
X164179605Y-63750000D01*
X165135413Y-64705808D01*
X165399814Y-64610044D01*
X165540704Y-64320429D01*
X165622384Y-64008892D01*
X165634189Y-63812595D01*
X168858282Y-63812595D01*
X168902039Y-64131675D01*
X169007205Y-64436088D01*
X169100186Y-64610044D01*
X169364587Y-64705808D01*
X170320395Y-63750000D01*
X170679605Y-63750000D01*
X171635413Y-64705808D01*
X171899814Y-64610044D01*
X172040704Y-64320429D01*
X172122384Y-64008892D01*
X172141718Y-63687405D01*
X172097961Y-63368325D01*
X171992795Y-63063912D01*
X171899814Y-62889956D01*
X171635413Y-62794192D01*
X170679605Y-63750000D01*
X170320395Y-63750000D01*
X169364587Y-62794192D01*
X169100186Y-62889956D01*
X168959296Y-63179571D01*
X168877616Y-63491108D01*
X168858282Y-63812595D01*
X165634189Y-63812595D01*
X165641718Y-63687405D01*
X165597961Y-63368325D01*
X165492795Y-63063912D01*
X165399814Y-62889956D01*
X165135413Y-62794192D01*
X164179605Y-63750000D01*
X163820395Y-63750000D01*
X162864587Y-62794192D01*
X162600186Y-62889956D01*
X162459296Y-63179571D01*
X162377616Y-63491108D01*
X162358282Y-63812595D01*
X160134189Y-63812595D01*
X160141718Y-63687405D01*
X160097961Y-63368325D01*
X159992795Y-63063912D01*
X159899814Y-62889956D01*
X159635413Y-62794192D01*
X158679605Y-63750000D01*
X158320395Y-63750000D01*
X157364587Y-62794192D01*
X157100186Y-62889956D01*
X156959296Y-63179571D01*
X156877616Y-63491108D01*
X156858282Y-63812595D01*
X153634189Y-63812595D01*
X153641718Y-63687405D01*
X153597961Y-63368325D01*
X153492795Y-63063912D01*
X153399814Y-62889956D01*
X153135413Y-62794192D01*
X152179605Y-63750000D01*
X151820395Y-63750000D01*
X150864587Y-62794192D01*
X150600186Y-62889956D01*
X150459296Y-63179571D01*
X150377616Y-63491108D01*
X150358282Y-63812595D01*
X147097993Y-63812595D01*
X148296001Y-62614587D01*
X151044192Y-62614587D01*
X152000000Y-63570395D01*
X152955808Y-62614587D01*
X157544192Y-62614587D01*
X158500000Y-63570395D01*
X159455808Y-62614587D01*
X163044192Y-62614587D01*
X164000000Y-63570395D01*
X164955808Y-62614587D01*
X169544192Y-62614587D01*
X170500000Y-63570395D01*
X171455808Y-62614587D01*
X171360044Y-62350186D01*
X171070429Y-62209296D01*
X170758892Y-62127616D01*
X170437405Y-62108282D01*
X170118325Y-62152039D01*
X169813912Y-62257205D01*
X169639956Y-62350186D01*
X169544192Y-62614587D01*
X164955808Y-62614587D01*
X164860044Y-62350186D01*
X164570429Y-62209296D01*
X164258892Y-62127616D01*
X163937405Y-62108282D01*
X163618325Y-62152039D01*
X163313912Y-62257205D01*
X163139956Y-62350186D01*
X163044192Y-62614587D01*
X159455808Y-62614587D01*
X159360044Y-62350186D01*
X159070429Y-62209296D01*
X158758892Y-62127616D01*
X158437405Y-62108282D01*
X158118325Y-62152039D01*
X157813912Y-62257205D01*
X157639956Y-62350186D01*
X157544192Y-62614587D01*
X152955808Y-62614587D01*
X152860044Y-62350186D01*
X152570429Y-62209296D01*
X152258892Y-62127616D01*
X151937405Y-62108282D01*
X151618325Y-62152039D01*
X151313912Y-62257205D01*
X151139956Y-62350186D01*
X151044192Y-62614587D01*
X148296001Y-62614587D01*
X150685282Y-60225307D01*
X150730013Y-60292252D01*
X150957748Y-60519987D01*
X151225537Y-60698918D01*
X151523088Y-60822168D01*
X151838967Y-60885000D01*
X152161033Y-60885000D01*
X152476912Y-60822168D01*
X152774463Y-60698918D01*
X153042252Y-60519987D01*
X153269987Y-60292252D01*
X153448918Y-60024463D01*
X153572168Y-59726912D01*
X153635000Y-59411033D01*
X153635000Y-59088967D01*
X156865000Y-59088967D01*
X156865000Y-59411033D01*
X156927832Y-59726912D01*
X157051082Y-60024463D01*
X157230013Y-60292252D01*
X157457748Y-60519987D01*
X157725537Y-60698918D01*
X158023088Y-60822168D01*
X158338967Y-60885000D01*
X158661033Y-60885000D01*
X158976912Y-60822168D01*
X159274463Y-60698918D01*
X159542252Y-60519987D01*
X159769987Y-60292252D01*
X159948918Y-60024463D01*
X160072168Y-59726912D01*
X160135000Y-59411033D01*
X160135000Y-59088967D01*
X162365000Y-59088967D01*
X162365000Y-59411033D01*
X162427832Y-59726912D01*
X162551082Y-60024463D01*
X162730013Y-60292252D01*
X162957748Y-60519987D01*
X163225537Y-60698918D01*
X163523088Y-60822168D01*
X163838967Y-60885000D01*
X164161033Y-60885000D01*
X164476912Y-60822168D01*
X164774463Y-60698918D01*
X165042252Y-60519987D01*
X165269987Y-60292252D01*
X165448918Y-60024463D01*
X165572168Y-59726912D01*
X165635000Y-59411033D01*
X165635000Y-59088967D01*
X168865000Y-59088967D01*
X168865000Y-59411033D01*
X168927832Y-59726912D01*
X169051082Y-60024463D01*
X169230013Y-60292252D01*
X169457748Y-60519987D01*
X169725537Y-60698918D01*
X170023088Y-60822168D01*
X170338967Y-60885000D01*
X170661033Y-60885000D01*
X170976912Y-60822168D01*
X171274463Y-60698918D01*
X171542252Y-60519987D01*
X171769987Y-60292252D01*
X171948918Y-60024463D01*
X172072168Y-59726912D01*
X172135000Y-59411033D01*
X172135000Y-59088967D01*
X172072168Y-58773088D01*
X171948918Y-58475537D01*
X171769987Y-58207748D01*
X171542252Y-57980013D01*
X171274463Y-57801082D01*
X170976912Y-57677832D01*
X170661033Y-57615000D01*
X170338967Y-57615000D01*
X170023088Y-57677832D01*
X169725537Y-57801082D01*
X169457748Y-57980013D01*
X169230013Y-58207748D01*
X169051082Y-58475537D01*
X168927832Y-58773088D01*
X168865000Y-59088967D01*
X165635000Y-59088967D01*
X165572168Y-58773088D01*
X165448918Y-58475537D01*
X165269987Y-58207748D01*
X165042252Y-57980013D01*
X164774463Y-57801082D01*
X164476912Y-57677832D01*
X164161033Y-57615000D01*
X163838967Y-57615000D01*
X163523088Y-57677832D01*
X163225537Y-57801082D01*
X162957748Y-57980013D01*
X162730013Y-58207748D01*
X162551082Y-58475537D01*
X162427832Y-58773088D01*
X162365000Y-59088967D01*
X160135000Y-59088967D01*
X160072168Y-58773088D01*
X159948918Y-58475537D01*
X159769987Y-58207748D01*
X159542252Y-57980013D01*
X159274463Y-57801082D01*
X158976912Y-57677832D01*
X158661033Y-57615000D01*
X158338967Y-57615000D01*
X158023088Y-57677832D01*
X157725537Y-57801082D01*
X157457748Y-57980013D01*
X157230013Y-58207748D01*
X157051082Y-58475537D01*
X156927832Y-58773088D01*
X156865000Y-59088967D01*
X153635000Y-59088967D01*
X153572168Y-58773088D01*
X153448918Y-58475537D01*
X153269987Y-58207748D01*
X153042252Y-57980013D01*
X152774463Y-57801082D01*
X152476912Y-57677832D01*
X152161033Y-57615000D01*
X151838967Y-57615000D01*
X151523088Y-57677832D01*
X151225537Y-57801082D01*
X150957748Y-57980013D01*
X150730013Y-58207748D01*
X150551082Y-58475537D01*
X150544948Y-58490345D01*
X150436801Y-58500997D01*
X150293540Y-58544454D01*
X150161510Y-58615026D01*
X150105115Y-58661309D01*
X150045786Y-58709999D01*
X150021988Y-58738997D01*
X144645987Y-64114999D01*
X120682323Y-64114999D01*
X120645000Y-64111323D01*
X120607677Y-64114999D01*
X120607668Y-64114999D01*
X120496015Y-64125996D01*
X120352754Y-64169453D01*
X120220725Y-64240025D01*
X120220723Y-64240026D01*
X120220724Y-64240026D01*
X120133997Y-64311200D01*
X120133993Y-64311204D01*
X120105000Y-64334998D01*
X120081206Y-64363991D01*
X115845907Y-68599292D01*
X115801309Y-68585764D01*
X115590492Y-68565000D01*
X115449508Y-68565000D01*
X115238691Y-68585764D01*
X114968192Y-68667818D01*
X114718899Y-68801068D01*
X114500392Y-68980392D01*
X114321068Y-69198899D01*
X114250000Y-69331858D01*
X114178932Y-69198899D01*
X113999608Y-68980392D01*
X113781101Y-68801068D01*
X113740000Y-68779099D01*
X113740000Y-65858665D01*
X114315000Y-65858665D01*
X114315000Y-66141335D01*
X114370147Y-66418574D01*
X114478320Y-66679727D01*
X114635363Y-66914759D01*
X114835241Y-67114637D01*
X115070273Y-67271680D01*
X115331426Y-67379853D01*
X115608665Y-67435000D01*
X115891335Y-67435000D01*
X116168574Y-67379853D01*
X116429727Y-67271680D01*
X116664759Y-67114637D01*
X116864637Y-66914759D01*
X117021680Y-66679727D01*
X117129853Y-66418574D01*
X117185000Y-66141335D01*
X117185000Y-65858665D01*
X117129853Y-65581426D01*
X117021680Y-65320273D01*
X116864637Y-65085241D01*
X116664759Y-64885363D01*
X116429727Y-64728320D01*
X116168574Y-64620147D01*
X115891335Y-64565000D01*
X115608665Y-64565000D01*
X115331426Y-64620147D01*
X115070273Y-64728320D01*
X114835241Y-64885363D01*
X114635363Y-65085241D01*
X114478320Y-65320273D01*
X114370147Y-65581426D01*
X114315000Y-65858665D01*
X113740000Y-65858665D01*
X113740000Y-64517333D01*
X113743677Y-64480000D01*
X113729003Y-64331014D01*
X113685546Y-64187753D01*
X113614974Y-64055724D01*
X113543799Y-63968997D01*
X113520001Y-63939999D01*
X113491004Y-63916202D01*
X109566177Y-59991376D01*
X109572168Y-59976912D01*
X109635000Y-59661033D01*
X109635000Y-59338967D01*
X109572168Y-59023088D01*
X109448918Y-58725537D01*
X109269987Y-58457748D01*
X109042252Y-58230013D01*
X108774463Y-58051082D01*
X108476912Y-57927832D01*
X108161033Y-57865000D01*
X107838967Y-57865000D01*
X107523088Y-57927832D01*
X107225537Y-58051082D01*
X106957748Y-58230013D01*
X106730013Y-58457748D01*
X106551082Y-58725537D01*
X106545091Y-58740000D01*
X102954909Y-58740000D01*
X102948918Y-58725537D01*
X102769987Y-58457748D01*
X102542252Y-58230013D01*
X102274463Y-58051082D01*
X101976912Y-57927832D01*
X101661033Y-57865000D01*
X101338967Y-57865000D01*
X101023088Y-57927832D01*
X100725537Y-58051082D01*
X100457748Y-58230013D01*
X100230013Y-58457748D01*
X100051082Y-58725537D01*
X100045091Y-58740000D01*
X99337612Y-58740000D01*
X97111399Y-56513788D01*
X97111399Y-56436018D01*
X97246223Y-56476916D01*
X97466381Y-56498600D01*
X97613619Y-56498600D01*
X97833777Y-56476916D01*
X97916900Y-56451701D01*
X98164797Y-56699598D01*
X98188600Y-56728602D01*
X98304325Y-56823575D01*
X98436354Y-56894147D01*
X98579615Y-56937604D01*
X98691268Y-56948601D01*
X98691277Y-56948601D01*
X98728600Y-56952277D01*
X98765923Y-56948601D01*
X105693207Y-56948601D01*
X105730529Y-56952277D01*
X105767851Y-56948601D01*
X105767862Y-56948601D01*
X105879515Y-56937604D01*
X106022776Y-56894147D01*
X106077305Y-56865000D01*
X115674623Y-56865000D01*
X115729153Y-56894147D01*
X115872414Y-56937603D01*
X116021399Y-56952277D01*
X116111828Y-56943370D01*
X116075906Y-56979292D01*
X116031309Y-56965764D01*
X115820492Y-56945000D01*
X115679508Y-56945000D01*
X115468691Y-56965764D01*
X115198192Y-57047818D01*
X114948899Y-57181068D01*
X114730392Y-57360392D01*
X114551068Y-57578899D01*
X114417818Y-57828192D01*
X114335764Y-58098691D01*
X114308057Y-58380000D01*
X114335764Y-58661309D01*
X114417818Y-58931808D01*
X114551068Y-59181101D01*
X114730392Y-59399608D01*
X114948899Y-59578932D01*
X115198192Y-59712182D01*
X115468691Y-59794236D01*
X115679508Y-59815000D01*
X115820492Y-59815000D01*
X116031309Y-59794236D01*
X116301808Y-59712182D01*
X116551101Y-59578932D01*
X116769608Y-59399608D01*
X116948932Y-59181101D01*
X117082182Y-58931808D01*
X117164236Y-58661309D01*
X117191943Y-58380000D01*
X121308057Y-58380000D01*
X121335764Y-58661309D01*
X121417818Y-58931808D01*
X121551068Y-59181101D01*
X121730392Y-59399608D01*
X121948899Y-59578932D01*
X122198192Y-59712182D01*
X122468691Y-59794236D01*
X122679508Y-59815000D01*
X122820492Y-59815000D01*
X123031309Y-59794236D01*
X123301808Y-59712182D01*
X123551101Y-59578932D01*
X123769608Y-59399608D01*
X123948932Y-59181101D01*
X124082182Y-58931808D01*
X124164236Y-58661309D01*
X124167319Y-58630000D01*
X135808057Y-58630000D01*
X135835764Y-58911309D01*
X135917818Y-59181808D01*
X136051068Y-59431101D01*
X136230392Y-59649608D01*
X136448899Y-59828932D01*
X136698192Y-59962182D01*
X136968691Y-60044236D01*
X137179508Y-60065000D01*
X137320492Y-60065000D01*
X137531309Y-60044236D01*
X137801808Y-59962182D01*
X138051101Y-59828932D01*
X138269608Y-59649608D01*
X138448932Y-59431101D01*
X138582182Y-59181808D01*
X138664236Y-58911309D01*
X138691943Y-58630000D01*
X138664236Y-58348691D01*
X138582182Y-58078192D01*
X138448932Y-57828899D01*
X138269608Y-57610392D01*
X138051101Y-57431068D01*
X137801808Y-57297818D01*
X137531309Y-57215764D01*
X137320492Y-57195000D01*
X137179508Y-57195000D01*
X136968691Y-57215764D01*
X136698192Y-57297818D01*
X136448899Y-57431068D01*
X136230392Y-57610392D01*
X136051068Y-57828899D01*
X135917818Y-58078192D01*
X135835764Y-58348691D01*
X135808057Y-58630000D01*
X124167319Y-58630000D01*
X124191943Y-58380000D01*
X124164236Y-58098691D01*
X124082182Y-57828192D01*
X123948932Y-57578899D01*
X123769608Y-57360392D01*
X123551101Y-57181068D01*
X123301808Y-57047818D01*
X123031309Y-56965764D01*
X122820492Y-56945000D01*
X122679508Y-56945000D01*
X122468691Y-56965764D01*
X122198192Y-57047818D01*
X121948899Y-57181068D01*
X121730392Y-57360392D01*
X121551068Y-57578899D01*
X121417818Y-57828192D01*
X121335764Y-58098691D01*
X121308057Y-58380000D01*
X117191943Y-58380000D01*
X117164236Y-58098691D01*
X117150708Y-58054094D01*
X118444802Y-56760000D01*
X123172678Y-56760000D01*
X123210000Y-56763676D01*
X123247322Y-56760000D01*
X123247333Y-56760000D01*
X123358986Y-56749003D01*
X123502247Y-56705546D01*
X123634276Y-56634974D01*
X123750001Y-56540001D01*
X123773804Y-56510997D01*
X124801070Y-55483731D01*
X125058816Y-55535000D01*
X125361184Y-55535000D01*
X125657743Y-55476011D01*
X125937095Y-55360299D01*
X126188505Y-55192312D01*
X126254944Y-55125873D01*
X126260498Y-55144180D01*
X126319463Y-55254494D01*
X126398815Y-55351185D01*
X126495506Y-55430537D01*
X126605820Y-55489502D01*
X126725518Y-55525812D01*
X126850000Y-55538072D01*
X127464250Y-55535000D01*
X127623000Y-55376250D01*
X127623000Y-54127000D01*
X127877000Y-54127000D01*
X127877000Y-55376250D01*
X128035750Y-55535000D01*
X128650000Y-55538072D01*
X128774482Y-55525812D01*
X128894180Y-55489502D01*
X129004494Y-55430537D01*
X129101185Y-55351185D01*
X129180537Y-55254494D01*
X129239502Y-55144180D01*
X129275812Y-55024482D01*
X129288072Y-54900000D01*
X129285000Y-54285750D01*
X129126250Y-54127000D01*
X127877000Y-54127000D01*
X127623000Y-54127000D01*
X127603000Y-54127000D01*
X127603000Y-53873000D01*
X127623000Y-53873000D01*
X127623000Y-53853000D01*
X127877000Y-53853000D01*
X127877000Y-53873000D01*
X129126250Y-53873000D01*
X129285000Y-53714250D01*
X129285896Y-53534999D01*
X130670198Y-53534999D01*
X130726269Y-53591070D01*
X130675000Y-53848816D01*
X130675000Y-54151184D01*
X130733989Y-54447743D01*
X130849701Y-54727095D01*
X131017688Y-54978505D01*
X131231495Y-55192312D01*
X131482905Y-55360299D01*
X131762257Y-55476011D01*
X132058816Y-55535000D01*
X132361184Y-55535000D01*
X132618930Y-55483731D01*
X132871197Y-55735998D01*
X132895000Y-55765002D01*
X133010725Y-55859975D01*
X133142754Y-55930547D01*
X133286015Y-55974004D01*
X133397668Y-55985001D01*
X133397677Y-55985001D01*
X133435000Y-55988677D01*
X133472323Y-55985001D01*
X140530200Y-55985001D01*
X142849292Y-58304094D01*
X142835764Y-58348691D01*
X142808057Y-58630000D01*
X142835764Y-58911309D01*
X142917818Y-59181808D01*
X143051068Y-59431101D01*
X143230392Y-59649608D01*
X143448899Y-59828932D01*
X143698192Y-59962182D01*
X143968691Y-60044236D01*
X144179508Y-60065000D01*
X144320492Y-60065000D01*
X144531309Y-60044236D01*
X144801808Y-59962182D01*
X145051101Y-59828932D01*
X145269608Y-59649608D01*
X145448932Y-59431101D01*
X145582182Y-59181808D01*
X145664236Y-58911309D01*
X145691943Y-58630000D01*
X145664236Y-58348691D01*
X145582182Y-58078192D01*
X145448932Y-57828899D01*
X145269608Y-57610392D01*
X145051101Y-57431068D01*
X144801808Y-57297818D01*
X144531309Y-57215764D01*
X144320492Y-57195000D01*
X144179508Y-57195000D01*
X143968691Y-57215764D01*
X143924094Y-57229292D01*
X142230777Y-55535975D01*
X142650000Y-55538072D01*
X142774482Y-55525812D01*
X142894180Y-55489502D01*
X143004494Y-55430537D01*
X143101185Y-55351185D01*
X143180537Y-55254494D01*
X143239502Y-55144180D01*
X143275812Y-55024482D01*
X143288072Y-54900000D01*
X143285000Y-54285750D01*
X143126250Y-54127000D01*
X141877000Y-54127000D01*
X141877000Y-54147000D01*
X141623000Y-54147000D01*
X141623000Y-54127000D01*
X141603000Y-54127000D01*
X141603000Y-53873000D01*
X141623000Y-53873000D01*
X141623000Y-52623750D01*
X141877000Y-52623750D01*
X141877000Y-53873000D01*
X143126250Y-53873000D01*
X143170133Y-53829117D01*
X174265000Y-53829117D01*
X174265000Y-54170883D01*
X174331675Y-54506081D01*
X174462463Y-54821831D01*
X174652337Y-55105998D01*
X174894002Y-55347663D01*
X175178169Y-55537537D01*
X175493919Y-55668325D01*
X175829117Y-55735000D01*
X176170883Y-55735000D01*
X176506081Y-55668325D01*
X176821831Y-55537537D01*
X177105998Y-55347663D01*
X177347663Y-55105998D01*
X177537537Y-54821831D01*
X177668325Y-54506081D01*
X177735000Y-54170883D01*
X177735000Y-53829117D01*
X177668325Y-53493919D01*
X177537537Y-53178169D01*
X177347663Y-52894002D01*
X177105998Y-52652337D01*
X176821831Y-52462463D01*
X176506081Y-52331675D01*
X176170883Y-52265000D01*
X175829117Y-52265000D01*
X175493919Y-52331675D01*
X175178169Y-52462463D01*
X174894002Y-52652337D01*
X174652337Y-52894002D01*
X174462463Y-53178169D01*
X174331675Y-53493919D01*
X174265000Y-53829117D01*
X143170133Y-53829117D01*
X143285000Y-53714250D01*
X143288072Y-53100000D01*
X143275812Y-52975518D01*
X143239502Y-52855820D01*
X143180537Y-52745506D01*
X143101185Y-52648815D01*
X143004494Y-52569463D01*
X142894180Y-52510498D01*
X142774482Y-52474188D01*
X142650000Y-52461928D01*
X142035750Y-52465000D01*
X141877000Y-52623750D01*
X141623000Y-52623750D01*
X141464250Y-52465000D01*
X140850000Y-52461928D01*
X140725518Y-52474188D01*
X140605820Y-52510498D01*
X140495506Y-52569463D01*
X140398815Y-52648815D01*
X140319463Y-52745506D01*
X140260498Y-52855820D01*
X140254944Y-52874127D01*
X140188505Y-52807688D01*
X139937095Y-52639701D01*
X139657743Y-52523989D01*
X139361184Y-52465000D01*
X139058816Y-52465000D01*
X138762257Y-52523989D01*
X138482905Y-52639701D01*
X138231495Y-52807688D01*
X138017688Y-53021495D01*
X137849701Y-53272905D01*
X137733989Y-53552257D01*
X137675000Y-53848816D01*
X137675000Y-54151184D01*
X137733989Y-54447743D01*
X137741138Y-54465001D01*
X136285896Y-54465001D01*
X136285000Y-54285750D01*
X136126250Y-54127000D01*
X134877000Y-54127000D01*
X134877000Y-54147000D01*
X134623000Y-54147000D01*
X134623000Y-54127000D01*
X134603000Y-54127000D01*
X134603000Y-53873000D01*
X134623000Y-53873000D01*
X134623000Y-52623750D01*
X134877000Y-52623750D01*
X134877000Y-53873000D01*
X136126250Y-53873000D01*
X136285000Y-53714250D01*
X136288072Y-53100000D01*
X136275812Y-52975518D01*
X136239502Y-52855820D01*
X136180537Y-52745506D01*
X136101185Y-52648815D01*
X136004494Y-52569463D01*
X135894180Y-52510498D01*
X135774482Y-52474188D01*
X135650000Y-52461928D01*
X135035750Y-52465000D01*
X134877000Y-52623750D01*
X134623000Y-52623750D01*
X134464250Y-52465000D01*
X133850000Y-52461928D01*
X133725518Y-52474188D01*
X133605820Y-52510498D01*
X133495506Y-52569463D01*
X133398815Y-52648815D01*
X133319463Y-52745506D01*
X133260498Y-52855820D01*
X133254944Y-52874127D01*
X133188505Y-52807688D01*
X132937095Y-52639701D01*
X132657743Y-52523989D01*
X132361184Y-52465000D01*
X132058816Y-52465000D01*
X131801070Y-52516269D01*
X131548803Y-52264002D01*
X131525000Y-52234998D01*
X131409275Y-52140025D01*
X131277246Y-52069453D01*
X131133985Y-52025996D01*
X131022332Y-52014999D01*
X131022321Y-52014999D01*
X130984999Y-52011323D01*
X130947677Y-52014999D01*
X117659322Y-52014999D01*
X117621999Y-52011323D01*
X117584676Y-52014999D01*
X117584666Y-52014999D01*
X117473013Y-52025996D01*
X117329752Y-52069453D01*
X117197722Y-52140025D01*
X117116284Y-52206860D01*
X117081998Y-52234998D01*
X117058200Y-52263996D01*
X116270798Y-53051399D01*
X106532738Y-53051399D01*
X106614963Y-52819027D01*
X106494464Y-52587000D01*
X105287000Y-52587000D01*
X105287000Y-52607000D01*
X105033000Y-52607000D01*
X105033000Y-52587000D01*
X105013000Y-52587000D01*
X105013000Y-52333000D01*
X105033000Y-52333000D01*
X105033000Y-51126183D01*
X105287000Y-51126183D01*
X105287000Y-52333000D01*
X106494464Y-52333000D01*
X106614963Y-52100973D01*
X106516964Y-51824022D01*
X106366817Y-51571512D01*
X106170293Y-51353146D01*
X105934944Y-51177316D01*
X105669814Y-51050778D01*
X105519026Y-51005042D01*
X105287000Y-51126183D01*
X105033000Y-51126183D01*
X104800974Y-51005042D01*
X104650186Y-51050778D01*
X104385056Y-51177316D01*
X104149707Y-51353146D01*
X103953183Y-51571512D01*
X103895863Y-51667910D01*
X103872069Y-51623394D01*
X103684797Y-51395203D01*
X103456606Y-51207931D01*
X103196264Y-51068775D01*
X102913777Y-50983084D01*
X102693619Y-50961400D01*
X102546381Y-50961400D01*
X102326223Y-50983084D01*
X102043736Y-51068775D01*
X101783394Y-51207931D01*
X101555203Y-51395203D01*
X101367931Y-51623394D01*
X101350000Y-51656940D01*
X101332069Y-51623394D01*
X101144797Y-51395203D01*
X100916606Y-51207931D01*
X100656264Y-51068775D01*
X100373777Y-50983084D01*
X100153619Y-50961400D01*
X100006381Y-50961400D01*
X99786223Y-50983084D01*
X99503736Y-51068775D01*
X99243394Y-51207931D01*
X99015203Y-51395203D01*
X98827931Y-51623394D01*
X98810000Y-51656940D01*
X98792069Y-51623394D01*
X98604797Y-51395203D01*
X98376606Y-51207931D01*
X98116264Y-51068775D01*
X97833777Y-50983084D01*
X97613619Y-50961400D01*
X97466381Y-50961400D01*
X97246223Y-50983084D01*
X96963736Y-51068775D01*
X96703394Y-51207931D01*
X96475203Y-51395203D01*
X96287931Y-51623394D01*
X96270000Y-51656940D01*
X96252069Y-51623394D01*
X96064797Y-51395203D01*
X95836606Y-51207931D01*
X95576264Y-51068775D01*
X95293777Y-50983084D01*
X95073619Y-50961400D01*
X94926381Y-50961400D01*
X94706223Y-50983084D01*
X94423736Y-51068775D01*
X94163394Y-51207931D01*
X93935203Y-51395203D01*
X93747931Y-51623394D01*
X93608775Y-51883736D01*
X93523084Y-52166223D01*
X93494149Y-52460000D01*
X93523084Y-52753777D01*
X93548299Y-52836900D01*
X92738998Y-53646201D01*
X92710000Y-53669999D01*
X92686202Y-53698997D01*
X92686201Y-53698998D01*
X92615026Y-53785724D01*
X92544454Y-53917754D01*
X92521071Y-53994840D01*
X92500998Y-54061014D01*
X92494636Y-54125610D01*
X92486324Y-54210000D01*
X92490001Y-54247332D01*
X92490000Y-56712677D01*
X92486324Y-56750000D01*
X92490000Y-56787322D01*
X92490000Y-56787332D01*
X92500997Y-56898985D01*
X92524837Y-56977575D01*
X92544454Y-57042246D01*
X92615026Y-57174276D01*
X92632034Y-57195000D01*
X92709999Y-57290001D01*
X92739003Y-57313804D01*
X94165198Y-58740000D01*
X90954909Y-58740000D01*
X90948918Y-58725537D01*
X90769987Y-58457748D01*
X90542252Y-58230013D01*
X90274463Y-58051082D01*
X89976912Y-57927832D01*
X89661033Y-57865000D01*
X89338967Y-57865000D01*
X89023088Y-57927832D01*
X88725537Y-58051082D01*
X88457748Y-58230013D01*
X88230013Y-58457748D01*
X88051082Y-58725537D01*
X87927832Y-59023088D01*
X87865000Y-59338967D01*
X87865000Y-59661033D01*
X87927832Y-59976912D01*
X88051082Y-60274463D01*
X88230013Y-60542252D01*
X88457748Y-60769987D01*
X88725537Y-60948918D01*
X89023088Y-61072168D01*
X89338967Y-61135000D01*
X89661033Y-61135000D01*
X89976912Y-61072168D01*
X90274463Y-60948918D01*
X90542252Y-60769987D01*
X90769987Y-60542252D01*
X90948918Y-60274463D01*
X90954909Y-60260000D01*
X94545091Y-60260000D01*
X94551082Y-60274463D01*
X94730013Y-60542252D01*
X94957748Y-60769987D01*
X95225537Y-60948918D01*
X95523088Y-61072168D01*
X95838967Y-61135000D01*
X96161033Y-61135000D01*
X96476912Y-61072168D01*
X96774463Y-60948918D01*
X97042252Y-60769987D01*
X97240000Y-60572239D01*
X97240000Y-63082073D01*
X97135413Y-63044192D01*
X96179605Y-64000000D01*
X97135413Y-64955808D01*
X97240000Y-64917927D01*
X97240001Y-70159099D01*
X97198899Y-70181068D01*
X96980392Y-70360392D01*
X96801068Y-70578899D01*
X96779099Y-70620000D01*
X93407322Y-70620000D01*
X93369999Y-70616324D01*
X93332676Y-70620000D01*
X93332667Y-70620000D01*
X93221014Y-70630997D01*
X93077753Y-70674454D01*
X92945724Y-70745026D01*
X92829999Y-70839999D01*
X92806201Y-70868997D01*
X88489003Y-75186196D01*
X88459999Y-75209999D01*
X88404871Y-75277174D01*
X88365026Y-75325724D01*
X88345674Y-75361928D01*
X88000000Y-75361928D01*
X87875518Y-75374188D01*
X87755820Y-75410498D01*
X87645506Y-75469463D01*
X87548815Y-75548815D01*
X87469463Y-75645506D01*
X87410498Y-75755820D01*
X87374188Y-75875518D01*
X87361928Y-76000000D01*
X80660000Y-76000000D01*
X80660000Y-73135413D01*
X88044192Y-73135413D01*
X88139956Y-73399814D01*
X88429571Y-73540704D01*
X88741108Y-73622384D01*
X89062595Y-73641718D01*
X89381675Y-73597961D01*
X89686088Y-73492795D01*
X89860044Y-73399814D01*
X89955808Y-73135413D01*
X89000000Y-72179605D01*
X88044192Y-73135413D01*
X80660000Y-73135413D01*
X80660000Y-72062595D01*
X87358282Y-72062595D01*
X87402039Y-72381675D01*
X87507205Y-72686088D01*
X87600186Y-72860044D01*
X87864587Y-72955808D01*
X88820395Y-72000000D01*
X89179605Y-72000000D01*
X90135413Y-72955808D01*
X90399814Y-72860044D01*
X90540704Y-72570429D01*
X90622384Y-72258892D01*
X90641718Y-71937405D01*
X90597961Y-71618325D01*
X90492795Y-71313912D01*
X90399814Y-71139956D01*
X90135413Y-71044192D01*
X89179605Y-72000000D01*
X88820395Y-72000000D01*
X87864587Y-71044192D01*
X87600186Y-71139956D01*
X87459296Y-71429571D01*
X87377616Y-71741108D01*
X87358282Y-72062595D01*
X80660000Y-72062595D01*
X80660000Y-70864587D01*
X88044192Y-70864587D01*
X89000000Y-71820395D01*
X89955808Y-70864587D01*
X89860044Y-70600186D01*
X89570429Y-70459296D01*
X89258892Y-70377616D01*
X88937405Y-70358282D01*
X88618325Y-70402039D01*
X88313912Y-70507205D01*
X88139956Y-70600186D01*
X88044192Y-70864587D01*
X80660000Y-70864587D01*
X80660000Y-65135413D01*
X88544192Y-65135413D01*
X88639956Y-65399814D01*
X88929571Y-65540704D01*
X89241108Y-65622384D01*
X89562595Y-65641718D01*
X89881675Y-65597961D01*
X90186088Y-65492795D01*
X90360044Y-65399814D01*
X90455808Y-65135413D01*
X95044192Y-65135413D01*
X95139956Y-65399814D01*
X95429571Y-65540704D01*
X95741108Y-65622384D01*
X96062595Y-65641718D01*
X96381675Y-65597961D01*
X96686088Y-65492795D01*
X96860044Y-65399814D01*
X96955808Y-65135413D01*
X96000000Y-64179605D01*
X95044192Y-65135413D01*
X90455808Y-65135413D01*
X89500000Y-64179605D01*
X88544192Y-65135413D01*
X80660000Y-65135413D01*
X80660000Y-64062595D01*
X87858282Y-64062595D01*
X87902039Y-64381675D01*
X88007205Y-64686088D01*
X88100186Y-64860044D01*
X88364587Y-64955808D01*
X89320395Y-64000000D01*
X89679605Y-64000000D01*
X90635413Y-64955808D01*
X90899814Y-64860044D01*
X91040704Y-64570429D01*
X91122384Y-64258892D01*
X91134189Y-64062595D01*
X94358282Y-64062595D01*
X94402039Y-64381675D01*
X94507205Y-64686088D01*
X94600186Y-64860044D01*
X94864587Y-64955808D01*
X95820395Y-64000000D01*
X94864587Y-63044192D01*
X94600186Y-63139956D01*
X94459296Y-63429571D01*
X94377616Y-63741108D01*
X94358282Y-64062595D01*
X91134189Y-64062595D01*
X91141718Y-63937405D01*
X91097961Y-63618325D01*
X90992795Y-63313912D01*
X90899814Y-63139956D01*
X90635413Y-63044192D01*
X89679605Y-64000000D01*
X89320395Y-64000000D01*
X88364587Y-63044192D01*
X88100186Y-63139956D01*
X87959296Y-63429571D01*
X87877616Y-63741108D01*
X87858282Y-64062595D01*
X80660000Y-64062595D01*
X80660000Y-62864587D01*
X88544192Y-62864587D01*
X89500000Y-63820395D01*
X90455808Y-62864587D01*
X95044192Y-62864587D01*
X96000000Y-63820395D01*
X96955808Y-62864587D01*
X96860044Y-62600186D01*
X96570429Y-62459296D01*
X96258892Y-62377616D01*
X95937405Y-62358282D01*
X95618325Y-62402039D01*
X95313912Y-62507205D01*
X95139956Y-62600186D01*
X95044192Y-62864587D01*
X90455808Y-62864587D01*
X90360044Y-62600186D01*
X90070429Y-62459296D01*
X89758892Y-62377616D01*
X89437405Y-62358282D01*
X89118325Y-62402039D01*
X88813912Y-62507205D01*
X88639956Y-62600186D01*
X88544192Y-62864587D01*
X80660000Y-62864587D01*
X80660000Y-55029392D01*
X80731173Y-54231917D01*
X80841366Y-53829117D01*
X82265000Y-53829117D01*
X82265000Y-54170883D01*
X82331675Y-54506081D01*
X82462463Y-54821831D01*
X82652337Y-55105998D01*
X82894002Y-55347663D01*
X83178169Y-55537537D01*
X83493919Y-55668325D01*
X83829117Y-55735000D01*
X84170883Y-55735000D01*
X84506081Y-55668325D01*
X84821831Y-55537537D01*
X85105998Y-55347663D01*
X85347663Y-55105998D01*
X85537537Y-54821831D01*
X85668325Y-54506081D01*
X85735000Y-54170883D01*
X85735000Y-53829117D01*
X85668325Y-53493919D01*
X85537537Y-53178169D01*
X85347663Y-52894002D01*
X85105998Y-52652337D01*
X84821831Y-52462463D01*
X84506081Y-52331675D01*
X84170883Y-52265000D01*
X83829117Y-52265000D01*
X83493919Y-52331675D01*
X83178169Y-52462463D01*
X82894002Y-52652337D01*
X82652337Y-52894002D01*
X82462463Y-53178169D01*
X82331675Y-53493919D01*
X82265000Y-53829117D01*
X80841366Y-53829117D01*
X80934656Y-53488109D01*
X81266638Y-52792095D01*
X81716626Y-52165870D01*
X82270403Y-51629223D01*
X82910451Y-51199129D01*
X83616553Y-50889171D01*
X84371457Y-50707935D01*
X85024207Y-50660000D01*
X174970608Y-50660000D01*
X175768083Y-50731173D01*
G36*
X142578629Y-65709999D02*
G01*
X142554831Y-65738997D01*
X140178830Y-68114999D01*
X134462323Y-68114999D01*
X134425000Y-68111323D01*
X134387677Y-68114999D01*
X134387668Y-68114999D01*
X134276015Y-68125996D01*
X134132754Y-68169453D01*
X134000725Y-68240025D01*
X133885000Y-68334998D01*
X133861197Y-68364002D01*
X133625907Y-68599292D01*
X133581309Y-68585764D01*
X133370492Y-68565000D01*
X133229508Y-68565000D01*
X133018691Y-68585764D01*
X132748192Y-68667818D01*
X132498899Y-68801068D01*
X132280392Y-68980392D01*
X132101068Y-69198899D01*
X132030000Y-69331858D01*
X131958932Y-69198899D01*
X131779608Y-68980392D01*
X131561101Y-68801068D01*
X131311808Y-68667818D01*
X131041309Y-68585764D01*
X130830492Y-68565000D01*
X130689508Y-68565000D01*
X130478691Y-68585764D01*
X130208192Y-68667818D01*
X129958899Y-68801068D01*
X129740392Y-68980392D01*
X129561068Y-69198899D01*
X129487421Y-69336682D01*
X129372385Y-69144869D01*
X129183414Y-68936481D01*
X128957420Y-68768963D01*
X128703087Y-68648754D01*
X128569039Y-68608096D01*
X128347000Y-68730085D01*
X128347000Y-69873000D01*
X128367000Y-69873000D01*
X128367000Y-70127000D01*
X128347000Y-70127000D01*
X128347000Y-70147000D01*
X128093000Y-70147000D01*
X128093000Y-70127000D01*
X128073000Y-70127000D01*
X128073000Y-69873000D01*
X128093000Y-69873000D01*
X128093000Y-68730085D01*
X127870961Y-68608096D01*
X127736913Y-68648754D01*
X127482580Y-68768963D01*
X127256586Y-68936481D01*
X127067615Y-69144869D01*
X126952579Y-69336682D01*
X126878932Y-69198899D01*
X126699608Y-68980392D01*
X126481101Y-68801068D01*
X126231808Y-68667818D01*
X125961309Y-68585764D01*
X125750492Y-68565000D01*
X125609508Y-68565000D01*
X125398691Y-68585764D01*
X125128192Y-68667818D01*
X124878899Y-68801068D01*
X124660392Y-68980392D01*
X124481068Y-69198899D01*
X124410000Y-69331858D01*
X124338932Y-69198899D01*
X124159608Y-68980392D01*
X123941101Y-68801068D01*
X123691808Y-68667818D01*
X123421309Y-68585764D01*
X123210492Y-68565000D01*
X123109802Y-68565000D01*
X124664802Y-67010000D01*
X136031957Y-67010000D01*
X136135363Y-67164759D01*
X136335241Y-67364637D01*
X136570273Y-67521680D01*
X136831426Y-67629853D01*
X137108665Y-67685000D01*
X137391335Y-67685000D01*
X137668574Y-67629853D01*
X137929727Y-67521680D01*
X138164759Y-67364637D01*
X138364637Y-67164759D01*
X138521680Y-66929727D01*
X138629853Y-66668574D01*
X138685000Y-66391335D01*
X138685000Y-66108665D01*
X138629853Y-65831426D01*
X138548490Y-65634999D01*
X142670017Y-65634999D01*
X142578629Y-65709999D01*
X142578629Y-65709999D01*
G37*
X142578629Y-65709999D02*
X142554831Y-65738997D01*
X140178830Y-68114999D01*
X134462323Y-68114999D01*
X134425000Y-68111323D01*
X134387677Y-68114999D01*
X134387668Y-68114999D01*
X134276015Y-68125996D01*
X134132754Y-68169453D01*
X134000725Y-68240025D01*
X133885000Y-68334998D01*
X133861197Y-68364002D01*
X133625907Y-68599292D01*
X133581309Y-68585764D01*
X133370492Y-68565000D01*
X133229508Y-68565000D01*
X133018691Y-68585764D01*
X132748192Y-68667818D01*
X132498899Y-68801068D01*
X132280392Y-68980392D01*
X132101068Y-69198899D01*
X132030000Y-69331858D01*
X131958932Y-69198899D01*
X131779608Y-68980392D01*
X131561101Y-68801068D01*
X131311808Y-68667818D01*
X131041309Y-68585764D01*
X130830492Y-68565000D01*
X130689508Y-68565000D01*
X130478691Y-68585764D01*
X130208192Y-68667818D01*
X129958899Y-68801068D01*
X129740392Y-68980392D01*
X129561068Y-69198899D01*
X129487421Y-69336682D01*
X129372385Y-69144869D01*
X129183414Y-68936481D01*
X128957420Y-68768963D01*
X128703087Y-68648754D01*
X128569039Y-68608096D01*
X128347000Y-68730085D01*
X128347000Y-69873000D01*
X128367000Y-69873000D01*
X128367000Y-70127000D01*
X128347000Y-70127000D01*
X128347000Y-70147000D01*
X128093000Y-70147000D01*
X128093000Y-70127000D01*
X128073000Y-70127000D01*
X128073000Y-69873000D01*
X128093000Y-69873000D01*
X128093000Y-68730085D01*
X127870961Y-68608096D01*
X127736913Y-68648754D01*
X127482580Y-68768963D01*
X127256586Y-68936481D01*
X127067615Y-69144869D01*
X126952579Y-69336682D01*
X126878932Y-69198899D01*
X126699608Y-68980392D01*
X126481101Y-68801068D01*
X126231808Y-68667818D01*
X125961309Y-68585764D01*
X125750492Y-68565000D01*
X125609508Y-68565000D01*
X125398691Y-68585764D01*
X125128192Y-68667818D01*
X124878899Y-68801068D01*
X124660392Y-68980392D01*
X124481068Y-69198899D01*
X124410000Y-69331858D01*
X124338932Y-69198899D01*
X124159608Y-68980392D01*
X123941101Y-68801068D01*
X123691808Y-68667818D01*
X123421309Y-68585764D01*
X123210492Y-68565000D01*
X123109802Y-68565000D01*
X124664802Y-67010000D01*
X136031957Y-67010000D01*
X136135363Y-67164759D01*
X136335241Y-67364637D01*
X136570273Y-67521680D01*
X136831426Y-67629853D01*
X137108665Y-67685000D01*
X137391335Y-67685000D01*
X137668574Y-67629853D01*
X137929727Y-67521680D01*
X138164759Y-67364637D01*
X138364637Y-67164759D01*
X138521680Y-66929727D01*
X138629853Y-66668574D01*
X138685000Y-66391335D01*
X138685000Y-66108665D01*
X138629853Y-65831426D01*
X138548490Y-65634999D01*
X142670017Y-65634999D01*
X142578629Y-65709999D01*
G36*
X123733989Y-53552257D02*
G01*
X123675000Y-53848816D01*
X123675000Y-54151184D01*
X123726269Y-54408930D01*
X122895199Y-55240000D01*
X122188284Y-55240000D01*
X122239502Y-55144180D01*
X122275812Y-55024482D01*
X122288072Y-54900000D01*
X122285000Y-54285750D01*
X122126250Y-54127000D01*
X120877000Y-54127000D01*
X120877000Y-54147000D01*
X120623000Y-54147000D01*
X120623000Y-54127000D01*
X120603000Y-54127000D01*
X120603000Y-53873000D01*
X120623000Y-53873000D01*
X120623000Y-53853000D01*
X120877000Y-53853000D01*
X120877000Y-53873000D01*
X122126250Y-53873000D01*
X122285000Y-53714250D01*
X122285896Y-53534999D01*
X123741138Y-53534999D01*
X123733989Y-53552257D01*
X123733989Y-53552257D01*
G37*
X123733989Y-53552257D02*
X123675000Y-53848816D01*
X123675000Y-54151184D01*
X123726269Y-54408930D01*
X122895199Y-55240000D01*
X122188284Y-55240000D01*
X122239502Y-55144180D01*
X122275812Y-55024482D01*
X122288072Y-54900000D01*
X122285000Y-54285750D01*
X122126250Y-54127000D01*
X120877000Y-54127000D01*
X120877000Y-54147000D01*
X120623000Y-54147000D01*
X120623000Y-54127000D01*
X120603000Y-54127000D01*
X120603000Y-53873000D01*
X120623000Y-53873000D01*
X120623000Y-53853000D01*
X120877000Y-53853000D01*
X120877000Y-53873000D01*
X122126250Y-53873000D01*
X122285000Y-53714250D01*
X122285896Y-53534999D01*
X123741138Y-53534999D01*
X123733989Y-53552257D01*
M02*
