M48
; DRILL file {KiCad (5.1.2)-1} date 5/18/2019 10:17:43 PM
; FORMAT={-:-/ absolute / inch / decimal}
; #@! TF.CreationDate,2019-05-18T22:17:43-04:00
; #@! TF.GenerationSoftware,Kicad,Pcbnew,(5.1.2)-1
; #@! TF.FileFunction,Plated,1,2,PTH
FMAT,2
INCH
T1C0.0157
T2C0.0315
T3C0.0354
T4C0.0394
T5C0.0400
T6C0.0402
T7C0.0433
%
G90
G05
T1
X4.1043Y-2.723
X5.3266Y-2.9429
T2
X6.6929Y-3.1102
X6.8898Y-3.1102
X6.5748Y-3.3465
X6.5748Y-3.5433
X5.6791Y-2.3083
X5.6791Y-2.6083
X6.0236Y-2.874
X6.2157Y-2.874
X4.8327Y-2.2984
X4.8327Y-2.5984
X6.8504Y-3.4744
X6.8504Y-3.5728
X5.8957Y-3.8976
X6.0925Y-3.8976
X5.4035Y-2.3083
X5.4035Y-2.6083
X3.2677Y-3.4252
X3.2677Y-3.5039
X3.2677Y-3.5827
X3.8583Y-2.8102
X3.8583Y-3.1102
X4.448Y-2.7559
X4.448Y-3.0559
X4.548Y-2.7559
X4.548Y-3.0559
X4.648Y-2.7559
X4.648Y-3.0559
X4.748Y-2.7559
X4.748Y-3.0559
X4.848Y-2.7559
X4.848Y-3.0559
X4.948Y-2.7559
X4.948Y-3.0559
X5.048Y-2.7559
X5.048Y-3.0559
X5.148Y-2.7559
X5.148Y-3.0559
X5.248Y-2.7559
X5.248Y-3.0559
X5.348Y-2.7559
X5.348Y-3.0559
X5.448Y-2.7559
X5.448Y-3.0559
X5.548Y-2.7559
X5.548Y-3.0559
X5.648Y-2.7559
X5.648Y-3.0559
X5.748Y-2.7559
X5.748Y-3.0559
X6.5748Y-3.7106
X6.6535Y-3.7106
X5.9154Y-3.4449
X5.9154Y-3.7449
X6.6929Y-2.874
X6.8898Y-2.874
X6.8406Y-3.7894
X6.8406Y-3.8878
X4.5571Y-2.2984
X4.5571Y-2.5984
X6.1024Y-3.3465
X6.1024Y-3.4465
X6.1024Y-3.5465
X6.1024Y-3.6465
X6.4024Y-3.3465
X6.4024Y-3.4465
X6.4024Y-3.5465
X6.4024Y-3.6465
X6.4961Y-2.8346
X6.4961Y-3.1346
T3
X5.2051Y-2.126
X5.3051Y-2.126
X5.4807Y-2.126
X5.5807Y-2.126
X4.6539Y-2.126
X4.7539Y-2.126
X4.9295Y-2.126
X5.0295Y-2.126
T4
X3.5039Y-2.8346
X3.5039Y-3.0315
X3.2677Y-3.3465
X3.2677Y-3.6614
T5
X3.7402Y-2.0654
X3.7402Y-2.1654
X3.8402Y-2.0654
X3.8402Y-2.1654
X3.9402Y-2.0654
X3.9402Y-2.1654
X4.0402Y-2.0654
X4.0402Y-2.1654
X4.1402Y-2.0654
X4.1402Y-2.1654
T6
X3.7402Y-3.4843
X3.7402Y-3.9843
T7
X6.4567Y-2.3327
X6.4567Y-2.5098
X6.7126Y-2.3327
X6.7126Y-2.5098
X3.9961Y-2.3425
X3.9961Y-2.5197
X4.252Y-2.3425
X4.252Y-2.5197
X5.9843Y-2.3327
X5.9843Y-2.5098
X6.2402Y-2.3327
X6.2402Y-2.5098
X6.2205Y-3.8976
X6.5205Y-3.8976
X3.5236Y-2.3425
X3.5236Y-2.5197
X3.7795Y-2.3425
X3.7795Y-2.5197
T0
M30
